<svg width="112" height="106" viewBox="0 0 112 106" fill="none" xmlns="http://www.w3.org/2000/svg">
<path d="M0 74C0 46.3858 22.3858 24 50 24H111V84C111 95.0457 102.046 104 91 104H0V74Z" fill="#445893" fill-opacity="0.1"/>
<path d="M12.2031 89C12.2031 61.3858 34.5889 39 62.2031 39H111.203V84C111.203 95.0457 102.249 104 91.2031 104H12.2031V89Z" fill="#445893"/>
<g clip-path="url(#clip0_1_44333)">
<path d="M88.5371 97.761V103.997H20.0173C19.0213 104.014 18.2012 103.203 18.2012 102.204V97.7726C18.2012 85.6452 28.0726 75.8125 40.2346 75.8125H66.5154C78.6833 75.8125 88.5371 85.6335 88.5371 97.761Z" fill="url(#paint0_linear_1_44333)"/>
<path d="M44.1313 82.3228C43.7329 80.0515 43.6626 77.8619 44.0141 75.8008H62.6731C63.0715 77.8736 63.007 80.0632 62.5911 82.3345" fill="#DCE5EA"/>
<path d="M61.6477 64.5352H45.1387V81.2227H61.6477V64.5352Z" fill="url(#paint1_linear_1_44333)"/>
<path d="M72.7377 53.5025C72.7377 55.2776 71.3083 56.7198 69.5097 56.7198L69.2285 58.9736C68.1975 66.9204 61.4251 72.876 53.3815 72.876C45.338 72.876 38.5539 66.9204 37.5346 58.9736L37.2534 56.7198C35.4548 56.7198 34.0254 55.2776 34.0254 53.5025C34.0254 51.7275 35.4548 50.2853 37.2534 50.2853V46.7995C37.2534 38.2221 43.7621 30.7425 52.3505 30.1936C61.7532 29.5981 69.5449 37.0252 69.5449 46.2506V50.2795C71.3083 50.2795 72.7377 51.7217 72.7377 53.4967V53.5025Z" fill="url(#paint2_linear_1_44333)"/>
<path d="M35.6113 37.3945V48.6928C35.6113 49.5862 36.3261 50.3044 37.2282 50.3044C38.1304 50.3044 38.8452 49.592 38.8452 48.6928V47.0813C38.9272 44.4596 40.4269 42.1065 42.7586 40.9096C43.3093 40.5943 43.9713 40.6293 44.4868 40.9913C47.0821 42.8014 50.228 43.648 53.374 43.3794C56.52 43.6422 59.6659 42.8014 62.2436 40.9913C62.7592 40.6293 63.427 40.5943 63.9719 40.9096C66.3035 42.1065 67.815 44.4596 67.8853 47.0813V48.6928C67.8853 49.5862 68.6 50.3044 69.5022 50.3044C70.4044 50.3044 71.1191 49.592 71.1191 48.6928V42.3868C71.1543 40.6643 70.8555 38.971 70.2696 37.412C70.2872 37.3945 35.6172 37.3945 35.6172 37.3945H35.6113Z" fill="#2D343A"/>
<path d="M66.7378 76.4249C66.685 76.5884 67.2357 75.9462 60.481 85.3351L53.3923 81.7208L59.4323 75.7009C60.2642 74.8718 61.3773 74.358 62.5431 74.2937C63.0763 74.2412 63.4102 74.3113 64.1718 74.3755C65.0564 75.0061 65.9 75.7184 66.7378 76.4308V76.4249ZM53.3747 81.7033L46.2861 85.3176C39.6602 76.0279 40.1113 76.7227 40.0293 76.4074C40.8436 75.6951 41.7107 74.9827 42.5953 74.3521C43.392 74.2879 43.6791 74.2178 44.2239 74.2704C45.3897 74.3346 46.5028 74.8368 47.3523 75.6834L53.3747 81.7033Z" fill="#F3F3F3"/>
<path d="M33.6967 76.7584L37.7097 75.8066L53.0177 103.997H30.1816L33.6967 76.7584Z" fill="#789FD6"/>
<path d="M72.2917 76.4698L68.3783 75.6641L53.0176 104H75.4611L72.2917 76.4698Z" fill="#789FD6"/>
<path d="M35.9977 36.3809H70.0291C71.3414 36.3809 72.4018 37.4377 72.4018 38.7456V43.516C72.4018 44.0357 71.98 44.4561 71.4586 44.4561H34.5741C34.0527 44.4561 33.6309 44.0357 33.6309 43.516V38.7456C33.6309 37.4377 34.6912 36.3809 36.0035 36.3809H35.9977Z" fill="#FECD0E"/>
<path d="M69.6839 36.3774H36.3379C36.3379 35.9395 36.3496 35.5016 36.373 35.0695C36.7187 29.0671 39.4077 23.8121 43.3973 20.5364C43.9538 20.081 44.5455 19.6606 45.1489 19.2811C46.8654 18.2126 48.7636 17.4827 50.773 17.1732C51.5053 17.0623 52.2493 17.0039 53.005 17.0039C53.7608 17.0039 54.5107 17.0623 55.243 17.1732C57.2524 17.4885 59.1447 18.2184 60.8612 19.2811C61.4704 19.6548 62.0563 20.0752 62.6128 20.5364C66.5965 23.8121 69.2973 29.0671 69.6371 35.0695C69.6605 35.5016 69.6722 35.9395 69.6722 36.3774H69.6839Z" fill="#FECD0E"/>
<path d="M55.2532 17.1693V28.2924C55.2532 28.853 54.8021 29.3026 54.2397 29.3026H51.785C51.2284 29.3026 50.7715 28.853 50.7715 28.2924V17.1693C51.5038 17.0584 52.2478 17 53.0035 17C53.7593 17 54.5091 17.0584 55.2414 17.1693H55.2532Z" fill="#F4A600"/>
<path d="M62.6265 20.5366L60.9276 26.8718C60.7811 27.4032 60.2304 27.7243 59.6914 27.5783C59.1525 27.4324 58.8361 26.8835 58.9767 26.3463L60.8748 19.2812C61.4841 19.6549 62.0699 20.0753 62.6265 20.5366Z" fill="#F4A600"/>
<path d="M46.3452 27.5783C45.8062 27.7243 45.2556 27.4032 45.1091 26.8718L43.4043 20.5366C43.9608 20.0812 44.5525 19.6608 45.156 19.2812L47.0541 26.3463C47.2005 26.8835 46.8842 27.4324 46.3452 27.5783Z" fill="#F4A600"/>
<path d="M69.6839 36.3802H36.3379C36.3379 35.9423 36.3496 35.5043 36.373 35.0723H69.6488C69.6722 35.5043 69.6839 35.9423 69.6839 36.3802Z" fill="#EFA13A"/>
<path d="M31.9394 90.6289L45.7067 90.7749L47.4642 93.6943H31.6465L31.9394 90.6289Z" fill="#FECD0E"/>
<path d="M31.4179 94.8613L48.2432 95.0423L50.3933 98.9486L31.0605 98.3647L31.4179 94.8613Z" fill="#FECD0E"/>
<path d="M74.1205 90.6289L60.3532 90.7749L58.5957 93.6943H74.4134L74.1205 90.6289Z" fill="#FECD0E"/>
<path d="M74.6414 94.8613L57.816 95.0423L55.666 98.9486L74.9987 98.3647L74.6414 94.8613Z" fill="#FECD0E"/>
</g>
<defs>
<linearGradient id="paint0_linear_1_44333" x1="18.2012" y1="89.9076" x2="88.5371" y2="89.9076" gradientUnits="userSpaceOnUse">
<stop stop-color="#4375C6"/>
<stop offset="1" stop-color="#123AB3"/>
</linearGradient>
<linearGradient id="paint1_linear_1_44333" x1="45.1387" y1="72.879" x2="61.6477" y2="72.879" gradientUnits="userSpaceOnUse">
<stop stop-color="#FFB46A"/>
<stop offset="1" stop-color="#FF7057"/>
</linearGradient>
<linearGradient id="paint2_linear_1_44333" x1="50.5168" y1="48.7088" x2="78.8265" y2="76.2635" gradientUnits="userSpaceOnUse">
<stop offset="0.13" stop-color="#FFB46A"/>
<stop offset="1" stop-color="#FF7057"/>
</linearGradient>
<clipPath id="clip0_1_44333">
<rect width="105.451" height="105.451" fill="white" transform="translate(0.275391)"/>
</clipPath>
</defs>
</svg>
