<svg width="50" height="50" viewBox="0 0 50 50" fill="none" xmlns="http://www.w3.org/2000/svg">
<path d="M14.817 31.4646L19.0704 35.7322L9.57944 46.1534C8.52898 47.3072 6.7045 47.2777 5.6909 46.0869L3.12189 43.0692C2.12303 41.8969 2.35524 40.1145 3.61947 39.238L14.817 31.4609V31.4646Z" fill="#EE793D"/>
<mask id="mask0_5408_49065" style="mask-type:luminance" maskUnits="userSpaceOnUse" x="12" y="3" width="37" height="36">
<path d="M30.3375 39C40.2786 39 48.3375 30.9411 48.3375 21C48.3375 11.0589 40.2786 3 30.3375 3C20.3964 3 12.3375 11.0589 12.3375 21C12.3375 30.9411 20.3964 39 30.3375 39Z" fill="white"/>
</mask>
<g mask="url(#mask0_5408_49065)">
<path d="M9.78238 34.6493C9.78238 34.6493 11.64 34.6493 12.4177 34.6308C13.3466 34.6123 14.2864 34.261 14.9904 33.1774C16.2657 31.2137 16.2657 28.0334 14.9904 26.0734C14.3528 25.0934 13.1291 24.6016 12.2924 24.6016H9.80818C8.53657 26.5652 8.51077 32.6893 9.78238 34.6493Z" fill="black"/>
<path d="M9.80458 34.6452C11.6069 34.6452 13.0665 32.3967 13.0665 29.6194C13.0665 26.8422 11.6069 24.5938 9.80458 24.5938C8.00222 24.5938 6.54263 26.8422 6.54263 29.6194C6.54263 32.3967 8.00222 34.6452 9.80458 34.6452Z" fill="#263238"/>
<path opacity="0.3" d="M9.80458 34.6452C11.6069 34.6452 13.0665 32.3967 13.0665 29.6194C13.0665 26.8422 11.6069 24.5938 9.80458 24.5938C8.00222 24.5938 6.54263 26.8422 6.54263 29.6194C6.54263 32.3967 8.00222 34.6452 9.80458 34.6452Z" fill="black"/>
<path d="M19.7304 31.8001C19.7304 31.8001 20.4307 24.0156 15.5912 24.0156C15.5912 24.0156 12.9411 24.0452 12.5172 27.6804C12.0897 31.3156 12.3661 31.7964 12.3661 31.7964H19.7341L19.7304 31.8001Z" fill="#913D03"/>
<path d="M15.7461 34.6493C15.7461 34.6493 17.6038 34.6493 18.3815 34.6308C19.3103 34.6123 20.2502 34.261 20.9542 33.1774C22.2295 31.2137 22.2295 28.0334 20.9542 26.0734C20.3165 25.0934 19.0928 24.6016 18.2562 24.6016H15.7719C14.4966 26.5652 14.4745 32.6893 15.7461 34.6493Z" fill="black"/>
<path d="M15.7718 34.6452C17.5742 34.6452 19.0338 32.3967 19.0338 29.6194C19.0338 26.8422 17.5742 24.5938 15.7718 24.5938C13.9694 24.5938 12.5099 26.8422 12.5099 29.6194C12.5099 32.3967 13.9694 34.6452 15.7718 34.6452Z" fill="#263238"/>
<path opacity="0.4" d="M14.3566 31.8046C15.1379 33.0065 16.4022 33.0065 17.1836 31.8046C17.965 30.6028 17.965 28.6502 17.1836 27.4483C16.4022 26.2464 15.1379 26.2464 14.3566 27.4483C13.5752 28.6502 13.5752 30.6028 14.3566 31.8046Z" fill="white"/>
<g opacity="0.3">
<path d="M15.6097 27.0993V28.6784C15.6097 28.8152 15.6797 28.9262 15.7682 28.9262C15.8566 28.9262 15.9266 28.8152 15.9266 28.6784V27.0993C15.9266 26.9625 15.8566 26.8516 15.7682 26.8516C15.6797 26.8516 15.6097 26.9625 15.6097 27.0993Z" fill="white"/>
</g>
<g opacity="0.3">
<path d="M15.6097 30.5681V32.1472C15.6097 32.284 15.6797 32.3949 15.7682 32.3949C15.8566 32.3949 15.9266 32.284 15.9266 32.1472V30.5681C15.9266 30.4313 15.8566 30.3203 15.7682 30.3203C15.6797 30.3203 15.6097 30.4313 15.6097 30.5681Z" fill="white"/>
</g>
<g opacity="0.3">
<path d="M15.1602 29.3654C15.2376 29.4319 15.3334 29.3913 15.3776 29.2729C15.4219 29.1546 15.3961 29.003 15.3187 28.9364L14.4304 28.1413C14.353 28.0747 14.2572 28.1154 14.2129 28.2338C14.1687 28.3521 14.1945 28.5037 14.2719 28.5703L15.1602 29.3654Z" fill="white"/>
</g>
<g opacity="0.3">
<path d="M17.3272 31.0021C17.3714 30.8837 17.3456 30.7321 17.2682 30.6655L16.3799 29.8705C16.3025 29.8002 16.2067 29.8409 16.1625 29.9592C16.1182 30.0775 16.144 30.2292 16.2214 30.2957L17.1097 31.0908C17.1871 31.1574 17.283 31.1167 17.3272 30.9984V31.0021Z" fill="white"/>
</g>
<g opacity="0.3">
<path d="M14.2129 31.0082C14.2572 31.1266 14.3567 31.1673 14.4304 31.097L15.3187 30.3019C15.3961 30.2316 15.4219 30.0837 15.3776 29.9654C15.3334 29.847 15.2339 29.8101 15.1602 29.8766L14.2719 30.6717C14.1945 30.7383 14.1687 30.8899 14.2129 31.0082Z" fill="white"/>
</g>
<g opacity="0.3">
<path d="M16.1663 29.2766C16.2106 29.395 16.3101 29.4319 16.3838 29.3654L17.2721 28.5703C17.3495 28.5037 17.3753 28.3521 17.3311 28.2338C17.2868 28.1154 17.1873 28.0747 17.1136 28.1413L16.2253 28.9364C16.1479 29.003 16.1221 29.1546 16.1663 29.2729V29.2766Z" fill="white"/>
</g>
<path d="M15.772 29.2109C15.6246 29.2109 15.5029 29.3958 15.5029 29.6251C15.5029 29.8544 15.6246 30.0393 15.772 30.0393C15.9194 30.0393 16.0411 29.8544 16.0411 29.6251C16.0411 29.3958 15.9194 29.2109 15.772 29.2109Z" fill="#263238"/>
<path d="M36.147 34.6493C36.147 34.6493 38.0047 34.6493 38.7824 34.6308C39.7112 34.6123 40.6511 34.261 41.3551 33.1774C42.6304 31.2137 42.6304 28.0334 41.3551 26.0734C40.7174 25.0934 39.4937 24.6016 38.6571 24.6016H36.1728C34.8975 26.5652 34.8754 32.6893 36.147 34.6493Z" fill="black"/>
<path d="M36.1727 34.6452C37.9751 34.6452 39.4346 32.3967 39.4346 29.6194C39.4346 26.8422 37.9751 24.5938 36.1727 24.5938C34.3703 24.5938 32.9108 26.8422 32.9108 29.6194C32.9108 32.3967 34.3703 34.6452 36.1727 34.6452Z" fill="#263238"/>
<path opacity="0.3" d="M36.1727 34.6452C37.9751 34.6452 39.4346 32.3967 39.4346 29.6194C39.4346 26.8422 37.9751 24.5938 36.1727 24.5938C34.3703 24.5938 32.9108 26.8422 32.9108 29.6194C32.9108 32.3967 34.3703 34.6452 36.1727 34.6452Z" fill="black"/>
<path opacity="0.4" d="M36.173 32.7001C37.2787 32.7001 38.1707 31.3207 38.1707 29.6196C38.1707 27.9184 37.275 26.5391 36.173 26.5391C35.0709 26.5391 34.1753 27.9184 34.1753 29.6196C34.1753 31.3207 35.0709 32.7001 36.173 32.7001Z" fill="white"/>
<g opacity="0.3">
<path d="M36.0108 27.0993V28.6784C36.0108 28.8152 36.0808 28.9262 36.1693 28.9262C36.2578 28.9262 36.3278 28.8152 36.3278 28.6784V27.0993C36.3278 26.9625 36.2578 26.8516 36.1693 26.8516C36.0808 26.8516 36.0108 26.9625 36.0108 27.0993Z" fill="white"/>
</g>
<g opacity="0.3">
<path d="M36.0108 30.5681V32.1472C36.0108 32.284 36.0808 32.3949 36.1693 32.3949C36.2578 32.3949 36.3278 32.284 36.3278 32.1472V30.5681C36.3278 30.4313 36.2578 30.3203 36.1693 30.3203C36.0808 30.3203 36.0108 30.4313 36.0108 30.5681Z" fill="white"/>
</g>
<g opacity="0.3">
<path d="M35.5647 29.3654C35.6421 29.4319 35.7379 29.3913 35.7822 29.2729C35.8264 29.1546 35.8006 29.003 35.7232 28.9364L34.8349 28.1413C34.7575 28.0747 34.6617 28.1154 34.6175 28.2338C34.5732 28.3521 34.599 28.5037 34.6764 28.5703L35.5647 29.3654Z" fill="white"/>
</g>
<g opacity="0.3">
<path d="M37.7283 31.0021C37.7725 30.8837 37.7467 30.7321 37.6693 30.6655L36.7811 29.8705C36.7037 29.8002 36.6078 29.8409 36.5636 29.9592C36.5194 30.0775 36.5452 30.2292 36.6226 30.2957L37.5108 31.0908C37.5882 31.1574 37.6841 31.1167 37.732 30.9984L37.7283 31.0021Z" fill="white"/>
</g>
<g opacity="0.3">
<path d="M34.6136 31.0082C34.6578 31.1266 34.7573 31.1673 34.831 31.097L35.7193 30.3019C35.7967 30.2316 35.8225 30.0837 35.7783 29.9654C35.7341 29.847 35.6382 29.8101 35.5608 29.8766L34.6726 30.6717C34.5952 30.7383 34.5694 30.8899 34.6136 31.0082Z" fill="white"/>
</g>
<g opacity="0.3">
<path d="M36.5672 29.2766C36.6115 29.395 36.711 29.4319 36.7847 29.3654L37.673 28.5703C37.7504 28.5037 37.7762 28.3521 37.732 28.2338C37.6877 28.1154 37.5882 28.0747 37.5145 28.1413L36.6262 28.9364C36.5488 29.003 36.523 29.1546 36.5672 29.2729V29.2766Z" fill="white"/>
</g>
<path d="M36.1726 29.2109C36.0252 29.2109 35.9036 29.3958 35.9036 29.6251C35.9036 29.8544 36.0252 30.0393 36.1726 30.0393C36.3201 30.0393 36.4417 29.8544 36.4417 29.6251C36.4417 29.3958 36.3201 29.2109 36.1726 29.2109Z" fill="#263238"/>
<path d="M-10.4935 23.0962C-10.2133 21.5985 -9.74893 19.1651 -9.51304 18.8878C-9.28083 18.6067 -8.0682 18.5143 -8.0682 18.5143C-6.80765 17.1127 -2.80117 14.7237 -0.748167 13.6957C1.30483 12.6676 2.88973 12.4309 10.6742 11.965C18.4623 11.499 23.0769 12.6195 23.0769 12.6195C27.0392 13.0411 33.6147 18.6992 33.6147 18.6992C37.3374 19.3981 39.8621 21.3174 39.8621 21.3174C39.8621 21.3174 41.8672 21.5985 42.7518 22.5822C43.6364 23.5659 43.7323 24.6864 43.7323 24.6864C43.7323 24.6864 44.2446 24.6864 44.5247 25.108C44.8048 25.5296 44.6648 28.4289 44.5247 29.8785C44.3846 31.3282 43.2642 31.9827 43.2642 31.9827L20.6259 31.8422H20.6185C20.1393 31.8422 19.756 31.4465 19.7597 30.9657C19.7781 28.9318 19.4169 24.054 15.5837 24.054C15.5837 24.054 12.9336 24.0836 12.5097 27.7188C12.1448 30.8363 12.2922 31.6351 12.3438 31.7978L-3.3651 31.979L-3.45724 31.9568C-3.40195 30.9694 -2.99651 26.2988 -5.36281 24.5939C-6.07048 24.0836 -7.29418 24.0244 -8.03134 24.4904C-8.77587 24.9637 -9.64204 25.9326 -9.84107 27.9148C-9.9369 28.6729 -9.9369 29.3571 -9.90742 30.2927L-10.5008 29.9636C-10.593 29.4014 -10.781 24.5828 -10.5008 23.0851L-10.4935 23.0962Z" fill="#E26713"/>
<path d="M41.558 24.1994C41.6723 24.3547 42.8001 25.9412 42.8001 25.9412C43.0913 26.0965 41.8676 26.9951 41.8676 26.8472H32.2366L29.6307 25.956C29.7192 25.7378 30.7291 24.314 31.5768 24.1994C32.4246 24.0847 41.558 24.1994 41.558 24.1994Z" fill="#263238"/>
<path d="M13.085 18.9689C13.085 18.9689 11.8282 19.3794 11.5223 20.7884C11.2864 21.8867 11.5812 31.095 11.5038 31.1431L-2.83031 30.5588L-3.08095 28.3769C-3.93237 24.3645 -5.82688 23.8911 -6.01117 23.4177C-6.19546 22.9444 -6.42767 19.1797 -6.37975 18.7175C-6.33552 18.2552 -4.54053 17.0644 -4.38204 16.8906" stroke="#263238" stroke-width="0.0246774" stroke-linecap="round" stroke-linejoin="round"/>
<path d="M32.2363 18.5672H15.0899C15.0899 18.5672 10.7259 14.4586 9.46536 13.1532C11.0466 12.9165 20.3496 12.7427 23.2024 13.1532C23.2024 13.1532 28.1008 14.037 32.2326 18.5672H32.2363Z" fill="#263238"/>
<path d="M13.1367 18.5677C13.1367 18.5677 8.58838 13.9377 7.65587 13.5346C6.71967 13.1315 3.57936 13.3682 2.30775 13.5346C1.03614 13.701 -3.5785 15.7165 -4.382 16.8888C-4.382 16.8888 -3.64484 17.9612 -2.34006 18.2941C-1.03528 18.6306 -1.37069 18.3939 1.37155 18.564C4.1138 18.7304 13.1404 19.0004 13.1404 19.0004V18.564L13.1367 18.5677Z" fill="#263238"/>
<path d="M39.8623 21.2734C39.8623 21.2734 41.7495 22.7268 41.5578 24.1986" stroke="#263238" stroke-width="0.0246774" stroke-linecap="round" stroke-linejoin="round"/>
<path opacity="0.7" d="M43.7324 24.6466C43.6219 24.8019 43.5371 25.6562 42.7336 25.6636L41.8674 24.5874C41.8674 24.5874 42.2581 22.9233 42.0148 21.9766C42.0148 21.9766 42.7962 22.4684 43.08 22.9566C43.3675 23.4447 43.7324 24.6466 43.7324 24.6466Z" fill="white"/>
<path opacity="0.3" d="M21.6473 21.7107C21.6473 21.7107 20.2983 20.3535 15.2929 19.3217L13.1367 19C12.7571 19.0259 12.3701 19.3106 11.9757 19.7544C10.3613 20.0687 -0.0916595 19.2108 -0.0916595 19.2108C-0.0916595 19.2108 10.6156 20.0503 13.8334 20.261C17.0511 20.4718 16.97 20.4866 21.6473 21.7107Z" fill="black"/>
<path d="M22.2034 22.39C22.2034 22.39 22.4098 21.9573 21.4847 21.6467C20.5595 21.3361 15.8601 20.3339 15.5874 19.8679C15.3183 19.402 15.0935 18.5625 15.0935 18.5625" stroke="#263238" stroke-width="0.0246774" stroke-linecap="round" stroke-linejoin="round"/>
<path d="M37.4518 24.8229C38.1374 24.8229 38.6939 24.5862 38.6939 24.2903C38.6939 23.9945 38.1374 23.7578 37.4518 23.7578C36.7663 23.7578 36.2097 23.9945 36.2097 24.2903C36.2097 24.5862 36.7663 24.8229 37.4518 24.8229Z" fill="#E0E0E0"/>
<path d="M42.2545 29.5736C42.2545 29.5736 43.2681 30.0506 43.2275 30.0506C43.187 30.0506 42.9916 31.0861 42.9916 31.0861L27.4227 30.8716L25.9558 29.6254L30.6294 29.5625L42.2545 29.5773V29.5736Z" fill="#263238"/>
<path d="M22.0339 29.625C22.0818 29.7064 23.5009 29.625 23.5009 29.625L24.9383 30.8417L22.8264 30.7936L22.0339 29.625Z" fill="#263238"/>
<path d="M31.5618 24.2869L29.8626 24.1094" stroke="#263238" stroke-width="0.0246774" stroke-linecap="round" stroke-linejoin="round"/>
<path opacity="0.7" d="M29.8627 24.0165C29.8627 24.0165 21.4996 22.1305 20.8509 22.197C20.2059 22.2636 18.4183 22.7887 18.5473 23.2732C18.6763 23.7613 20.0437 24.5046 21.8571 24.7968C23.302 25.0298 25.6498 25.3182 27.2053 25.4144C29.1035 25.5327 29.8627 24.0165 29.8627 24.0165Z" fill="white"/>
<path opacity="0.3" d="M29.4904 27.5438C29.4904 27.5438 26.3059 25.9833 25.0748 25.9833C23.8437 25.9833 18.3556 24.3672 18.3556 24.3672C18.3556 24.3672 22.4616 26.9743 23.3683 27.1925C24.275 27.4107 29.4867 27.5438 29.4867 27.5438H29.4904Z" fill="black"/>
<path opacity="0.3" d="M31.2671 18.1961C31.2671 18.1961 26.6377 13.9803 22.7713 13.5846C18.9048 13.1926 16.4943 13.3036 16.4943 13.3036C16.4943 13.3036 17.6406 16.2583 19.7636 16.8426C21.883 17.4269 31.2671 18.1961 31.2671 18.1961Z" fill="white"/>
<path opacity="0.3" d="M44.3664 25.4256C44.3664 25.4256 44.477 26.2576 44.2743 26.6422C44.0716 27.0268 42.2065 27.5372 42.2065 27.5372L44.3664 25.4219V25.4256Z" fill="black"/>
<path opacity="0.7" d="M21.7171 23.7674C21.7171 24.2852 22.2773 24.7068 22.974 24.7068C23.6706 24.7068 24.2308 24.2852 24.2308 23.7674C24.2308 23.2497 23.6706 22.8281 22.974 22.8281C22.2773 22.8281 21.7171 23.2497 21.7171 23.7674Z" fill="white"/>
<path opacity="0.7" d="M22.6568 22.7555L20.8545 22.578C20.8545 22.578 20.3163 23.7059 21.3852 24.3642C21.3852 24.3642 20.0694 23.9759 20.4711 22.578C20.4969 22.456 20.5522 22.3265 20.8545 22.3931C20.9503 22.4153 22.6568 22.7592 22.6568 22.7592V22.7555Z" fill="white"/>
<path opacity="0.3" d="M32.5496 18.7964C32.5496 18.7964 39.4826 19.9354 40.7174 23.3673C40.7174 23.3673 22.8965 18.9185 22.9702 18.7964C23.0476 18.6744 32.5459 18.7964 32.5459 18.7964H32.5496Z" fill="white"/>
<path d="M13.1365 18.5677C13.1365 18.5677 8.58819 13.9377 7.652 13.5346C6.7158 13.1315 3.57548 13.3682 2.30388 13.5346C1.03227 13.701 -3.58237 15.7165 -4.38588 16.8888C-4.38588 16.8888 -3.64872 17.9612 -2.34394 18.2941C-1.03916 18.6306 -1.37457 18.3939 1.36768 18.564C4.10993 18.7304 13.1365 19.0004 13.1365 19.0004V18.564V18.5677Z" stroke="black" stroke-width="0.0246774" stroke-miterlimit="10"/>
<path d="M11.6106 17.0391L10.8403 18.8881L13.1365 18.999V18.5257L11.6106 17.0428V17.0391Z" fill="black"/>
<path d="M18.7391 30.9564C18.7907 30.9416 18.846 30.9416 18.8939 30.9564H18.7391Z" fill="#DD9C83"/>
<path d="M20.6635 36.0703L20.5967 36.1816L20.6635 36.0703Z" fill="#21263A"/>
<path d="M18.481 32.7924L18.6071 32.7812L18.481 32.7924Z" fill="#21263A"/>
<path d="M15.9896 35.6845L15.9488 35.5625L15.9896 35.6845Z" fill="#21263A"/>
<path d="M18.0497 33.7734L18.1647 33.8328L18.0497 33.7734Z" fill="#21263A"/>
</g>
<path d="M29.8071 38.5008C39.4294 38.5008 47.2299 30.6743 47.2299 21.0199C47.2299 11.3655 39.4294 3.53906 29.8071 3.53906C20.1847 3.53906 12.3842 11.3655 12.3842 21.0199C12.3842 30.6743 20.1847 38.5008 29.8071 38.5008Z" stroke="#BAD3E0" stroke-width="1.91935" stroke-miterlimit="10"/>
<path d="M17.4916 38.4354L12.01 32.1817C11.5288 31.6326 10.695 31.5789 10.1478 32.0618C9.60052 32.5447 9.54705 33.3812 10.0283 33.9303L15.5099 40.184C15.9912 40.733 16.8249 40.7867 17.3721 40.3038C17.9194 39.821 17.9729 38.9844 17.4916 38.4354Z" fill="#2158EF"/>
<path d="M41.2071 40.4975C44.8102 40.4975 47.731 37.5669 47.731 33.9519C47.731 30.3368 44.8102 27.4062 41.2071 27.4062C37.6041 27.4062 34.6832 30.3368 34.6832 33.9519C34.6832 37.5669 37.6041 40.4975 41.2071 40.4975Z" fill="#26E205"/>
<path d="M38.0706 33.4462L40.3853 35.7649L44.3401 31.7969" stroke="white" stroke-width="1.27774" stroke-miterlimit="10" stroke-linecap="round"/>
</svg>
