<svg width="50" height="50" viewBox="0 0 50 50" fill="none" xmlns="http://www.w3.org/2000/svg">
<g clip-path="url(#clip0_5408_49219)">
<path d="M45.893 30.3364C45.5401 29.9088 44.3541 28.937 43.3837 27.7708C42.8936 27.1877 41.7761 25.2344 41.7761 25.2344L40.6881 25.7592C40.6881 25.7592 41.6781 27.9555 41.8643 28.3248C42.6681 29.8797 44.9324 31.2402 44.9324 31.2402L45.893 30.3461V30.3364Z" fill="#BFB8B8"/>
<path d="M41.7859 25.4351C41.5507 25.1241 41.6095 25.0172 41.5899 24.784C41.5703 24.5508 41.5801 24.4536 41.4821 24.2592C41.3938 24.0649 41.0018 23.3652 40.9234 23.4623C40.8449 23.5595 40.8351 23.6761 40.8841 23.8219C40.9332 23.9774 41.0508 24.162 41.0508 24.162C41.0508 24.162 40.7371 23.5887 40.6489 23.6081C40.5607 23.6275 40.1294 24.4633 40.1294 24.6577C40.1294 24.852 40.5215 25.0658 40.6391 25.2505C40.7469 25.4351 40.7861 25.7655 40.8351 25.8724C40.8841 25.9793 41.7957 25.4351 41.7957 25.4351H41.7859Z" fill="#C14E00"/>
<path d="M40.1294 24.6556C40.1294 24.5098 40.0216 24.2474 40.1098 24.2183C40.198 24.1891 40.4333 24.2474 40.5999 24.3835C40.7665 24.5293 40.8743 24.6264 40.7763 24.7236C40.6783 24.8208 40.4038 24.5876 40.3548 24.5778C40.3058 24.5778 40.1294 24.6459 40.1294 24.6459V24.6556Z" fill="#E26713"/>
<path d="M40.0804 24.3012C39.9824 24.1554 40.0412 23.9611 40.0804 23.9222C40.1294 23.8931 40.3744 23.8542 40.5117 23.9611C40.6489 24.068 40.7959 24.2235 40.8057 24.3012C40.8155 24.379 40.7763 24.447 40.6783 24.4081C40.5803 24.3692 40.2764 24.2915 40.2764 24.2915H40.0706L40.0804 24.3012Z" fill="#E26713"/>
<path d="M40.149 23.9585C40.1196 24.1043 40.0804 23.7836 40.1882 23.7156C40.2862 23.6476 40.4823 23.6378 40.5411 23.6573C40.5999 23.6767 40.8057 23.8808 40.8547 23.9391C40.9135 24.0169 40.8547 24.1432 40.7861 24.1043C40.7077 24.0654 40.4136 23.9391 40.4136 23.9391C40.4136 23.9391 40.1588 23.9294 40.149 23.9391V23.9585Z" fill="#E26713"/>
<path d="M40.3254 23.7266C40.2764 23.5809 40.2176 23.474 40.2666 23.3962C40.3156 23.3185 40.5117 23.2504 40.5999 23.3379C40.6881 23.4254 40.8351 23.6975 40.8449 23.7752C40.8449 23.853 40.7665 23.8627 40.6783 23.8433C40.5999 23.8141 40.3254 23.7266 40.3254 23.7266Z" fill="#E26713"/>
<path d="M44.1188 30.0574C44.06 29.3868 43.9718 28.5705 43.9718 28.5705L45.1578 28.2109C45.1578 28.2109 45.7361 29.8922 45.7753 30.106C45.8145 30.3198 44.1188 30.0671 44.1188 30.0671V30.0574Z" fill="#E8C8BA"/>
<path d="M40.6979 40.2817H5.20486L8.94923 37.9688H37.3848L40.6979 40.2817Z" fill="#414E5B"/>
<path d="M40.6979 40.2812H5.20486V41.3308H40.6979V40.2812Z" fill="#758B9B"/>
<path d="M10.89 26.455L32.7191 39.3993L35.9145 39.3424L13.7914 26L10.89 26.455Z" fill="#758B9B"/>
<path d="M35.9145 26.455L14.0757 39.3993L10.89 39.3424L33.0033 26L35.9145 26.455Z" fill="#758B9B"/>
<path d="M1.17624 28.6819L2.33288 28.2932L3.77377 24.056L2.97981 23.5312L1.17624 28.6819Z" fill="#A5562D"/>
<path d="M49.1864 25.1328H1.77416V26.8724H49.1864V25.1328Z" fill="#EE793D"/>
<path d="M0.0157526 28.0572L1.68388 23.3027C1.72252 23.1925 1.83483 23.1386 1.94592 23.177L2.98281 23.5346C3.0939 23.5729 3.14824 23.6842 3.1096 23.7944L1.44147 28.5489C1.40283 28.6591 1.29052 28.713 1.17943 28.6746L0.142542 28.317C0.031447 28.2787 -0.0228913 28.1674 0.0157526 28.0572Z" fill="#EE793D"/>
<path d="M43.5013 39.3148C43.5405 39.859 43.8737 40.8697 43.5013 40.8308C43.1288 40.8016 42.9818 40.8114 42.4623 40.8697C41.9428 40.9183 40.4332 41.0738 40.4627 40.685C40.5019 40.2963 40.7371 40.1602 41.0116 40.1505C41.6683 40.1214 42.2858 39.1204 42.5211 39.2176C42.8347 39.3439 43.5013 39.3245 43.5013 39.3245V39.3148Z" fill="black"/>
<path d="M45.3343 35.7203C44.7657 35.7203 42.3446 34.0876 41.286 34.6999C40.7175 35.0303 40.8841 35.8952 41.2664 37.5862C41.4919 38.5677 41.9134 40.1518 42.1682 40.2198C42.5897 40.3267 43.6091 40.1129 43.7953 40.006C43.9718 39.8991 43.3542 37.178 43.1974 37.0808C43.0406 36.9739 44.5893 38.4219 45.3343 38.1012V35.73V35.7203Z" fill="#3357BC"/>
<path d="M45.5597 29.2891C46.1184 29.4057 46.7457 31.6117 47.6083 36.1501C47.6083 36.1501 45.9028 36.9373 45.4617 36.9373C45.0794 36.2861 42.9524 33.6136 43.6875 30.5816C43.8835 29.7944 45.5597 29.2891 45.5597 29.2891Z" fill="#D8D8D8"/>
<path d="M48.118 38.9154C48.4807 38.5849 48.6767 38.3323 49.0786 38.3711C49.4805 38.41 49.5785 38.653 49.5785 38.9834C49.5785 39.3138 49.7059 39.858 49.6863 40.2467C49.6765 40.5286 49.4119 41.1408 48.4905 41.0145C47.8926 40.927 48.5689 40.4411 48.6473 40.1107C48.7257 39.7803 48.1082 38.9056 48.1082 38.9056L48.118 38.9154Z" fill="#232121"/>
<path d="M46.0694 31.6462C46.0694 31.5879 46.7065 31.3546 46.7751 31.5587C48.0592 35.5432 48.2847 37.5451 47.6083 38.5364C46.9614 39.479 45.1774 39.4499 44.9226 39.5859C44.8638 39.6151 48.5003 38.5169 48.7159 38.8959C48.9806 39.3624 49.3237 40.2273 48.8826 40.4897C47.7848 41.1408 45.0206 40.7424 44.4913 40.7327C43.6091 40.7327 42.972 40.6161 42.972 40.169C42.972 38.3517 46.1478 36.5053 46.1478 36.5053L43.9816 33.1817C43.9816 33.1817 46.0694 34.1826 46.0694 31.6267V31.6462Z" fill="#4D87DB"/>
<path d="M46.6673 32.175C46.5595 31.6502 45.844 30.2119 45.3048 29.9981C44.4913 29.6774 43.8149 30.1439 43.7071 31.2032C43.5993 32.2528 43.9032 33.312 43.9032 33.312L44.305 33.2246C44.305 33.2246 43.8541 31.5433 44.1384 30.8728C44.3638 30.348 45.3735 29.1041 46.0302 32.0973C46.187 32.8164 46.6673 32.1847 46.6673 32.1847V32.175Z" fill="#4D87DB"/>
<path d="M48.6571 40.757C46.834 41.0486 44.4325 41.0874 43.0602 41.0777C42.178 41.0777 41.6095 40.2128 41.982 39.5325C42.8249 38.0068 44.6971 37.2099 44.6971 37.2099L43.5209 32.516C43.5209 32.516 45.246 32.7881 45.991 31.7969C46.187 32.1856 46.8045 35.1205 46.932 35.6161C46.9908 35.8591 47.2946 36.9086 46.187 37.9776C45.3735 38.7648 43.0896 39.6589 43.9424 39.8047C45.2558 40.0282 48.1768 39.9504 49.01 39.5034C49.2845 40.2322 48.8434 40.7182 48.6571 40.7473V40.757Z" fill="#3357BC"/>
<path d="M45.6185 30.8393L44.8147 37.0492C44.8147 37.0492 43.217 32.9092 43.5601 31.1794C43.6777 30.5963 45.6185 30.8393 45.6185 30.8393Z" fill="url(#paint0_linear_5408_49219)" style="mix-blend-mode:multiply"/>
<path d="M47.9908 15.9338C46.2853 15.273 38.2084 13.4266 38.2084 13.4266L30.0041 9.07281C22.7997 6.91538 14.9385 8.57718 13.6544 9.18943C13.0369 9.48097 9.00826 12.5228 7.58697 13.6501C7.58697 13.6501 6.09706 13.8056 5.7834 16.0505C5.63637 17.0903 5.49914 17.8094 5.11686 19.5296C4.54835 22.1146 6.82241 22.066 6.82241 22.066C6.82241 22.066 7.2439 22.066 8.01825 22.0757C7.97905 21.8425 7.95944 21.5995 7.95944 21.3566C7.95944 18.8299 10.0277 16.7793 12.5762 16.7793C15.1247 16.7793 17.1929 18.8299 17.1929 21.3566C17.1929 21.6287 17.1635 21.9008 17.1243 22.1632C23.4858 22.1438 28.2888 22.1632 35.0424 22.2118C34.9738 21.8911 34.9738 21.6967 34.9738 21.3566C34.9738 18.8299 37.042 16.7793 39.5905 16.7793C42.139 16.7793 44.2072 18.8299 44.2072 21.3566C44.2072 21.7064 44.168 22.0563 44.0896 22.3867C46.6381 22.3867 47.7262 22.3867 47.9516 22.3381C49.1866 22.1535 49.7748 21.0942 49.961 20.1515C50.2453 17.6151 47.9712 15.9241 47.9712 15.9241L47.9908 15.9338ZM11.8508 14.136C11.8508 14.136 14.0759 11.0553 14.7816 10.618C16.3205 9.64618 21.6038 9.72393 21.6038 9.72393L22.5154 14.1554H11.8508V14.136ZM23.9073 14.1457C23.9073 14.1457 23.1427 11.1525 22.8193 9.66562C22.7997 9.57816 26.2304 9.66562 28.8377 10.3167C30.2688 10.6763 31.0137 11.3177 31.8077 11.7939C35.1306 13.8153 35.1698 14.1068 35.1698 14.1068L23.9073 14.136V14.1457Z" fill="#1A46BF"/>
<path d="M8.65529 21.3936C8.65529 19.2944 10.3706 17.5938 12.4879 17.5938C14.6051 17.5938 16.3303 19.2944 16.3303 21.3936C16.3303 23.4927 14.6149 25.1934 12.4879 25.1934C10.3608 25.1934 8.65529 23.4927 8.65529 21.3936Z" fill="#232121"/>
<path d="M9.81192 21.3972C9.81192 19.9297 11.0176 18.7344 12.4977 18.7344C13.9876 18.7344 15.1834 19.9297 15.1834 21.3972C15.1834 22.8743 13.9778 24.0599 12.4977 24.0599C11.0176 24.0599 9.81192 22.8646 9.81192 21.3972ZM10.2138 21.3972C10.2138 22.6508 11.2332 23.6615 12.4977 23.6615C13.7621 23.6615 14.7815 22.6508 14.7815 21.3972C14.7815 20.1435 13.7621 19.1328 12.4977 19.1328C11.2332 19.1328 10.2138 20.1532 10.2138 21.3972Z" fill="#BFB8B8"/>
<path d="M14.8894 21.9195C13.9092 21.8611 13.1838 21.6473 13.1838 21.3947C13.1838 21.142 13.9092 20.9282 14.8894 20.8699C14.8305 20.5978 14.7129 20.3257 14.5659 20.0924C13.8307 20.7338 13.174 21.0934 12.9878 20.9088C12.8015 20.7241 13.1642 20.0633 13.8111 19.3441C13.6543 19.247 13.4877 19.1692 13.3014 19.1012C13.2132 19.072 13.1152 19.0429 13.027 19.0234C12.9682 19.9953 12.7525 20.7144 12.4879 20.7144C12.2232 20.7144 12.0174 19.9953 11.9586 19.0234C11.6841 19.0817 11.4096 19.1984 11.1744 19.3441C11.8213 20.073 12.184 20.7241 11.9978 20.9088C11.8115 21.0934 11.145 20.7338 10.4196 20.0924C10.3216 20.2479 10.2334 20.4131 10.1746 20.5978C10.1452 20.6852 10.1158 20.7824 10.0962 20.8796C11.0764 20.9379 11.8017 21.1517 11.8017 21.4044C11.8017 21.6571 11.0764 21.8806 10.0962 21.9292C10.155 22.2013 10.2726 22.4637 10.4196 22.7066C11.1548 22.0652 11.8115 21.7057 11.9978 21.8903C12.184 22.0749 11.8213 22.7358 11.1744 23.4549C11.3312 23.5521 11.4979 23.6396 11.6841 23.6979C11.7723 23.727 11.8703 23.7562 11.9684 23.7756C12.0272 22.8038 12.2428 22.0847 12.4977 22.0847C12.7525 22.0847 12.978 22.8038 13.0368 23.7756C13.3112 23.7076 13.5759 23.6007 13.8209 23.4549C13.174 22.7358 12.8113 22.0749 12.9976 21.8903C13.1838 21.7057 13.8503 22.0652 14.5757 22.7066C14.6737 22.5511 14.7619 22.3859 14.8207 22.2013C14.8502 22.1041 14.8796 22.0166 14.8992 21.9195H14.8894Z" fill="#BFB8B8"/>
<path d="M35.8165 21.3936C35.8165 19.2944 37.5319 17.5938 39.6491 17.5938C41.7663 17.5938 43.4915 19.2944 43.4915 21.3936C43.4915 23.4927 41.7761 25.1934 39.6491 25.1934C37.5221 25.1934 35.8165 23.4927 35.8165 21.3936Z" fill="#232121"/>
<path d="M36.9633 21.3972C36.9633 19.9297 38.169 18.7344 39.6491 18.7344C41.1292 18.7344 42.3348 19.9297 42.3348 21.3972C42.3348 22.8743 41.1292 24.0599 39.6491 24.0599C38.169 24.0599 36.9633 22.8646 36.9633 21.3972ZM37.3652 21.3972C37.3652 22.6508 38.3846 23.6615 39.6491 23.6615C40.9135 23.6615 41.933 22.6508 41.933 21.3972C41.933 20.1435 40.9135 19.1328 39.6491 19.1328C38.3846 19.1328 37.3652 20.1532 37.3652 21.3972Z" fill="#BFB8B8"/>
<path d="M42.0506 21.9195C41.0704 21.8611 40.3548 21.6473 40.3548 21.3947C40.3548 21.142 41.0802 20.9282 42.0604 20.8699C42.0016 20.5978 41.8839 20.3257 41.7369 20.0924C41.0018 20.7338 40.3352 21.0934 40.1588 20.9088C39.9726 20.7241 40.3352 20.0633 40.9822 19.3441C40.8253 19.247 40.6587 19.1692 40.4725 19.1012C40.3744 19.072 40.2862 19.0429 40.1882 19.0234C40.1294 19.9953 39.9137 20.7144 39.6589 20.7144C39.404 20.7144 39.1884 19.9953 39.1296 19.0234C38.8551 19.0817 38.5807 19.1984 38.3454 19.3441C38.9924 20.073 39.355 20.7241 39.1688 20.9088C38.9826 21.0934 38.316 20.7338 37.5907 20.0924C37.4926 20.2479 37.4044 20.4131 37.3456 20.5978C37.3162 20.6852 37.2868 20.7824 37.2672 20.8796C38.2474 20.9379 38.9728 21.1517 38.9728 21.4044C38.9728 21.6571 38.2474 21.8806 37.2672 21.9292C37.326 22.2013 37.4436 22.4637 37.5907 22.7066C38.3258 22.0652 38.9826 21.7057 39.1688 21.8903C39.355 22.0749 38.9924 22.7358 38.3454 23.4549C38.5023 23.5521 38.6689 23.6396 38.8551 23.6979C38.9433 23.727 39.0414 23.7562 39.1296 23.7756C39.1884 22.8038 39.404 22.0847 39.6589 22.0847C39.9137 22.0847 40.1392 22.8038 40.1882 23.7756C40.4725 23.7076 40.7371 23.6007 40.9724 23.4549C40.3254 22.7358 39.9628 22.0749 40.149 21.8903C40.3352 21.7057 41.0018 22.0652 41.7271 22.7066C41.8251 22.5511 41.9134 22.3859 41.9722 22.2013C42.0016 22.1041 42.031 22.0166 42.0506 21.9195Z" fill="#BFB8B8"/>
<path d="M6.66536 14.4688C7.12605 14.5076 6.96922 14.4785 7.51813 14.5076L8.48853 14.5465C9.03744 14.5756 9.08645 14.7992 8.60616 15.0616L6.17526 16.3346C5.69496 16.597 5.68516 16.5387 5.76358 16.082L5.94981 15.2268C6.02823 14.7992 6.23407 14.4493 6.67516 14.4785L6.66536 14.4688Z" fill="#E26713"/>
<path d="M8.60616 19.0312H5.22447C5.19506 19.1867 5.15585 19.3519 5.11664 19.5269C4.8814 20.5862 5.12645 21.2081 5.49892 21.5677H7.96903C7.96903 21.4997 7.96903 21.4316 7.96903 21.3636C7.96903 20.5084 8.20427 19.7115 8.61596 19.0312H8.60616Z" fill="#D8D8D8"/>
<path d="M35.6303 19.0312H16.5654C16.9771 19.7115 17.2025 20.5084 17.2025 21.3636C17.2025 21.4316 17.2025 21.4997 17.2025 21.5677H34.9931C34.9931 21.4997 34.9931 21.4316 34.9931 21.3636C34.9931 20.5084 35.2284 19.7115 35.6401 19.0312H35.6303Z" fill="#D8D8D8"/>
<path d="M49.9412 19.0332H43.5797C43.9914 19.7134 44.2266 20.5103 44.2266 21.3655C44.2266 21.4335 44.2266 21.5016 44.2266 21.5696H49.3433C49.6863 21.1614 49.8922 20.6464 49.9804 20.1605C50.0294 19.762 50.0098 19.383 49.9412 19.0234V19.0332Z" fill="#D8D8D8"/>
<path d="M26.9653 15.489C26.9653 15.6347 26.8477 15.7513 26.7006 15.7513H24.5932C24.4462 15.7513 24.3286 15.6347 24.3286 15.489C24.3286 15.3432 24.4462 15.2266 24.5932 15.2266H26.7006C26.8477 15.2266 26.9653 15.3432 26.9653 15.489Z" fill="#D8D8D8"/>
<path d="M36.2576 14.2302C36.2576 14.9202 35.6303 15.4839 34.8559 15.4839C34.4736 15.4839 34.4344 14.9202 34.4344 14.2302C34.4344 13.5402 34.4736 12.9766 34.8559 12.9766C35.6303 12.9766 36.2576 13.5402 36.2576 14.2302Z" fill="#4B61A1"/>
<path d="M36.2576 14.2302C36.2576 14.9202 35.6303 15.4839 34.8559 15.4839C34.4736 15.4839 34.4344 14.9202 34.4344 14.2302C34.4344 13.5402 34.4736 12.9766 34.8559 12.9766C35.6303 12.9766 36.2576 13.5402 36.2576 14.2302Z" fill="black" fill-opacity="0.2"/>
<path d="M36.2576 14.2302C36.2576 14.9202 35.6303 15.4839 34.8559 15.4839C34.4736 15.4839 34.4344 14.9202 34.4344 14.2302C34.4344 13.5402 34.4736 12.9766 34.8559 12.9766C35.6303 12.9766 36.2576 13.5402 36.2576 14.2302Z" fill="black" fill-opacity="0.2"/>
<path d="M36.2576 14.2302C36.2576 14.9202 35.6303 15.4839 34.8559 15.4839C34.4736 15.4839 34.4344 14.9202 34.4344 14.2302C34.4344 13.5402 34.4736 12.9766 34.8559 12.9766C35.6303 12.9766 36.2576 13.5402 36.2576 14.2302Z" fill="black" fill-opacity="0.2"/>
<path d="M36.2576 14.2302C36.2576 14.9202 35.6303 15.4839 34.8559 15.4839C34.4736 15.4839 34.4344 14.9202 34.4344 14.2302C34.4344 13.5402 34.4736 12.9766 34.8559 12.9766C35.6303 12.9766 36.2576 13.5402 36.2576 14.2302Z" fill="black" fill-opacity="0.2"/>
<path d="M36.2576 14.2302C36.2576 14.9202 35.6303 15.4839 34.8559 15.4839C34.4736 15.4839 34.4344 14.9202 34.4344 14.2302C34.4344 13.5402 34.4736 12.9766 34.8559 12.9766C35.6303 12.9766 36.2576 13.5402 36.2576 14.2302Z" fill="black" fill-opacity="0.2"/>
<path d="M36.2576 14.2302C36.2576 14.9202 35.6303 15.4839 34.8559 15.4839C34.4736 15.4839 34.4344 14.9202 34.4344 14.2302C34.4344 13.5402 34.4736 12.9766 34.8559 12.9766C35.6303 12.9766 36.2576 13.5402 36.2576 14.2302Z" fill="black" fill-opacity="0.2"/>
<path d="M36.2576 14.2302C36.2576 14.9202 35.6303 15.4839 34.8559 15.4839C34.4736 15.4839 34.4344 14.9202 34.4344 14.2302C34.4344 13.5402 34.4736 12.9766 34.8559 12.9766C35.6303 12.9766 36.2576 13.5402 36.2576 14.2302Z" fill="black" fill-opacity="0.2"/>
<path d="M36.2576 14.2302C36.2576 14.9202 35.6303 15.4839 34.8559 15.4839C34.4736 15.4839 34.4344 14.9202 34.4344 14.2302C34.4344 13.5402 34.4736 12.9766 34.8559 12.9766C35.6303 12.9766 36.2576 13.5402 36.2576 14.2302Z" fill="black" fill-opacity="0.2"/>
<path d="M36.2576 14.2302C36.2576 14.9202 35.6303 15.4839 34.8559 15.4839C34.4736 15.4839 34.4344 14.9202 34.4344 14.2302C34.4344 13.5402 34.4736 12.9766 34.8559 12.9766C35.6303 12.9766 36.2576 13.5402 36.2576 14.2302Z" fill="black" fill-opacity="0.2"/>
<path d="M36.2576 14.2302C36.2576 14.9202 35.6303 15.4839 34.8559 15.4839C34.4736 15.4839 34.4344 14.9202 34.4344 14.2302C34.4344 13.5402 34.4736 12.9766 34.8559 12.9766C35.6303 12.9766 36.2576 13.5402 36.2576 14.2302Z" fill="black" fill-opacity="0.2"/>
<path d="M36.2576 14.2302C36.2576 14.9202 35.6303 15.4839 34.8559 15.4839C34.4736 15.4839 34.4344 14.9202 34.4344 14.2302C34.4344 13.5402 34.4736 12.9766 34.8559 12.9766C35.6303 12.9766 36.2576 13.5402 36.2576 14.2302Z" fill="black" fill-opacity="0.2"/>
<path d="M36.2576 14.2302C36.2576 14.9202 35.6303 15.4839 34.8559 15.4839C34.4736 15.4839 34.4344 14.9202 34.4344 14.2302C34.4344 13.5402 34.4736 12.9766 34.8559 12.9766C35.6303 12.9766 36.2576 13.5402 36.2576 14.2302Z" fill="black" fill-opacity="0.2"/>
<path d="M36.2576 14.2302C36.2576 14.9202 35.6303 15.4839 34.8559 15.4839C34.4736 15.4839 34.4344 14.9202 34.4344 14.2302C34.4344 13.5402 34.4736 12.9766 34.8559 12.9766C35.6303 12.9766 36.2576 13.5402 36.2576 14.2302Z" fill="#4B61A1"/>
<path d="M49.0394 17.0616C49.0394 17.0616 46.9516 16.9644 46.1478 16.7506C45.1774 16.4882 44.5403 16.0704 45.2264 15.8663C45.9126 15.6622 48.069 15.9732 48.069 15.9732L49.0394 17.0713V17.0616Z" fill="#D8D8D8"/>
<path d="M40.5411 26.5911C40.1784 25.9108 40.5313 25.1625 40.4529 25.0847C40.3842 24.9973 40.296 25.1139 40.198 25.2402C40.1 25.3666 40.1098 25.2985 40.1098 25.2985C40.1098 25.2985 40.0118 25.0167 39.7471 24.6377C39.6099 24.4433 39.3648 24.3948 39.5315 24.7252C39.404 24.5891 39.1786 24.5308 39.2668 24.8029C39.1394 24.6863 38.9826 24.7155 39.0512 24.939C38.9924 24.8612 38.8845 24.8709 38.8649 25.0167C38.8551 25.1042 38.8257 25.4152 39.0708 25.8233C39.3256 26.2315 39.5 27.0002 39.5 27.0002L40.5313 26.6008L40.5411 26.5911Z" fill="#E26713"/>
<path d="M39.0904 25.8256C38.8355 25.4174 38.8649 25.1064 38.8845 25.019C38.9041 24.8732 39.012 24.8635 39.0708 24.9412C39.0218 24.7566 39.1002 24.708 39.1982 24.7468C39.2766 25.2716 39.8059 26.3892 40.1196 26.8071L39.5 27.0024C39.5 27.0024 39.3452 26.2434 39.0904 25.8256Z" fill="#C14E00"/>
<path d="M43.1582 27.3203L42.1192 28.9335L43.7953 31.0327L44.256 28.8558L43.1582 27.3203Z" fill="url(#paint1_linear_5408_49219)" style="mix-blend-mode:multiply"/>
<path d="M46.5007 27.2934C46.5987 27.0407 46.6085 26.8172 46.5399 26.6325C46.3242 25.7579 44.8539 25.3983 44.2168 25.8551C43.8541 26.1175 43.5111 26.6423 43.2856 27.1865C43.1876 27.2739 43.07 27.3614 42.9131 27.4586C42.8347 27.5558 42.9524 27.6918 43.0798 27.8084C42.9916 28.1777 42.9916 28.4984 43.1092 28.6539C43.2268 28.7997 43.3248 28.8872 43.4425 28.9552C43.4425 28.9552 43.9326 29.2273 43.9816 29.2565C43.9816 29.2565 45.5107 29.7035 46.4909 27.2934H46.5007Z" fill="#E8C8BA"/>
<path d="M46.3242 26.3428C46.285 26.0415 46.0204 26.0027 45.4127 25.7403C44.8245 25.4876 44.7951 25.5751 44.4031 25.7014C44.0992 25.8083 43.8934 26.1193 43.8934 26.1193C43.8934 26.1193 44.1384 26.1679 44.256 26.2748C44.3737 26.3719 44.2364 26.2942 44.2952 26.6343C44.3442 26.9259 44.2952 27.1105 44.2952 27.1105C44.2952 27.1105 45.1186 27.7714 45.0304 27.9754C44.9716 28.1115 45.197 28.7237 45.344 29.025C45.344 29.025 45.8734 28.714 46.236 28.0726C46.7261 27.2174 46.3144 26.4108 46.3046 26.3331L46.3242 26.3428Z" fill="#300901"/>
<path d="M44.7363 27.5578C44.8736 27.5092 45.0696 27.4023 45.148 27.5578C45.2656 27.791 45.1676 28.2283 44.8539 28.3061C44.5403 28.3838 44.7363 27.5481 44.7363 27.5481V27.5578Z" fill="#E8C8BA"/>
<path d="M43.7267 26.2553C43.9032 26.4011 45.3735 27.3826 45.3735 27.3826C45.3735 27.3826 45.4127 28.2378 45.6577 28.5099C45.9028 28.782 46.5987 29.3554 46.5889 29.0736C46.4909 28.6654 46.3831 28.1309 46.3831 28.1309C46.3831 28.1309 46.9124 27.4895 46.7947 26.9161C46.7163 26.5566 46.3537 26.1581 46.1478 26.0026C45.7753 25.7305 45.2656 25.4487 44.7559 25.5945C44.1384 25.7597 43.7365 26.2553 43.7365 26.2553H43.7267Z" fill="#3357BC"/>
<path d="M44.6481 25.5542C44.0306 25.7292 43.7169 26.2442 43.7169 26.2442C43.8639 26.3706 44.7657 26.9925 45.05 27.1577C45.3048 26.7204 45.8047 26.1665 46.2262 26.079C46.2066 26.0693 46.1674 26.0207 46.1576 26.011C45.9518 25.8458 45.2656 25.3793 44.6481 25.5542Z" fill="#4D87DB"/>
<path d="M45.1284 31.5235C44.3933 31.7373 43.5895 31.232 43.5895 31.232C42.9328 30.853 41.7957 29.9978 41.3644 29.5702C40.3744 28.5886 39.5 27.0056 39.5 27.0056L40.5901 26.3438C40.5901 26.3438 42.3054 28.2194 42.5407 28.4332C42.8053 28.6761 44.4717 29.7354 44.8834 29.8617C45.7949 30.1338 45.8341 31.3097 45.1186 31.5138L45.1284 31.5235Z" fill="#D8D8D8"/>
</g>
<defs>
<linearGradient id="paint0_linear_5408_49219" x1="43.0896" y1="39.1969" x2="46.5705" y2="22.8775" gradientUnits="userSpaceOnUse">
<stop offset="0.12" stop-color="white"/>
<stop offset="0.2" stop-color="#FAFAFA"/>
<stop offset="0.28" stop-color="#EEEEEE"/>
<stop offset="0.36" stop-color="#D9D9D9"/>
<stop offset="0.44" stop-color="#BCBCBC"/>
<stop offset="0.52" stop-color="#969696"/>
<stop offset="0.61" stop-color="#686868"/>
<stop offset="0.62" stop-color="#646464"/>
</linearGradient>
<linearGradient id="paint1_linear_5408_49219" x1="42.1192" y1="29.1765" x2="44.256" y2="29.1765" gradientUnits="userSpaceOnUse">
<stop offset="0.12" stop-color="white"/>
<stop offset="0.2" stop-color="#FAFAFA"/>
<stop offset="0.28" stop-color="#EEEEEE"/>
<stop offset="0.36" stop-color="#D9D9D9"/>
<stop offset="0.44" stop-color="#BCBCBC"/>
<stop offset="0.52" stop-color="#969696"/>
<stop offset="0.61" stop-color="#686868"/>
<stop offset="0.62" stop-color="#646464"/>
</linearGradient>
<clipPath id="clip0_5408_49219">
<rect width="50" height="33.3333" fill="white" transform="translate(0 8)"/>
</clipPath>
</defs>
</svg>
