<svg width="50" height="50" viewBox="0 0 50 50" fill="none" xmlns="http://www.w3.org/2000/svg">
<path d="M40.8394 18.4893H27.2336C24.1181 18.4893 21.5905 12.8462 21.5905 12.8462C21.5905 9.73072 24.1181 7.20312 27.2336 7.20312H40.8394C43.9549 7.20312 46.4825 9.73072 46.4825 12.8462C46.4825 15.9617 43.9549 18.4893 40.8394 18.4893Z" fill="#26E205"/>
<path d="M21.5066 24.2859V12.8438L27.2337 18.4908L21.5066 24.2859Z" fill="#26E205"/>
<path d="M36.8282 36.8287C36.6123 37.8005 36.0723 38.6724 35.3005 39.3003C34.4566 40.1561 33.4528 40.836 32.3449 41.2959C31.2371 41.7599 30.0493 41.9998 28.8495 41.9998H28.2896C25.77 41.8639 23.3024 41.224 21.0308 40.1241H21.0148C20.4868 39.8802 19.9429 39.6322 19.419 39.3363C16.7674 37.8485 14.3358 36.0008 12.1962 33.8451C9.41662 31.2336 7.13698 28.1381 5.46525 24.7106C4.57739 22.8309 3.98549 20.8272 3.70953 18.7676C3.3016 16.6119 3.54556 14.3843 4.41342 12.3686C4.95733 11.4607 5.62522 10.6289 6.3931 9.89698C6.74105 9.50504 7.16098 9.1891 7.6369 8.96913C8.10883 8.74917 8.62474 8.62919 9.14866 8.61719C9.71657 8.68118 10.2685 8.85315 10.7684 9.1331C11.2683 9.40906 11.7082 9.785 12.0642 10.2329C12.8521 11.0928 13.8159 11.9846 14.6078 12.8085L15.6956 13.8803C16.3355 14.4483 16.7314 15.2361 16.7994 16.088C16.7994 16.8719 16.5115 17.6237 15.9916 18.2076C15.6556 18.6156 15.2997 19.0075 14.9197 19.3795L14.5678 19.7474C14.3638 19.9354 14.2078 20.1713 14.1119 20.4313C14.0239 20.6873 13.9919 20.9512 14.0079 21.2192C14.2838 21.963 14.7238 22.6389 15.2837 23.1988C16.1635 24.3907 17.0394 25.4265 17.9353 26.5463C19.551 28.422 21.4707 30.0178 23.6143 31.2656C23.8343 31.4255 24.0863 31.5335 24.3542 31.5815C24.5862 31.5975 24.8221 31.5655 25.0381 31.4775C25.65 31.1176 26.1939 30.6537 26.6499 30.1097C27.2618 29.3579 28.1416 28.8739 29.1055 28.758C30.0293 28.77 30.9132 29.1499 31.5611 29.8098C31.913 30.1057 32.2969 30.5097 32.6649 30.8976L33.1888 31.4415L33.7327 31.9694L34.6646 32.9173C35.2205 33.4092 35.7404 33.9371 36.2243 34.497C36.7122 35.1689 36.9322 36.0048 36.8362 36.8287H36.8282Z" fill="#1A46BF"/>
<path d="M27.4296 14.9968L27.4328 14.4017L29.4388 12.6036C29.601 12.4607 29.7108 12.3242 29.7684 12.1941C29.8281 12.0639 29.858 11.9338 29.858 11.8037C29.858 11.6395 29.8217 11.4923 29.7492 11.3622C29.6767 11.2299 29.5764 11.1254 29.4484 11.0486C29.3205 10.9718 29.1733 10.9335 29.0069 10.9335C28.8363 10.9335 28.6838 10.974 28.5494 11.055C28.4171 11.134 28.3137 11.2395 28.239 11.3718C28.1644 11.504 28.1281 11.6469 28.1303 11.8005H27.4456C27.4456 11.5019 27.5128 11.2406 27.6471 11.0166C27.7836 10.7905 27.9703 10.6146 28.207 10.4887C28.4438 10.3607 28.7147 10.2968 29.0197 10.2968C29.3098 10.2968 29.57 10.3629 29.8004 10.4951C30.0308 10.6252 30.2121 10.8044 30.3443 11.0326C30.4787 11.2609 30.5459 11.5211 30.5459 11.8133C30.5459 12.0245 30.5181 12.2036 30.4627 12.3508C30.4072 12.498 30.324 12.6345 30.2131 12.7604C30.1022 12.8862 29.9636 13.0227 29.7972 13.1699L28.2486 14.5521L28.175 14.3601H30.5459V14.9968H27.4296ZM33.1399 15V14.1969H31.0602V13.5634L32.5576 10.3927H33.3223L31.8249 13.5634H33.1399V12.3156H33.8182V13.5634H34.2757V14.1969H33.8182V15H33.1399ZM36.2085 10.3927H36.8836L35.6549 15H34.9799L36.2085 10.3927ZM37.9584 15L39.5773 11.0294H37.5264V10.3927H40.2972V11.0294L38.6815 15H37.9584Z" fill="white"/>
<path d="M16.997 15.1943L10.2269 8.42418C9.64741 7.84473 8.70794 7.84473 8.1285 8.42418L7.70996 8.84272C7.13051 9.42216 7.13051 10.3616 7.70996 10.9411L14.4801 17.7112C15.0596 18.2907 15.999 18.2907 16.5785 17.7112L16.997 17.2927C17.5765 16.7133 17.5765 15.7738 16.997 15.1943Z" fill="#F4C52F"/>
<path d="M38.5264 36.098L30.6492 28.2207C29.975 27.5465 28.8819 27.5465 28.2077 28.2207L27.7208 28.7077C27.0466 29.3819 27.0466 30.475 27.7208 31.1492L35.598 39.0264C36.2722 39.7006 37.3652 39.7006 38.0394 39.0264L38.5264 38.5394C39.2006 37.8652 39.2006 36.7722 38.5264 36.098Z" fill="#F4C52F"/>
</svg>
