<svg width="50" height="50" viewBox="0 0 50 50" fill="none" xmlns="http://www.w3.org/2000/svg">
<path d="M50 12.3935V41.6661C50 43.4224 48.5736 44.8458 46.8135 44.8458H19.7478C17.9876 44.8458 16.5613 43.4224 16.5613 41.6661V8.17967C16.5613 6.42331 17.9876 5 19.7478 5H42.5766L50 12.3935Z" fill="#D8EDFF"/>
<path d="M9.88141 37.9389C9.51184 37.9389 9.15151 37.8407 8.83737 37.6489L4.90144 35.3196C1.90791 33.6217 0.0369571 30.4318 0 26.9518V20.586C0 19.7067 0.540498 18.9209 1.35355 18.6168L9.16999 15.7122C9.63195 15.5438 10.1355 15.5438 10.5975 15.7122L18.4139 18.6168C19.2269 18.9209 19.7674 19.7067 19.7674 20.586V26.9518C19.7305 30.4271 17.8595 33.6217 14.8614 35.3196L10.9254 37.6489C10.6113 37.8407 10.251 37.9389 9.88141 37.9389Z" fill="#F4C52F"/>
<path d="M44.5861 23.8281H21.0335C19.8131 23.8281 18.8237 24.8154 18.8237 26.0332V26.0367C18.8237 27.2545 19.8131 28.2418 21.0335 28.2418H44.5861C45.8065 28.2418 46.7959 27.2545 46.7959 26.0367V26.0332C46.7959 24.8154 45.8065 23.8281 44.5861 23.8281Z" fill="#B9DFFF"/>
<path d="M44.5827 32.0234H21.0301C19.8097 32.0234 18.8203 33.0107 18.8203 34.2285V34.232C18.8203 35.4499 19.8097 36.4371 21.0301 36.4371H44.5827C45.8031 36.4371 46.7925 35.4499 46.7925 34.232V34.2285C46.7925 33.0107 45.8031 32.0234 44.5827 32.0234Z" fill="#B9DFFF"/>
<path d="M11.699 44.1706C11.699 44.6298 11.3371 45.0049 10.8909 45.0049H6.70668C6.2605 45.0049 5.89864 44.6333 5.89864 44.1706V36.6824C5.89864 36.2267 6.2605 35.8516 6.70668 35.8516H10.8909C11.3371 35.8516 11.699 36.2232 11.699 36.6824V44.1706Z" fill="black"/>
<path d="M35.7047 44.1706C35.7047 44.6298 35.3429 45.0049 34.8967 45.0049H30.716C30.2698 45.0049 29.9079 44.6298 29.9079 44.1706V36.6824C29.9079 36.2267 30.2698 35.8516 30.716 35.8516H34.8967C35.3429 35.8516 35.7047 36.2232 35.7047 36.6824V44.1706Z" fill="#232121"/>
<path d="M10.0337 30.2423L32.065 30.5823L29.6374 24.4824L20.8684 23.2344L11.9695 24.6226L10.0337 30.2423Z" fill="#D8D8D8"/>
<path d="M29.6374 24.4355L20.8684 23.1875L20.8263 23.1945V30.3602L32.065 30.5354L29.6374 24.4355Z" fill="white"/>
<path d="M34.3486 30.3486C34.194 30.2259 33.6249 30.005 32.7431 29.7491C32.0685 28.0628 30.6808 24.3398 29.7323 23.9682C27.6911 23.1724 22.5513 22.7307 21.1143 22.6641H20.5487C19.1118 22.7307 13.8877 23.1689 11.843 23.9682C10.8944 24.3398 9.50671 28.0628 8.83217 29.7491C7.95035 30.0015 7.38473 30.2223 7.22663 30.3486C6.63993 30.8113 5.26978 31.828 5.63866 35.0181C5.86351 36.9463 6.70668 41.6264 6.70668 41.6264H33.8884C33.8884 41.6264 35.4974 37.1882 35.4974 35.0181C35.4974 31.6877 34.9283 30.8113 34.3451 30.3486H34.3486ZM20.7876 28.2977C16.6737 28.2101 12.904 28.7815 10.3815 29.3564C11.0385 27.6982 12.0397 25.2688 12.7599 24.9883C14.5938 24.2732 19.2875 23.8911 20.5768 23.835H21.0827C22.3721 23.8946 26.9779 24.2732 28.8083 24.9883C29.5285 25.2688 30.5298 27.6982 31.1867 29.3564C28.6642 28.7815 24.8981 28.2101 20.7806 28.2977H20.7876Z" fill="#C14E00"/>
<path d="M35.4307 27.7358L34.0465 27.5045C33.3614 27.3923 32.736 27.7604 32.6974 28.3458C32.6658 28.451 32.6131 28.5877 32.4269 28.7034L31.668 28.8682C31.4432 28.9173 31.2991 29.1451 31.3483 29.3765C31.3975 29.6079 31.7629 29.9304 31.9877 29.8848L33.0733 29.6464C33.3227 29.9339 33.6003 29.9269 34.0465 29.8989L35.4307 29.8042C35.8979 29.7727 36.2422 29.4011 36.2422 28.9734V28.6508C36.2422 28.2231 35.8979 27.8165 35.4307 27.7393V27.7358Z" fill="#E26713"/>
<path d="M5.87756 27.7358L7.25826 27.5045C7.94333 27.3923 8.5722 27.7604 8.60733 28.3458C8.63895 28.451 8.69516 28.5877 8.87785 28.7034L9.6367 28.8682C9.86154 28.9173 10.0056 29.1451 9.9564 29.3765C9.91073 29.6079 9.62967 29.9374 9.40483 29.8883L8.31925 29.6535C8.06981 29.9409 7.70443 29.9304 7.25826 29.8989L5.87756 29.8042C5.40679 29.7727 5.0625 29.4011 5.0625 28.9734V28.6508C5.0625 28.2231 5.40679 27.8165 5.87756 27.7393V27.7358Z" fill="#C14E00"/>
<path d="M34.851 41.6264C34.851 41.6264 35.7293 37.3144 35.9717 35.0181C36.3125 31.7578 34.9669 30.8113 34.3802 30.3486C34.2257 30.2259 33.66 30.005 32.7747 29.7491C32.1037 28.0628 30.7124 24.3398 29.7639 23.9682C27.7227 23.1724 22.5864 22.7307 21.146 22.6641H20.8333V23.828H21.1179C22.4072 23.8876 27.0095 24.2662 28.8469 24.9813C29.5671 25.2618 30.5649 27.6912 31.2254 29.3494C28.7064 28.7745 24.9438 28.2066 20.8333 28.2907V41.6194H34.8475L34.851 41.6264Z" fill="#E26713"/>
<g opacity="0.55">
<path d="M14.8257 40.2851H26.7495C28.1092 40.2851 29.2158 39.1843 29.3107 37.7891H12.2611C12.3559 39.1808 13.4661 40.2851 14.8222 40.2851H14.8257Z" fill="#662619"/>
</g>
<g opacity="0.55">
<path d="M14.7027 33.9148C14.2355 33.1085 14.2355 32.6562 14.9768 32.6562H27.1149C27.9932 32.6913 27.7754 33.2137 27.4452 33.8973L27.1219 34.5598C26.7917 35.2435 26.1839 35.8009 25.4391 35.8009H16.628C15.8867 35.8009 15.293 35.2364 14.9838 34.5423L14.7027 33.9148Z" fill="#662619"/>
</g>
<path d="M9.27132 38.6586C9.27132 38.1222 9.69291 37.6875 10.2164 37.6875C10.7398 37.6875 11.1579 38.1222 11.1579 38.6586C11.1579 39.1949 10.7363 39.6297 10.2164 39.6297C9.69642 39.6297 9.27132 39.1949 9.27132 38.6586Z" fill="#662619"/>
<path d="M9.64372 38.6593C9.64372 38.3332 9.90019 38.0703 10.2164 38.0703C10.5326 38.0703 10.789 38.3332 10.789 38.6593C10.789 38.9853 10.5326 39.2482 10.2164 39.2482C9.90019 39.2482 9.64372 38.9853 9.64372 38.6593Z" fill="#BFB8B8"/>
<path d="M30.1082 38.6586C30.1082 38.1222 30.5298 37.6875 31.0532 37.6875C31.5767 37.6875 31.9983 38.1222 31.9983 38.6586C31.9983 39.1949 31.5767 39.6297 31.0532 39.6297C30.5298 39.6297 30.1082 39.1949 30.1082 38.6586Z" fill="#662619"/>
<path d="M30.4771 38.6593C30.4771 38.3332 30.7335 38.0703 31.0497 38.0703C31.3659 38.0703 31.6224 38.3332 31.6224 38.6593C31.6224 38.9853 31.3659 39.2482 31.0497 39.2482C30.7335 39.2482 30.4771 38.9853 30.4771 38.6593Z" fill="#D8D8D8"/>
<path d="M12.6897 33.9732C12.7002 34.457 11.713 34.4745 11.1544 34.4745H7.74308C7.18448 34.4745 6.73128 34.0117 6.73128 33.4368V33.0897C6.73128 32.5183 7.05801 32.3641 7.722 32.1362L10.6099 31.6173C11.8395 31.5998 12.7108 33.0512 12.7108 33.6261L12.6897 33.9732Z" fill="#662619"/>
<path d="M12.3735 33.9198C12.3735 34.4422 11.4636 34.3791 10.9577 34.3791H7.8555C7.34609 34.3791 6.93504 33.9549 6.93504 33.4361V33.1205C6.93504 32.5982 7.23367 32.4615 7.83442 32.2546L10.4623 31.7814C11.583 31.7673 12.3735 33.0855 12.3735 33.6078V33.9233V33.9198Z" fill="#BFB8B8"/>
<path opacity="0.54" d="M29.0753 33.9732C29.0612 34.457 30.052 34.4745 30.6106 34.4745H34.0219C34.577 34.4745 35.0302 34.0117 35.0302 33.4368V33.0897C35.0302 32.5183 34.7035 32.3641 34.0395 32.1362L31.1516 31.6173C29.9185 31.5998 29.0507 33.0512 29.0507 33.6261L29.0718 33.9732H29.0753Z" fill="#662619"/>
<path d="M29.388 33.9198C29.388 34.4422 30.2979 34.3791 30.8038 34.3791H33.906C34.4119 34.3791 34.8264 33.9549 34.8264 33.4361V33.1205C34.8264 32.5982 34.5313 32.4615 33.927 32.2546L31.2991 31.7814C30.1784 31.7673 29.388 33.0855 29.388 33.6078V33.9233V33.9198Z" fill="#D8D8D8"/>
<path d="M21.7748 12.8661C23.4047 12.8661 24.7259 11.5477 24.7259 9.92135C24.7259 8.29499 23.4047 6.97656 21.7748 6.97656C20.145 6.97656 18.8237 8.29499 18.8237 9.92135C18.8237 11.5477 20.145 12.8661 21.7748 12.8661Z" fill="#1A46BF"/>
<path d="M44.5861 16.3672H21.0335C19.8131 16.3672 18.8237 17.3544 18.8237 18.5723V18.5758C18.8237 19.7936 19.8131 20.7809 21.0335 20.7809H44.5861C45.8065 20.7809 46.7959 19.7936 46.7959 18.5758V18.5723C46.7959 17.3544 45.8065 16.3672 44.5861 16.3672Z" fill="#B9DFFF"/>
</svg>
