<svg width="50" height="50" viewBox="0 0 50 50" fill="none" xmlns="http://www.w3.org/2000/svg">
<path d="M24.5 9C15.6579 9 8.5 16.1579 8.5 25C8.5 33.8421 15.6579 41 24.5 41C33.3421 41 40.5 33.8421 40.5 25C40.5 16.1579 33.3421 9 24.5 9ZM24.5 39.3158C16.5842 39.3158 10.1842 32.9158 10.1842 25C10.1842 17.0842 16.5842 10.6842 24.5 10.6842C32.4158 10.6842 38.8158 17.0842 38.8158 25C38.8158 32.9158 32.4158 39.3158 24.5 39.3158ZM19.8684 26.6842C18.2263 26.6842 16.9211 27.9895 16.9211 29.6316C16.9211 31.2737 18.2263 32.5789 19.8684 32.5789C21.5105 32.5789 22.8158 31.2737 22.8158 29.6316C22.8158 27.9895 21.5105 26.6842 19.8684 26.6842ZM19.8684 30.8947C19.1526 30.8947 18.6053 30.3474 18.6053 29.6316C18.6053 28.9158 19.1526 28.3684 19.8684 28.3684C20.5842 28.3684 21.1316 28.9158 21.1316 29.6316C21.1316 30.3474 20.5842 30.8947 19.8684 30.8947ZM19.9105 17.4632C18.2684 17.4632 16.9632 18.7684 16.9632 20.4105C16.9632 22.0526 18.2684 23.3579 19.9105 23.3579C21.5526 23.3579 22.8579 22.0526 22.8579 20.4105C22.8579 18.7684 21.5105 17.4632 19.9105 17.4632ZM19.9105 21.6737C19.1947 21.6737 18.6474 21.0842 18.6474 20.4105C18.6474 19.6947 19.2368 19.1474 19.9105 19.1474C20.5842 19.1474 21.1737 19.7368 21.1737 20.4105C21.1737 21.0842 20.5842 21.6737 19.9105 21.6737ZM29.0895 26.6421C27.4474 26.6421 26.1421 27.9474 26.1421 29.5895C26.1421 31.2316 27.4474 32.5368 29.0895 32.5368C30.7316 32.5368 32.0368 31.2316 32.0368 29.5895C32.0368 27.9474 30.7316 26.6421 29.0895 26.6421ZM29.0895 30.8526C28.4158 30.8526 27.8263 30.3053 27.8263 29.5895C27.8263 28.9158 28.4158 28.3263 29.0895 28.3263C29.8053 28.3263 30.3526 28.9158 30.3526 29.5895C30.3526 30.3053 29.8053 30.8526 29.0895 30.8526ZM29.1316 17.4211C27.4895 17.4211 26.1842 18.7263 26.1842 20.3684C26.1842 22.0105 27.4895 23.3158 29.1316 23.3158C30.7737 23.3158 32.0789 22.0105 32.0789 20.3684C32.0789 18.7263 30.7737 17.4211 29.1316 17.4211ZM29.1316 21.6316C28.4158 21.6316 27.8684 21.0842 27.8684 20.3684C27.8684 19.6526 28.4158 19.1053 29.1316 19.1053C29.8053 19.1053 30.3947 19.6526 30.3947 20.3684C30.3947 21.0842 29.8053 21.6316 29.1316 21.6316Z" fill="#4B61A1"/>
<path d="M24.5 9C15.6579 9 8.5 16.1579 8.5 25C8.5 33.8421 15.6579 41 24.5 41C33.3421 41 40.5 33.8421 40.5 25C40.5 16.1579 33.3421 9 24.5 9ZM24.5 39.3158C16.5842 39.3158 10.1842 32.9158 10.1842 25C10.1842 17.0842 16.5842 10.6842 24.5 10.6842C32.4158 10.6842 38.8158 17.0842 38.8158 25C38.8158 32.9158 32.4158 39.3158 24.5 39.3158ZM19.8684 26.6842C18.2263 26.6842 16.9211 27.9895 16.9211 29.6316C16.9211 31.2737 18.2263 32.5789 19.8684 32.5789C21.5105 32.5789 22.8158 31.2737 22.8158 29.6316C22.8158 27.9895 21.5105 26.6842 19.8684 26.6842ZM19.8684 30.8947C19.1526 30.8947 18.6053 30.3474 18.6053 29.6316C18.6053 28.9158 19.1526 28.3684 19.8684 28.3684C20.5842 28.3684 21.1316 28.9158 21.1316 29.6316C21.1316 30.3474 20.5842 30.8947 19.8684 30.8947ZM19.9105 17.4632C18.2684 17.4632 16.9632 18.7684 16.9632 20.4105C16.9632 22.0526 18.2684 23.3579 19.9105 23.3579C21.5526 23.3579 22.8579 22.0526 22.8579 20.4105C22.8579 18.7684 21.5105 17.4632 19.9105 17.4632ZM19.9105 21.6737C19.1947 21.6737 18.6474 21.0842 18.6474 20.4105C18.6474 19.6947 19.2368 19.1474 19.9105 19.1474C20.5842 19.1474 21.1737 19.7368 21.1737 20.4105C21.1737 21.0842 20.5842 21.6737 19.9105 21.6737ZM29.0895 26.6421C27.4474 26.6421 26.1421 27.9474 26.1421 29.5895C26.1421 31.2316 27.4474 32.5368 29.0895 32.5368C30.7316 32.5368 32.0368 31.2316 32.0368 29.5895C32.0368 27.9474 30.7316 26.6421 29.0895 26.6421ZM29.0895 30.8526C28.4158 30.8526 27.8263 30.3053 27.8263 29.5895C27.8263 28.9158 28.4158 28.3263 29.0895 28.3263C29.8053 28.3263 30.3526 28.9158 30.3526 29.5895C30.3526 30.3053 29.8053 30.8526 29.0895 30.8526ZM29.1316 17.4211C27.4895 17.4211 26.1842 18.7263 26.1842 20.3684C26.1842 22.0105 27.4895 23.3158 29.1316 23.3158C30.7737 23.3158 32.0789 22.0105 32.0789 20.3684C32.0789 18.7263 30.7737 17.4211 29.1316 17.4211ZM29.1316 21.6316C28.4158 21.6316 27.8684 21.0842 27.8684 20.3684C27.8684 19.6526 28.4158 19.1053 29.1316 19.1053C29.8053 19.1053 30.3947 19.6526 30.3947 20.3684C30.3947 21.0842 29.8053 21.6316 29.1316 21.6316Z" fill="black" fill-opacity="0.2"/>
<path d="M24.5 9C15.6579 9 8.5 16.1579 8.5 25C8.5 33.8421 15.6579 41 24.5 41C33.3421 41 40.5 33.8421 40.5 25C40.5 16.1579 33.3421 9 24.5 9ZM24.5 39.3158C16.5842 39.3158 10.1842 32.9158 10.1842 25C10.1842 17.0842 16.5842 10.6842 24.5 10.6842C32.4158 10.6842 38.8158 17.0842 38.8158 25C38.8158 32.9158 32.4158 39.3158 24.5 39.3158ZM19.8684 26.6842C18.2263 26.6842 16.9211 27.9895 16.9211 29.6316C16.9211 31.2737 18.2263 32.5789 19.8684 32.5789C21.5105 32.5789 22.8158 31.2737 22.8158 29.6316C22.8158 27.9895 21.5105 26.6842 19.8684 26.6842ZM19.8684 30.8947C19.1526 30.8947 18.6053 30.3474 18.6053 29.6316C18.6053 28.9158 19.1526 28.3684 19.8684 28.3684C20.5842 28.3684 21.1316 28.9158 21.1316 29.6316C21.1316 30.3474 20.5842 30.8947 19.8684 30.8947ZM19.9105 17.4632C18.2684 17.4632 16.9632 18.7684 16.9632 20.4105C16.9632 22.0526 18.2684 23.3579 19.9105 23.3579C21.5526 23.3579 22.8579 22.0526 22.8579 20.4105C22.8579 18.7684 21.5105 17.4632 19.9105 17.4632ZM19.9105 21.6737C19.1947 21.6737 18.6474 21.0842 18.6474 20.4105C18.6474 19.6947 19.2368 19.1474 19.9105 19.1474C20.5842 19.1474 21.1737 19.7368 21.1737 20.4105C21.1737 21.0842 20.5842 21.6737 19.9105 21.6737ZM29.0895 26.6421C27.4474 26.6421 26.1421 27.9474 26.1421 29.5895C26.1421 31.2316 27.4474 32.5368 29.0895 32.5368C30.7316 32.5368 32.0368 31.2316 32.0368 29.5895C32.0368 27.9474 30.7316 26.6421 29.0895 26.6421ZM29.0895 30.8526C28.4158 30.8526 27.8263 30.3053 27.8263 29.5895C27.8263 28.9158 28.4158 28.3263 29.0895 28.3263C29.8053 28.3263 30.3526 28.9158 30.3526 29.5895C30.3526 30.3053 29.8053 30.8526 29.0895 30.8526ZM29.1316 17.4211C27.4895 17.4211 26.1842 18.7263 26.1842 20.3684C26.1842 22.0105 27.4895 23.3158 29.1316 23.3158C30.7737 23.3158 32.0789 22.0105 32.0789 20.3684C32.0789 18.7263 30.7737 17.4211 29.1316 17.4211ZM29.1316 21.6316C28.4158 21.6316 27.8684 21.0842 27.8684 20.3684C27.8684 19.6526 28.4158 19.1053 29.1316 19.1053C29.8053 19.1053 30.3947 19.6526 30.3947 20.3684C30.3947 21.0842 29.8053 21.6316 29.1316 21.6316Z" fill="black" fill-opacity="0.2"/>
<path d="M24.5 9C15.6579 9 8.5 16.1579 8.5 25C8.5 33.8421 15.6579 41 24.5 41C33.3421 41 40.5 33.8421 40.5 25C40.5 16.1579 33.3421 9 24.5 9ZM24.5 39.3158C16.5842 39.3158 10.1842 32.9158 10.1842 25C10.1842 17.0842 16.5842 10.6842 24.5 10.6842C32.4158 10.6842 38.8158 17.0842 38.8158 25C38.8158 32.9158 32.4158 39.3158 24.5 39.3158ZM19.8684 26.6842C18.2263 26.6842 16.9211 27.9895 16.9211 29.6316C16.9211 31.2737 18.2263 32.5789 19.8684 32.5789C21.5105 32.5789 22.8158 31.2737 22.8158 29.6316C22.8158 27.9895 21.5105 26.6842 19.8684 26.6842ZM19.8684 30.8947C19.1526 30.8947 18.6053 30.3474 18.6053 29.6316C18.6053 28.9158 19.1526 28.3684 19.8684 28.3684C20.5842 28.3684 21.1316 28.9158 21.1316 29.6316C21.1316 30.3474 20.5842 30.8947 19.8684 30.8947ZM19.9105 17.4632C18.2684 17.4632 16.9632 18.7684 16.9632 20.4105C16.9632 22.0526 18.2684 23.3579 19.9105 23.3579C21.5526 23.3579 22.8579 22.0526 22.8579 20.4105C22.8579 18.7684 21.5105 17.4632 19.9105 17.4632ZM19.9105 21.6737C19.1947 21.6737 18.6474 21.0842 18.6474 20.4105C18.6474 19.6947 19.2368 19.1474 19.9105 19.1474C20.5842 19.1474 21.1737 19.7368 21.1737 20.4105C21.1737 21.0842 20.5842 21.6737 19.9105 21.6737ZM29.0895 26.6421C27.4474 26.6421 26.1421 27.9474 26.1421 29.5895C26.1421 31.2316 27.4474 32.5368 29.0895 32.5368C30.7316 32.5368 32.0368 31.2316 32.0368 29.5895C32.0368 27.9474 30.7316 26.6421 29.0895 26.6421ZM29.0895 30.8526C28.4158 30.8526 27.8263 30.3053 27.8263 29.5895C27.8263 28.9158 28.4158 28.3263 29.0895 28.3263C29.8053 28.3263 30.3526 28.9158 30.3526 29.5895C30.3526 30.3053 29.8053 30.8526 29.0895 30.8526ZM29.1316 17.4211C27.4895 17.4211 26.1842 18.7263 26.1842 20.3684C26.1842 22.0105 27.4895 23.3158 29.1316 23.3158C30.7737 23.3158 32.0789 22.0105 32.0789 20.3684C32.0789 18.7263 30.7737 17.4211 29.1316 17.4211ZM29.1316 21.6316C28.4158 21.6316 27.8684 21.0842 27.8684 20.3684C27.8684 19.6526 28.4158 19.1053 29.1316 19.1053C29.8053 19.1053 30.3947 19.6526 30.3947 20.3684C30.3947 21.0842 29.8053 21.6316 29.1316 21.6316Z" fill="black" fill-opacity="0.2"/>
<path d="M24.5 9C15.6579 9 8.5 16.1579 8.5 25C8.5 33.8421 15.6579 41 24.5 41C33.3421 41 40.5 33.8421 40.5 25C40.5 16.1579 33.3421 9 24.5 9ZM24.5 39.3158C16.5842 39.3158 10.1842 32.9158 10.1842 25C10.1842 17.0842 16.5842 10.6842 24.5 10.6842C32.4158 10.6842 38.8158 17.0842 38.8158 25C38.8158 32.9158 32.4158 39.3158 24.5 39.3158ZM19.8684 26.6842C18.2263 26.6842 16.9211 27.9895 16.9211 29.6316C16.9211 31.2737 18.2263 32.5789 19.8684 32.5789C21.5105 32.5789 22.8158 31.2737 22.8158 29.6316C22.8158 27.9895 21.5105 26.6842 19.8684 26.6842ZM19.8684 30.8947C19.1526 30.8947 18.6053 30.3474 18.6053 29.6316C18.6053 28.9158 19.1526 28.3684 19.8684 28.3684C20.5842 28.3684 21.1316 28.9158 21.1316 29.6316C21.1316 30.3474 20.5842 30.8947 19.8684 30.8947ZM19.9105 17.4632C18.2684 17.4632 16.9632 18.7684 16.9632 20.4105C16.9632 22.0526 18.2684 23.3579 19.9105 23.3579C21.5526 23.3579 22.8579 22.0526 22.8579 20.4105C22.8579 18.7684 21.5105 17.4632 19.9105 17.4632ZM19.9105 21.6737C19.1947 21.6737 18.6474 21.0842 18.6474 20.4105C18.6474 19.6947 19.2368 19.1474 19.9105 19.1474C20.5842 19.1474 21.1737 19.7368 21.1737 20.4105C21.1737 21.0842 20.5842 21.6737 19.9105 21.6737ZM29.0895 26.6421C27.4474 26.6421 26.1421 27.9474 26.1421 29.5895C26.1421 31.2316 27.4474 32.5368 29.0895 32.5368C30.7316 32.5368 32.0368 31.2316 32.0368 29.5895C32.0368 27.9474 30.7316 26.6421 29.0895 26.6421ZM29.0895 30.8526C28.4158 30.8526 27.8263 30.3053 27.8263 29.5895C27.8263 28.9158 28.4158 28.3263 29.0895 28.3263C29.8053 28.3263 30.3526 28.9158 30.3526 29.5895C30.3526 30.3053 29.8053 30.8526 29.0895 30.8526ZM29.1316 17.4211C27.4895 17.4211 26.1842 18.7263 26.1842 20.3684C26.1842 22.0105 27.4895 23.3158 29.1316 23.3158C30.7737 23.3158 32.0789 22.0105 32.0789 20.3684C32.0789 18.7263 30.7737 17.4211 29.1316 17.4211ZM29.1316 21.6316C28.4158 21.6316 27.8684 21.0842 27.8684 20.3684C27.8684 19.6526 28.4158 19.1053 29.1316 19.1053C29.8053 19.1053 30.3947 19.6526 30.3947 20.3684C30.3947 21.0842 29.8053 21.6316 29.1316 21.6316Z" fill="black" fill-opacity="0.2"/>
<path d="M24.5 9C15.6579 9 8.5 16.1579 8.5 25C8.5 33.8421 15.6579 41 24.5 41C33.3421 41 40.5 33.8421 40.5 25C40.5 16.1579 33.3421 9 24.5 9ZM24.5 39.3158C16.5842 39.3158 10.1842 32.9158 10.1842 25C10.1842 17.0842 16.5842 10.6842 24.5 10.6842C32.4158 10.6842 38.8158 17.0842 38.8158 25C38.8158 32.9158 32.4158 39.3158 24.5 39.3158ZM19.8684 26.6842C18.2263 26.6842 16.9211 27.9895 16.9211 29.6316C16.9211 31.2737 18.2263 32.5789 19.8684 32.5789C21.5105 32.5789 22.8158 31.2737 22.8158 29.6316C22.8158 27.9895 21.5105 26.6842 19.8684 26.6842ZM19.8684 30.8947C19.1526 30.8947 18.6053 30.3474 18.6053 29.6316C18.6053 28.9158 19.1526 28.3684 19.8684 28.3684C20.5842 28.3684 21.1316 28.9158 21.1316 29.6316C21.1316 30.3474 20.5842 30.8947 19.8684 30.8947ZM19.9105 17.4632C18.2684 17.4632 16.9632 18.7684 16.9632 20.4105C16.9632 22.0526 18.2684 23.3579 19.9105 23.3579C21.5526 23.3579 22.8579 22.0526 22.8579 20.4105C22.8579 18.7684 21.5105 17.4632 19.9105 17.4632ZM19.9105 21.6737C19.1947 21.6737 18.6474 21.0842 18.6474 20.4105C18.6474 19.6947 19.2368 19.1474 19.9105 19.1474C20.5842 19.1474 21.1737 19.7368 21.1737 20.4105C21.1737 21.0842 20.5842 21.6737 19.9105 21.6737ZM29.0895 26.6421C27.4474 26.6421 26.1421 27.9474 26.1421 29.5895C26.1421 31.2316 27.4474 32.5368 29.0895 32.5368C30.7316 32.5368 32.0368 31.2316 32.0368 29.5895C32.0368 27.9474 30.7316 26.6421 29.0895 26.6421ZM29.0895 30.8526C28.4158 30.8526 27.8263 30.3053 27.8263 29.5895C27.8263 28.9158 28.4158 28.3263 29.0895 28.3263C29.8053 28.3263 30.3526 28.9158 30.3526 29.5895C30.3526 30.3053 29.8053 30.8526 29.0895 30.8526ZM29.1316 17.4211C27.4895 17.4211 26.1842 18.7263 26.1842 20.3684C26.1842 22.0105 27.4895 23.3158 29.1316 23.3158C30.7737 23.3158 32.0789 22.0105 32.0789 20.3684C32.0789 18.7263 30.7737 17.4211 29.1316 17.4211ZM29.1316 21.6316C28.4158 21.6316 27.8684 21.0842 27.8684 20.3684C27.8684 19.6526 28.4158 19.1053 29.1316 19.1053C29.8053 19.1053 30.3947 19.6526 30.3947 20.3684C30.3947 21.0842 29.8053 21.6316 29.1316 21.6316Z" fill="black" fill-opacity="0.2"/>
<path d="M24.5 9C15.6579 9 8.5 16.1579 8.5 25C8.5 33.8421 15.6579 41 24.5 41C33.3421 41 40.5 33.8421 40.5 25C40.5 16.1579 33.3421 9 24.5 9ZM24.5 39.3158C16.5842 39.3158 10.1842 32.9158 10.1842 25C10.1842 17.0842 16.5842 10.6842 24.5 10.6842C32.4158 10.6842 38.8158 17.0842 38.8158 25C38.8158 32.9158 32.4158 39.3158 24.5 39.3158ZM19.8684 26.6842C18.2263 26.6842 16.9211 27.9895 16.9211 29.6316C16.9211 31.2737 18.2263 32.5789 19.8684 32.5789C21.5105 32.5789 22.8158 31.2737 22.8158 29.6316C22.8158 27.9895 21.5105 26.6842 19.8684 26.6842ZM19.8684 30.8947C19.1526 30.8947 18.6053 30.3474 18.6053 29.6316C18.6053 28.9158 19.1526 28.3684 19.8684 28.3684C20.5842 28.3684 21.1316 28.9158 21.1316 29.6316C21.1316 30.3474 20.5842 30.8947 19.8684 30.8947ZM19.9105 17.4632C18.2684 17.4632 16.9632 18.7684 16.9632 20.4105C16.9632 22.0526 18.2684 23.3579 19.9105 23.3579C21.5526 23.3579 22.8579 22.0526 22.8579 20.4105C22.8579 18.7684 21.5105 17.4632 19.9105 17.4632ZM19.9105 21.6737C19.1947 21.6737 18.6474 21.0842 18.6474 20.4105C18.6474 19.6947 19.2368 19.1474 19.9105 19.1474C20.5842 19.1474 21.1737 19.7368 21.1737 20.4105C21.1737 21.0842 20.5842 21.6737 19.9105 21.6737ZM29.0895 26.6421C27.4474 26.6421 26.1421 27.9474 26.1421 29.5895C26.1421 31.2316 27.4474 32.5368 29.0895 32.5368C30.7316 32.5368 32.0368 31.2316 32.0368 29.5895C32.0368 27.9474 30.7316 26.6421 29.0895 26.6421ZM29.0895 30.8526C28.4158 30.8526 27.8263 30.3053 27.8263 29.5895C27.8263 28.9158 28.4158 28.3263 29.0895 28.3263C29.8053 28.3263 30.3526 28.9158 30.3526 29.5895C30.3526 30.3053 29.8053 30.8526 29.0895 30.8526ZM29.1316 17.4211C27.4895 17.4211 26.1842 18.7263 26.1842 20.3684C26.1842 22.0105 27.4895 23.3158 29.1316 23.3158C30.7737 23.3158 32.0789 22.0105 32.0789 20.3684C32.0789 18.7263 30.7737 17.4211 29.1316 17.4211ZM29.1316 21.6316C28.4158 21.6316 27.8684 21.0842 27.8684 20.3684C27.8684 19.6526 28.4158 19.1053 29.1316 19.1053C29.8053 19.1053 30.3947 19.6526 30.3947 20.3684C30.3947 21.0842 29.8053 21.6316 29.1316 21.6316Z" fill="black" fill-opacity="0.2"/>
<path d="M24.5 9C15.6579 9 8.5 16.1579 8.5 25C8.5 33.8421 15.6579 41 24.5 41C33.3421 41 40.5 33.8421 40.5 25C40.5 16.1579 33.3421 9 24.5 9ZM24.5 39.3158C16.5842 39.3158 10.1842 32.9158 10.1842 25C10.1842 17.0842 16.5842 10.6842 24.5 10.6842C32.4158 10.6842 38.8158 17.0842 38.8158 25C38.8158 32.9158 32.4158 39.3158 24.5 39.3158ZM19.8684 26.6842C18.2263 26.6842 16.9211 27.9895 16.9211 29.6316C16.9211 31.2737 18.2263 32.5789 19.8684 32.5789C21.5105 32.5789 22.8158 31.2737 22.8158 29.6316C22.8158 27.9895 21.5105 26.6842 19.8684 26.6842ZM19.8684 30.8947C19.1526 30.8947 18.6053 30.3474 18.6053 29.6316C18.6053 28.9158 19.1526 28.3684 19.8684 28.3684C20.5842 28.3684 21.1316 28.9158 21.1316 29.6316C21.1316 30.3474 20.5842 30.8947 19.8684 30.8947ZM19.9105 17.4632C18.2684 17.4632 16.9632 18.7684 16.9632 20.4105C16.9632 22.0526 18.2684 23.3579 19.9105 23.3579C21.5526 23.3579 22.8579 22.0526 22.8579 20.4105C22.8579 18.7684 21.5105 17.4632 19.9105 17.4632ZM19.9105 21.6737C19.1947 21.6737 18.6474 21.0842 18.6474 20.4105C18.6474 19.6947 19.2368 19.1474 19.9105 19.1474C20.5842 19.1474 21.1737 19.7368 21.1737 20.4105C21.1737 21.0842 20.5842 21.6737 19.9105 21.6737ZM29.0895 26.6421C27.4474 26.6421 26.1421 27.9474 26.1421 29.5895C26.1421 31.2316 27.4474 32.5368 29.0895 32.5368C30.7316 32.5368 32.0368 31.2316 32.0368 29.5895C32.0368 27.9474 30.7316 26.6421 29.0895 26.6421ZM29.0895 30.8526C28.4158 30.8526 27.8263 30.3053 27.8263 29.5895C27.8263 28.9158 28.4158 28.3263 29.0895 28.3263C29.8053 28.3263 30.3526 28.9158 30.3526 29.5895C30.3526 30.3053 29.8053 30.8526 29.0895 30.8526ZM29.1316 17.4211C27.4895 17.4211 26.1842 18.7263 26.1842 20.3684C26.1842 22.0105 27.4895 23.3158 29.1316 23.3158C30.7737 23.3158 32.0789 22.0105 32.0789 20.3684C32.0789 18.7263 30.7737 17.4211 29.1316 17.4211ZM29.1316 21.6316C28.4158 21.6316 27.8684 21.0842 27.8684 20.3684C27.8684 19.6526 28.4158 19.1053 29.1316 19.1053C29.8053 19.1053 30.3947 19.6526 30.3947 20.3684C30.3947 21.0842 29.8053 21.6316 29.1316 21.6316Z" fill="black" fill-opacity="0.2"/>
<path d="M24.5 9C15.6579 9 8.5 16.1579 8.5 25C8.5 33.8421 15.6579 41 24.5 41C33.3421 41 40.5 33.8421 40.5 25C40.5 16.1579 33.3421 9 24.5 9ZM24.5 39.3158C16.5842 39.3158 10.1842 32.9158 10.1842 25C10.1842 17.0842 16.5842 10.6842 24.5 10.6842C32.4158 10.6842 38.8158 17.0842 38.8158 25C38.8158 32.9158 32.4158 39.3158 24.5 39.3158ZM19.8684 26.6842C18.2263 26.6842 16.9211 27.9895 16.9211 29.6316C16.9211 31.2737 18.2263 32.5789 19.8684 32.5789C21.5105 32.5789 22.8158 31.2737 22.8158 29.6316C22.8158 27.9895 21.5105 26.6842 19.8684 26.6842ZM19.8684 30.8947C19.1526 30.8947 18.6053 30.3474 18.6053 29.6316C18.6053 28.9158 19.1526 28.3684 19.8684 28.3684C20.5842 28.3684 21.1316 28.9158 21.1316 29.6316C21.1316 30.3474 20.5842 30.8947 19.8684 30.8947ZM19.9105 17.4632C18.2684 17.4632 16.9632 18.7684 16.9632 20.4105C16.9632 22.0526 18.2684 23.3579 19.9105 23.3579C21.5526 23.3579 22.8579 22.0526 22.8579 20.4105C22.8579 18.7684 21.5105 17.4632 19.9105 17.4632ZM19.9105 21.6737C19.1947 21.6737 18.6474 21.0842 18.6474 20.4105C18.6474 19.6947 19.2368 19.1474 19.9105 19.1474C20.5842 19.1474 21.1737 19.7368 21.1737 20.4105C21.1737 21.0842 20.5842 21.6737 19.9105 21.6737ZM29.0895 26.6421C27.4474 26.6421 26.1421 27.9474 26.1421 29.5895C26.1421 31.2316 27.4474 32.5368 29.0895 32.5368C30.7316 32.5368 32.0368 31.2316 32.0368 29.5895C32.0368 27.9474 30.7316 26.6421 29.0895 26.6421ZM29.0895 30.8526C28.4158 30.8526 27.8263 30.3053 27.8263 29.5895C27.8263 28.9158 28.4158 28.3263 29.0895 28.3263C29.8053 28.3263 30.3526 28.9158 30.3526 29.5895C30.3526 30.3053 29.8053 30.8526 29.0895 30.8526ZM29.1316 17.4211C27.4895 17.4211 26.1842 18.7263 26.1842 20.3684C26.1842 22.0105 27.4895 23.3158 29.1316 23.3158C30.7737 23.3158 32.0789 22.0105 32.0789 20.3684C32.0789 18.7263 30.7737 17.4211 29.1316 17.4211ZM29.1316 21.6316C28.4158 21.6316 27.8684 21.0842 27.8684 20.3684C27.8684 19.6526 28.4158 19.1053 29.1316 19.1053C29.8053 19.1053 30.3947 19.6526 30.3947 20.3684C30.3947 21.0842 29.8053 21.6316 29.1316 21.6316Z" fill="black" fill-opacity="0.2"/>
<path d="M24.5 9C15.6579 9 8.5 16.1579 8.5 25C8.5 33.8421 15.6579 41 24.5 41C33.3421 41 40.5 33.8421 40.5 25C40.5 16.1579 33.3421 9 24.5 9ZM24.5 39.3158C16.5842 39.3158 10.1842 32.9158 10.1842 25C10.1842 17.0842 16.5842 10.6842 24.5 10.6842C32.4158 10.6842 38.8158 17.0842 38.8158 25C38.8158 32.9158 32.4158 39.3158 24.5 39.3158ZM19.8684 26.6842C18.2263 26.6842 16.9211 27.9895 16.9211 29.6316C16.9211 31.2737 18.2263 32.5789 19.8684 32.5789C21.5105 32.5789 22.8158 31.2737 22.8158 29.6316C22.8158 27.9895 21.5105 26.6842 19.8684 26.6842ZM19.8684 30.8947C19.1526 30.8947 18.6053 30.3474 18.6053 29.6316C18.6053 28.9158 19.1526 28.3684 19.8684 28.3684C20.5842 28.3684 21.1316 28.9158 21.1316 29.6316C21.1316 30.3474 20.5842 30.8947 19.8684 30.8947ZM19.9105 17.4632C18.2684 17.4632 16.9632 18.7684 16.9632 20.4105C16.9632 22.0526 18.2684 23.3579 19.9105 23.3579C21.5526 23.3579 22.8579 22.0526 22.8579 20.4105C22.8579 18.7684 21.5105 17.4632 19.9105 17.4632ZM19.9105 21.6737C19.1947 21.6737 18.6474 21.0842 18.6474 20.4105C18.6474 19.6947 19.2368 19.1474 19.9105 19.1474C20.5842 19.1474 21.1737 19.7368 21.1737 20.4105C21.1737 21.0842 20.5842 21.6737 19.9105 21.6737ZM29.0895 26.6421C27.4474 26.6421 26.1421 27.9474 26.1421 29.5895C26.1421 31.2316 27.4474 32.5368 29.0895 32.5368C30.7316 32.5368 32.0368 31.2316 32.0368 29.5895C32.0368 27.9474 30.7316 26.6421 29.0895 26.6421ZM29.0895 30.8526C28.4158 30.8526 27.8263 30.3053 27.8263 29.5895C27.8263 28.9158 28.4158 28.3263 29.0895 28.3263C29.8053 28.3263 30.3526 28.9158 30.3526 29.5895C30.3526 30.3053 29.8053 30.8526 29.0895 30.8526ZM29.1316 17.4211C27.4895 17.4211 26.1842 18.7263 26.1842 20.3684C26.1842 22.0105 27.4895 23.3158 29.1316 23.3158C30.7737 23.3158 32.0789 22.0105 32.0789 20.3684C32.0789 18.7263 30.7737 17.4211 29.1316 17.4211ZM29.1316 21.6316C28.4158 21.6316 27.8684 21.0842 27.8684 20.3684C27.8684 19.6526 28.4158 19.1053 29.1316 19.1053C29.8053 19.1053 30.3947 19.6526 30.3947 20.3684C30.3947 21.0842 29.8053 21.6316 29.1316 21.6316Z" fill="black" fill-opacity="0.2"/>
<path d="M24.5 9C15.6579 9 8.5 16.1579 8.5 25C8.5 33.8421 15.6579 41 24.5 41C33.3421 41 40.5 33.8421 40.5 25C40.5 16.1579 33.3421 9 24.5 9ZM24.5 39.3158C16.5842 39.3158 10.1842 32.9158 10.1842 25C10.1842 17.0842 16.5842 10.6842 24.5 10.6842C32.4158 10.6842 38.8158 17.0842 38.8158 25C38.8158 32.9158 32.4158 39.3158 24.5 39.3158ZM19.8684 26.6842C18.2263 26.6842 16.9211 27.9895 16.9211 29.6316C16.9211 31.2737 18.2263 32.5789 19.8684 32.5789C21.5105 32.5789 22.8158 31.2737 22.8158 29.6316C22.8158 27.9895 21.5105 26.6842 19.8684 26.6842ZM19.8684 30.8947C19.1526 30.8947 18.6053 30.3474 18.6053 29.6316C18.6053 28.9158 19.1526 28.3684 19.8684 28.3684C20.5842 28.3684 21.1316 28.9158 21.1316 29.6316C21.1316 30.3474 20.5842 30.8947 19.8684 30.8947ZM19.9105 17.4632C18.2684 17.4632 16.9632 18.7684 16.9632 20.4105C16.9632 22.0526 18.2684 23.3579 19.9105 23.3579C21.5526 23.3579 22.8579 22.0526 22.8579 20.4105C22.8579 18.7684 21.5105 17.4632 19.9105 17.4632ZM19.9105 21.6737C19.1947 21.6737 18.6474 21.0842 18.6474 20.4105C18.6474 19.6947 19.2368 19.1474 19.9105 19.1474C20.5842 19.1474 21.1737 19.7368 21.1737 20.4105C21.1737 21.0842 20.5842 21.6737 19.9105 21.6737ZM29.0895 26.6421C27.4474 26.6421 26.1421 27.9474 26.1421 29.5895C26.1421 31.2316 27.4474 32.5368 29.0895 32.5368C30.7316 32.5368 32.0368 31.2316 32.0368 29.5895C32.0368 27.9474 30.7316 26.6421 29.0895 26.6421ZM29.0895 30.8526C28.4158 30.8526 27.8263 30.3053 27.8263 29.5895C27.8263 28.9158 28.4158 28.3263 29.0895 28.3263C29.8053 28.3263 30.3526 28.9158 30.3526 29.5895C30.3526 30.3053 29.8053 30.8526 29.0895 30.8526ZM29.1316 17.4211C27.4895 17.4211 26.1842 18.7263 26.1842 20.3684C26.1842 22.0105 27.4895 23.3158 29.1316 23.3158C30.7737 23.3158 32.0789 22.0105 32.0789 20.3684C32.0789 18.7263 30.7737 17.4211 29.1316 17.4211ZM29.1316 21.6316C28.4158 21.6316 27.8684 21.0842 27.8684 20.3684C27.8684 19.6526 28.4158 19.1053 29.1316 19.1053C29.8053 19.1053 30.3947 19.6526 30.3947 20.3684C30.3947 21.0842 29.8053 21.6316 29.1316 21.6316Z" fill="black" fill-opacity="0.2"/>
<path d="M24.5 9C15.6579 9 8.5 16.1579 8.5 25C8.5 33.8421 15.6579 41 24.5 41C33.3421 41 40.5 33.8421 40.5 25C40.5 16.1579 33.3421 9 24.5 9ZM24.5 39.3158C16.5842 39.3158 10.1842 32.9158 10.1842 25C10.1842 17.0842 16.5842 10.6842 24.5 10.6842C32.4158 10.6842 38.8158 17.0842 38.8158 25C38.8158 32.9158 32.4158 39.3158 24.5 39.3158ZM19.8684 26.6842C18.2263 26.6842 16.9211 27.9895 16.9211 29.6316C16.9211 31.2737 18.2263 32.5789 19.8684 32.5789C21.5105 32.5789 22.8158 31.2737 22.8158 29.6316C22.8158 27.9895 21.5105 26.6842 19.8684 26.6842ZM19.8684 30.8947C19.1526 30.8947 18.6053 30.3474 18.6053 29.6316C18.6053 28.9158 19.1526 28.3684 19.8684 28.3684C20.5842 28.3684 21.1316 28.9158 21.1316 29.6316C21.1316 30.3474 20.5842 30.8947 19.8684 30.8947ZM19.9105 17.4632C18.2684 17.4632 16.9632 18.7684 16.9632 20.4105C16.9632 22.0526 18.2684 23.3579 19.9105 23.3579C21.5526 23.3579 22.8579 22.0526 22.8579 20.4105C22.8579 18.7684 21.5105 17.4632 19.9105 17.4632ZM19.9105 21.6737C19.1947 21.6737 18.6474 21.0842 18.6474 20.4105C18.6474 19.6947 19.2368 19.1474 19.9105 19.1474C20.5842 19.1474 21.1737 19.7368 21.1737 20.4105C21.1737 21.0842 20.5842 21.6737 19.9105 21.6737ZM29.0895 26.6421C27.4474 26.6421 26.1421 27.9474 26.1421 29.5895C26.1421 31.2316 27.4474 32.5368 29.0895 32.5368C30.7316 32.5368 32.0368 31.2316 32.0368 29.5895C32.0368 27.9474 30.7316 26.6421 29.0895 26.6421ZM29.0895 30.8526C28.4158 30.8526 27.8263 30.3053 27.8263 29.5895C27.8263 28.9158 28.4158 28.3263 29.0895 28.3263C29.8053 28.3263 30.3526 28.9158 30.3526 29.5895C30.3526 30.3053 29.8053 30.8526 29.0895 30.8526ZM29.1316 17.4211C27.4895 17.4211 26.1842 18.7263 26.1842 20.3684C26.1842 22.0105 27.4895 23.3158 29.1316 23.3158C30.7737 23.3158 32.0789 22.0105 32.0789 20.3684C32.0789 18.7263 30.7737 17.4211 29.1316 17.4211ZM29.1316 21.6316C28.4158 21.6316 27.8684 21.0842 27.8684 20.3684C27.8684 19.6526 28.4158 19.1053 29.1316 19.1053C29.8053 19.1053 30.3947 19.6526 30.3947 20.3684C30.3947 21.0842 29.8053 21.6316 29.1316 21.6316Z" fill="black" fill-opacity="0.2"/>
<path d="M24.5 9C15.6579 9 8.5 16.1579 8.5 25C8.5 33.8421 15.6579 41 24.5 41C33.3421 41 40.5 33.8421 40.5 25C40.5 16.1579 33.3421 9 24.5 9ZM24.5 39.3158C16.5842 39.3158 10.1842 32.9158 10.1842 25C10.1842 17.0842 16.5842 10.6842 24.5 10.6842C32.4158 10.6842 38.8158 17.0842 38.8158 25C38.8158 32.9158 32.4158 39.3158 24.5 39.3158ZM19.8684 26.6842C18.2263 26.6842 16.9211 27.9895 16.9211 29.6316C16.9211 31.2737 18.2263 32.5789 19.8684 32.5789C21.5105 32.5789 22.8158 31.2737 22.8158 29.6316C22.8158 27.9895 21.5105 26.6842 19.8684 26.6842ZM19.8684 30.8947C19.1526 30.8947 18.6053 30.3474 18.6053 29.6316C18.6053 28.9158 19.1526 28.3684 19.8684 28.3684C20.5842 28.3684 21.1316 28.9158 21.1316 29.6316C21.1316 30.3474 20.5842 30.8947 19.8684 30.8947ZM19.9105 17.4632C18.2684 17.4632 16.9632 18.7684 16.9632 20.4105C16.9632 22.0526 18.2684 23.3579 19.9105 23.3579C21.5526 23.3579 22.8579 22.0526 22.8579 20.4105C22.8579 18.7684 21.5105 17.4632 19.9105 17.4632ZM19.9105 21.6737C19.1947 21.6737 18.6474 21.0842 18.6474 20.4105C18.6474 19.6947 19.2368 19.1474 19.9105 19.1474C20.5842 19.1474 21.1737 19.7368 21.1737 20.4105C21.1737 21.0842 20.5842 21.6737 19.9105 21.6737ZM29.0895 26.6421C27.4474 26.6421 26.1421 27.9474 26.1421 29.5895C26.1421 31.2316 27.4474 32.5368 29.0895 32.5368C30.7316 32.5368 32.0368 31.2316 32.0368 29.5895C32.0368 27.9474 30.7316 26.6421 29.0895 26.6421ZM29.0895 30.8526C28.4158 30.8526 27.8263 30.3053 27.8263 29.5895C27.8263 28.9158 28.4158 28.3263 29.0895 28.3263C29.8053 28.3263 30.3526 28.9158 30.3526 29.5895C30.3526 30.3053 29.8053 30.8526 29.0895 30.8526ZM29.1316 17.4211C27.4895 17.4211 26.1842 18.7263 26.1842 20.3684C26.1842 22.0105 27.4895 23.3158 29.1316 23.3158C30.7737 23.3158 32.0789 22.0105 32.0789 20.3684C32.0789 18.7263 30.7737 17.4211 29.1316 17.4211ZM29.1316 21.6316C28.4158 21.6316 27.8684 21.0842 27.8684 20.3684C27.8684 19.6526 28.4158 19.1053 29.1316 19.1053C29.8053 19.1053 30.3947 19.6526 30.3947 20.3684C30.3947 21.0842 29.8053 21.6316 29.1316 21.6316Z" fill="black" fill-opacity="0.2"/>
<path d="M24.5 9C15.6579 9 8.5 16.1579 8.5 25C8.5 33.8421 15.6579 41 24.5 41C33.3421 41 40.5 33.8421 40.5 25C40.5 16.1579 33.3421 9 24.5 9ZM24.5 39.3158C16.5842 39.3158 10.1842 32.9158 10.1842 25C10.1842 17.0842 16.5842 10.6842 24.5 10.6842C32.4158 10.6842 38.8158 17.0842 38.8158 25C38.8158 32.9158 32.4158 39.3158 24.5 39.3158ZM19.8684 26.6842C18.2263 26.6842 16.9211 27.9895 16.9211 29.6316C16.9211 31.2737 18.2263 32.5789 19.8684 32.5789C21.5105 32.5789 22.8158 31.2737 22.8158 29.6316C22.8158 27.9895 21.5105 26.6842 19.8684 26.6842ZM19.8684 30.8947C19.1526 30.8947 18.6053 30.3474 18.6053 29.6316C18.6053 28.9158 19.1526 28.3684 19.8684 28.3684C20.5842 28.3684 21.1316 28.9158 21.1316 29.6316C21.1316 30.3474 20.5842 30.8947 19.8684 30.8947ZM19.9105 17.4632C18.2684 17.4632 16.9632 18.7684 16.9632 20.4105C16.9632 22.0526 18.2684 23.3579 19.9105 23.3579C21.5526 23.3579 22.8579 22.0526 22.8579 20.4105C22.8579 18.7684 21.5105 17.4632 19.9105 17.4632ZM19.9105 21.6737C19.1947 21.6737 18.6474 21.0842 18.6474 20.4105C18.6474 19.6947 19.2368 19.1474 19.9105 19.1474C20.5842 19.1474 21.1737 19.7368 21.1737 20.4105C21.1737 21.0842 20.5842 21.6737 19.9105 21.6737ZM29.0895 26.6421C27.4474 26.6421 26.1421 27.9474 26.1421 29.5895C26.1421 31.2316 27.4474 32.5368 29.0895 32.5368C30.7316 32.5368 32.0368 31.2316 32.0368 29.5895C32.0368 27.9474 30.7316 26.6421 29.0895 26.6421ZM29.0895 30.8526C28.4158 30.8526 27.8263 30.3053 27.8263 29.5895C27.8263 28.9158 28.4158 28.3263 29.0895 28.3263C29.8053 28.3263 30.3526 28.9158 30.3526 29.5895C30.3526 30.3053 29.8053 30.8526 29.0895 30.8526ZM29.1316 17.4211C27.4895 17.4211 26.1842 18.7263 26.1842 20.3684C26.1842 22.0105 27.4895 23.3158 29.1316 23.3158C30.7737 23.3158 32.0789 22.0105 32.0789 20.3684C32.0789 18.7263 30.7737 17.4211 29.1316 17.4211ZM29.1316 21.6316C28.4158 21.6316 27.8684 21.0842 27.8684 20.3684C27.8684 19.6526 28.4158 19.1053 29.1316 19.1053C29.8053 19.1053 30.3947 19.6526 30.3947 20.3684C30.3947 21.0842 29.8053 21.6316 29.1316 21.6316Z" fill="#4B61A1"/>
</svg>
