<svg width="24" height="24" viewBox="0 0 24 24" fill="none" xmlns="http://www.w3.org/2000/svg">
<path d="M18 8V6C18 4.4087 17.3679 2.88258 16.2426 1.75736C15.1174 0.632141 13.5913 0 12 0C10.4087 0 8.88258 0.632141 7.75736 1.75736C6.63214 2.88258 6 4.4087 6 6V8C5.20508 8.00237 4.4434 8.31921 3.8813 8.8813C3.31921 9.4434 3.00237 10.2051 3 11V18C3 19.5913 3.63214 21.1174 4.75736 22.2426C5.88258 23.3679 7.4087 24 9 24H15C16.5913 24 18.1174 23.3679 19.2426 22.2426C20.3679 21.1174 21 19.5913 21 18V11C20.9976 10.2051 20.6808 9.4434 20.1187 8.8813C19.5566 8.31921 18.7949 8.00237 18 8ZM8 6C8 4.93913 8.42143 3.92172 9.17157 3.17157C9.92172 2.42143 10.9391 2 12 2C13.0609 2 14.0783 2.42143 14.8284 3.17157C15.5786 3.92172 16 4.93913 16 6V8H8V6ZM13 18C13 18.2652 12.8946 18.5196 12.7071 18.7071C12.5196 18.8946 12.2652 19 12 19C11.7348 19 11.4804 18.8946 11.2929 18.7071C11.1054 18.5196 11 18.2652 11 18V14C11 13.7348 11.1054 13.4804 11.2929 13.2929C11.4804 13.1054 11.7348 13 12 13C12.2652 13 12.5196 13.1054 12.7071 13.2929C12.8946 13.4804 13 13.7348 13 14V18Z" fill="#D61128"/>
</svg>
