<svg width="20.3" height="18.3" viewBox="318.7 304.7 20.3 18.3" fill="none" xmlns="http://www.w3.org/2000/svg" xmlns:xlink="http://www.w3.org/1999/xlink">
<g clip-path="url(#clip0_1_37811)">
























































































<mask id="mask0_1_37811" style="mask-type:alpha" maskUnits="userSpaceOnUse" x="1" y="70" width="391" height="225">
<rect x="1" y="70" width="391" height="225" fill="#D9D9D9"></rect>
</mask>
<g mask="url(#mask0_1_37811)">










































































































<mask id="mask1_1_37811" style="mask-type:luminance" maskUnits="userSpaceOnUse" x="71" y="239" width="34" height="23">
<path d="M71.7207 239.578L71.7298 243.03L104.529 261.954V258.53L71.7207 239.578Z" fill="white"></path>
</mask>









































<mask id="mask2_1_37811" style="mask-type:luminance" maskUnits="userSpaceOnUse" x="78" y="224" width="11" height="13">
<path d="M82.4556 235.412C79.7399 233.426 77.8654 229.525 78.2677 226.696C78.6701 223.876 81.1938 223.199 83.9095 225.186C86.6252 227.172 88.4997 231.073 88.0974 233.902C87.6951 236.722 85.1714 237.399 82.4556 235.412Z" fill="white"></path>
</mask>













<mask id="mask3_1_37811" style="mask-type:luminance" maskUnits="userSpaceOnUse" x="26" y="193" width="11" height="14">
<path d="M30.3721 205.327C27.6564 203.341 25.7819 199.44 26.1842 196.611C26.5866 193.791 29.1103 193.114 31.826 195.101C34.5417 197.087 36.4162 200.988 36.0139 203.817C35.6116 206.637 33.0879 207.314 30.3721 205.327Z" fill="white"></path>
</mask>
















































































































<mask id="mask4_1_37811" style="mask-type:luminance" maskUnits="userSpaceOnUse" x="96" y="260" width="32" height="34">
<path d="M113.252 293.579L100.862 286.767L96.4824 268.428L103.596 262.258V261.076C105.407 260.719 107.601 261.168 109.96 262.532C116.032 266.039 120.979 274.315 121.281 281.319L127.206 284.744L113.252 293.588V293.579Z" fill="white"></path>
</mask>




























































<mask id="mask5_1_37811" style="mask-type:luminance" maskUnits="userSpaceOnUse" x="1" y="198" width="34" height="24">
<path d="M1.20312 198.717L1.21227 202.168L34.0205 221.093L34.0113 217.669L1.20312 198.717Z" fill="white"></path>
</mask>




















<path d="M344.138 315.752V320H342.848L-14 114H-5.21275L344.138 315.752Z" fill="#B5B5B5"></path>



</g>
<g filter="url(#filter0_d_1_37811)">





<g clip-path="url(#clip2_1_37811)">
<path d="M320 312.749H338C338.148 312.749 338.293 312.705 338.416 312.623C338.54 312.54 338.636 312.423 338.692 312.286C338.749 312.149 338.764 311.998 338.735 311.853C338.706 311.708 338.635 311.574 338.53 311.469L332.53 305.469C332.461 305.395 332.379 305.336 332.287 305.295C332.195 305.254 332.095 305.232 331.995 305.231C331.894 305.229 331.794 305.247 331.7 305.285C331.607 305.323 331.522 305.379 331.451 305.45C331.38 305.521 331.324 305.606 331.286 305.7C331.248 305.793 331.23 305.893 331.231 305.994C331.233 306.094 331.255 306.194 331.296 306.286C331.337 306.378 331.396 306.461 331.47 306.529L336.19 311.249H320C319.801 311.249 319.61 311.328 319.47 311.469C319.329 311.609 319.25 311.8 319.25 311.999C319.25 312.198 319.329 312.389 319.47 312.53C319.61 312.67 319.801 312.749 320 312.749ZM338 315.249H320C319.852 315.249 319.707 315.293 319.584 315.376C319.46 315.458 319.364 315.575 319.308 315.712C319.251 315.849 319.236 316 319.265 316.145C319.294 316.291 319.365 316.424 319.47 316.529L325.47 322.529C325.611 322.67 325.801 322.749 326 322.749C326.199 322.749 326.389 322.67 326.53 322.529C326.67 322.389 326.749 322.198 326.749 321.999C326.749 321.8 326.67 321.61 326.53 321.469L321.81 316.749H338C338.199 316.749 338.39 316.67 338.53 316.53C338.671 316.389 338.75 316.198 338.75 315.999C338.75 315.8 338.671 315.609 338.53 315.469C338.39 315.328 338.199 315.249 338 315.249Z" fill="#FF725E"></path>
</g>



</g>







































































<g clip-path="url(#clip9_1_37811)">
<mask id="path-1002-inside-1_1_37811" fill="white">
<path d="M23 607H371V667H23V607Z"></path>
</mask>







<mask id="path-1010-inside-2_1_37811" fill="white">
<path d="M23 676H371V736H23V676Z"></path>
</mask>







<mask id="path-1018-inside-3_1_37811" fill="white">
<path d="M23 745H371V805H23V745Z"></path>
</mask>







</g>








<g filter="url(#filter9_d_1_37811)">
<mask id="path-1034-inside-4_1_37811" fill="white">
<path d="M2 839H392V910H2V839Z"></path>
</mask>










</g>















































</g>
<defs>
<filter id="filter0_d_1_37811" x="30" y="278" width="334" height="78" filterUnits="userSpaceOnUse" color-interpolation-filters="sRGB">
<feFlood flood-opacity="0" result="BackgroundImageFix"></feFlood>
<feColorMatrix in="SourceAlpha" type="matrix" values="0 0 0 0 0 0 0 0 0 0 0 0 0 0 0 0 0 0 127 0" result="hardAlpha"></feColorMatrix>
<feOffset dy="4"></feOffset>
<feGaussianBlur stdDeviation="1.5"></feGaussianBlur>
<feComposite in2="hardAlpha" operator="out"></feComposite>
<feColorMatrix type="matrix" values="0 0 0 0 0 0 0 0 0 0 0 0 0 0 0 0 0 0 0.05 0"></feColorMatrix>
<feBlend mode="normal" in2="BackgroundImageFix" result="effect1_dropShadow_1_37811"></feBlend>
<feBlend mode="normal" in="SourceGraphic" in2="effect1_dropShadow_1_37811" result="shape"></feBlend>
</filter>













<filter id="filter9_d_1_37811" x="-8" y="827" width="410" height="91" filterUnits="userSpaceOnUse" color-interpolation-filters="sRGB">
<feFlood flood-opacity="0" result="BackgroundImageFix"></feFlood>
<feColorMatrix in="SourceAlpha" type="matrix" values="0 0 0 0 0 0 0 0 0 0 0 0 0 0 0 0 0 0 127 0" result="hardAlpha"></feColorMatrix>
<feOffset dy="-2"></feOffset>
<feGaussianBlur stdDeviation="5"></feGaussianBlur>
<feComposite in2="hardAlpha" operator="out"></feComposite>
<feColorMatrix type="matrix" values="0 0 0 0 0 0 0 0 0 0 0 0 0 0 0 0 0 0 0.04 0"></feColorMatrix>
<feBlend mode="normal" in2="BackgroundImageFix" result="effect1_dropShadow_1_37811"></feBlend>
<feBlend mode="normal" in="SourceGraphic" in2="effect1_dropShadow_1_37811" result="shape"></feBlend>
</filter>







<clipPath id="clip0_1_37811">
<rect width="393" height="1036" fill="white"></rect>
</clipPath>

<clipPath id="clip2_1_37811">
<rect width="24" height="24" fill="white" transform="translate(317 302)"></rect>
</clipPath>






<clipPath id="clip9_1_37811">
<rect x="23" y="607" width="348" height="198" rx="2" fill="white"></rect>
</clipPath>




</defs>
</svg>