<svg width="29" height="18.6" viewBox="264.4 304.4 29 18.6" fill="none" xmlns="http://www.w3.org/2000/svg" xmlns:xlink="http://www.w3.org/1999/xlink">
<g clip-path="url(#clip0_1_37811)">
























































































<mask id="mask0_1_37811" style="mask-type:alpha" maskUnits="userSpaceOnUse" x="1" y="70" width="391" height="225">
<rect x="1" y="70" width="391" height="225" fill="#D9D9D9"></rect>
</mask>
<g mask="url(#mask0_1_37811)">










































































































<mask id="mask1_1_37811" style="mask-type:luminance" maskUnits="userSpaceOnUse" x="71" y="239" width="34" height="23">
<path d="M71.7207 239.578L71.7298 243.03L104.529 261.954V258.53L71.7207 239.578Z" fill="white"></path>
</mask>









































<mask id="mask2_1_37811" style="mask-type:luminance" maskUnits="userSpaceOnUse" x="78" y="224" width="11" height="13">
<path d="M82.4556 235.412C79.7399 233.426 77.8654 229.525 78.2677 226.696C78.6701 223.876 81.1938 223.199 83.9095 225.186C86.6252 227.172 88.4997 231.073 88.0974 233.902C87.6951 236.722 85.1714 237.399 82.4556 235.412Z" fill="white"></path>
</mask>













<mask id="mask3_1_37811" style="mask-type:luminance" maskUnits="userSpaceOnUse" x="26" y="193" width="11" height="14">
<path d="M30.3721 205.327C27.6564 203.341 25.7819 199.44 26.1842 196.611C26.5866 193.791 29.1103 193.114 31.826 195.101C34.5417 197.087 36.4162 200.988 36.0139 203.817C35.6116 206.637 33.0879 207.314 30.3721 205.327Z" fill="white"></path>
</mask>
















































































































<mask id="mask4_1_37811" style="mask-type:luminance" maskUnits="userSpaceOnUse" x="96" y="260" width="32" height="34">
<path d="M113.252 293.579L100.862 286.767L96.4824 268.428L103.596 262.258V261.076C105.407 260.719 107.601 261.168 109.96 262.532C116.032 266.039 120.979 274.315 121.281 281.319L127.206 284.744L113.252 293.588V293.579Z" fill="white"></path>
</mask>




























































<mask id="mask5_1_37811" style="mask-type:luminance" maskUnits="userSpaceOnUse" x="1" y="198" width="34" height="24">
<path d="M1.20312 198.717L1.21227 202.168L34.0205 221.093L34.0113 217.669L1.20312 198.717Z" fill="white"></path>
</mask>




















<path d="M344.138 315.752V320H342.848L-14 114H-5.21275L344.138 315.752Z" fill="#B5B5B5"></path>



</g>
<g filter="url(#filter0_d_1_37811)">






<path d="M286.524 312.031H292.656V311.094H286.908C286.947 310.941 286.979 310.785 286.999 310.625H291.25V309.688H290.781V306.321C290.781 305.593 290.15 305 289.375 305H278.594C277.818 305 277.188 305.593 277.188 306.321V308.836C277.04 308.784 276.884 308.75 276.719 308.75L272.969 308.75C271.16 308.75 269.688 310.222 269.688 312.031V313.906H268.281C266.472 313.906 265 315.378 265 317.187V319.062C265 319.838 265.631 320.469 266.406 320.469H268.323C268.548 321.797 269.702 322.812 271.094 322.812C272.485 322.812 273.64 321.797 273.864 320.469H281.917C282.141 321.797 283.296 322.812 284.688 322.812C286.079 322.812 287.233 321.797 287.458 320.469H289.375C290.15 320.469 290.781 319.838 290.781 319.062V314.844V313.438H293.594V312.5H286.204C286.323 312.353 286.428 312.196 286.524 312.031ZM283.281 312.969C281.73 312.969 280.469 311.707 280.469 310.156C280.469 308.605 281.73 307.344 283.281 307.344C284.832 307.344 286.094 308.605 286.094 310.156C286.094 311.707 284.832 312.969 283.281 312.969ZM271.094 321.875C270.06 321.875 269.219 321.034 269.219 320C269.219 318.966 270.06 318.125 271.094 318.125C272.128 318.125 272.969 318.966 272.969 320C272.969 321.034 272.128 321.875 271.094 321.875ZM271.094 317.188C269.703 317.188 268.548 318.203 268.323 319.531H266.406C266.148 319.531 265.938 319.321 265.938 319.062V317.187C265.938 315.895 266.989 314.843 268.281 314.843H270.156C270.415 314.843 270.625 314.634 270.625 314.375V312.031C270.625 310.738 271.676 309.687 272.969 309.687L276.719 309.688C276.977 309.688 277.188 309.898 277.188 310.156V319.531H273.864C273.64 318.203 272.485 317.188 271.094 317.188ZM284.688 321.875C283.653 321.875 282.812 321.034 282.812 320C282.812 318.966 283.653 318.125 284.688 318.125C285.722 318.125 286.562 318.966 286.562 320C286.562 321.034 285.722 321.875 284.688 321.875ZM289.844 319.062C289.844 319.321 289.634 319.531 289.375 319.531H287.458C287.234 318.203 286.079 317.188 284.688 317.188C283.296 317.188 282.142 318.203 281.917 319.531H278.125V315.312H289.844V319.062ZM289.844 314.375H278.125V310.156V306.321C278.125 306.11 278.335 305.938 278.594 305.938H289.375C289.634 305.938 289.844 306.11 289.844 306.321V309.688H286.999C286.767 307.841 285.19 306.406 283.281 306.406C281.214 306.406 279.531 308.089 279.531 310.156C279.531 312.224 281.214 313.906 283.281 313.906C283.938 313.906 284.555 313.736 285.092 313.438H289.844V314.375Z" fill="#FF725E"></path>
<path d="M271.562 318.564C270.787 318.564 270.156 319.191 270.156 319.962C270.156 320.732 270.787 321.359 271.562 321.359C272.338 321.359 272.969 320.732 272.969 319.962C272.969 319.191 272.338 318.564 271.562 318.564ZM271.562 320.428C271.304 320.428 271.094 320.219 271.094 319.962C271.094 319.705 271.304 319.496 271.562 319.496C271.821 319.496 272.031 319.705 272.031 319.962C272.031 320.219 271.821 320.428 271.562 320.428ZM285.156 318.564C284.381 318.564 283.75 319.191 283.75 319.962C283.75 320.732 284.381 321.359 285.156 321.359C285.932 321.359 286.562 320.732 286.562 319.962C286.562 319.191 285.932 318.564 285.156 318.564ZM285.156 320.428C284.898 320.428 284.688 320.219 284.688 319.962C284.688 319.705 284.898 319.496 285.156 319.496C285.415 319.496 285.625 319.705 285.625 319.962C285.625 320.219 285.415 320.428 285.156 320.428ZM277.188 314.372V310.646C277.188 310.388 276.978 310.18 276.719 310.18H273.906C272.614 310.18 271.562 311.225 271.562 312.509V314.372C271.562 314.63 271.772 314.838 272.031 314.838H276.719C276.978 314.838 277.188 314.63 277.188 314.372ZM276.25 313.906H272.5V312.509C272.5 311.738 273.131 311.111 273.906 311.111H276.25V313.906Z" fill="#FF725E"></path>
<path d="M284.219 307.852H283.281V310.181C283.281 310.438 283.491 310.646 283.75 310.646H285.625V309.715H284.219V307.852Z" fill="#FF725E"></path>
</g>







































































<g clip-path="url(#clip9_1_37811)">
<mask id="path-1002-inside-1_1_37811" fill="white">
<path d="M23 607H371V667H23V607Z"></path>
</mask>







<mask id="path-1010-inside-2_1_37811" fill="white">
<path d="M23 676H371V736H23V676Z"></path>
</mask>







<mask id="path-1018-inside-3_1_37811" fill="white">
<path d="M23 745H371V805H23V745Z"></path>
</mask>







</g>








<g filter="url(#filter9_d_1_37811)">
<mask id="path-1034-inside-4_1_37811" fill="white">
<path d="M2 839H392V910H2V839Z"></path>
</mask>










</g>















































</g>
<defs>
<filter id="filter0_d_1_37811" x="30" y="278" width="334" height="78" filterUnits="userSpaceOnUse" color-interpolation-filters="sRGB">
<feFlood flood-opacity="0" result="BackgroundImageFix"></feFlood>
<feColorMatrix in="SourceAlpha" type="matrix" values="0 0 0 0 0 0 0 0 0 0 0 0 0 0 0 0 0 0 127 0" result="hardAlpha"></feColorMatrix>
<feOffset dy="4"></feOffset>
<feGaussianBlur stdDeviation="1.5"></feGaussianBlur>
<feComposite in2="hardAlpha" operator="out"></feComposite>
<feColorMatrix type="matrix" values="0 0 0 0 0 0 0 0 0 0 0 0 0 0 0 0 0 0 0.05 0"></feColorMatrix>
<feBlend mode="normal" in2="BackgroundImageFix" result="effect1_dropShadow_1_37811"></feBlend>
<feBlend mode="normal" in="SourceGraphic" in2="effect1_dropShadow_1_37811" result="shape"></feBlend>
</filter>













<filter id="filter9_d_1_37811" x="-8" y="827" width="410" height="91" filterUnits="userSpaceOnUse" color-interpolation-filters="sRGB">
<feFlood flood-opacity="0" result="BackgroundImageFix"></feFlood>
<feColorMatrix in="SourceAlpha" type="matrix" values="0 0 0 0 0 0 0 0 0 0 0 0 0 0 0 0 0 0 127 0" result="hardAlpha"></feColorMatrix>
<feOffset dy="-2"></feOffset>
<feGaussianBlur stdDeviation="5"></feGaussianBlur>
<feComposite in2="hardAlpha" operator="out"></feComposite>
<feColorMatrix type="matrix" values="0 0 0 0 0 0 0 0 0 0 0 0 0 0 0 0 0 0 0.04 0"></feColorMatrix>
<feBlend mode="normal" in2="BackgroundImageFix" result="effect1_dropShadow_1_37811"></feBlend>
<feBlend mode="normal" in="SourceGraphic" in2="effect1_dropShadow_1_37811" result="shape"></feBlend>
</filter>







<clipPath id="clip0_1_37811">
<rect width="393" height="1036" fill="white"></rect>
</clipPath>








<clipPath id="clip9_1_37811">
<rect x="23" y="607" width="348" height="198" rx="2" fill="white"></rect>
</clipPath>




</defs>
</svg>