<svg width="66" height="44" viewBox="164 376 66 44" fill="none" xmlns="http://www.w3.org/2000/svg" xmlns:xlink="http://www.w3.org/1999/xlink">
<g clip-path="url(#clip0_1_37811)">
<rect width="393" height="1036" fill="#FBFBFB"></rect>























































































<mask id="mask0_1_37811" style="mask-type:alpha" maskUnits="userSpaceOnUse" x="1" y="70" width="391" height="225">
<rect x="1" y="70" width="391" height="225" fill="#D9D9D9"></rect>
</mask>
<g mask="url(#mask0_1_37811)">










































































































<mask id="mask1_1_37811" style="mask-type:luminance" maskUnits="userSpaceOnUse" x="71" y="239" width="34" height="23">
<path d="M71.7207 239.578L71.7298 243.03L104.529 261.954V258.53L71.7207 239.578Z" fill="white"></path>
</mask>









































<mask id="mask2_1_37811" style="mask-type:luminance" maskUnits="userSpaceOnUse" x="78" y="224" width="11" height="13">
<path d="M82.4556 235.412C79.7399 233.426 77.8654 229.525 78.2677 226.696C78.6701 223.876 81.1938 223.199 83.9095 225.186C86.6252 227.172 88.4997 231.073 88.0974 233.902C87.6951 236.722 85.1714 237.399 82.4556 235.412Z" fill="white"></path>
</mask>













<mask id="mask3_1_37811" style="mask-type:luminance" maskUnits="userSpaceOnUse" x="26" y="193" width="11" height="14">
<path d="M30.3721 205.327C27.6564 203.341 25.7819 199.44 26.1842 196.611C26.5866 193.791 29.1103 193.114 31.826 195.101C34.5417 197.087 36.4162 200.988 36.0139 203.817C35.6116 206.637 33.0879 207.314 30.3721 205.327Z" fill="white"></path>
</mask>
















































































































<mask id="mask4_1_37811" style="mask-type:luminance" maskUnits="userSpaceOnUse" x="96" y="260" width="32" height="34">
<path d="M113.252 293.579L100.862 286.767L96.4824 268.428L103.596 262.258V261.076C105.407 260.719 107.601 261.168 109.96 262.532C116.032 266.039 120.979 274.315 121.281 281.319L127.206 284.744L113.252 293.588V293.579Z" fill="white"></path>
</mask>




























































<mask id="mask5_1_37811" style="mask-type:luminance" maskUnits="userSpaceOnUse" x="1" y="198" width="34" height="24">
<path d="M1.20312 198.717L1.21227 202.168L34.0205 221.093L34.0113 217.669L1.20312 198.717Z" fill="white"></path>
</mask>
























</g>



<g filter="url(#filter4_d_1_37811)">
<rect x="147" y="370" width="100" height="100" rx="15" fill="white"></rect>
</g>

<g clip-path="url(#clip3_1_37811)">
<g clip-path="url(#clip4_1_37811)">
<path d="M177.07 404.22L178.594 404.246C178.622 403.223 179.465 402.402 180.497 402.402C181.53 402.402 182.401 403.251 182.401 404.3C182.401 404.398 182.393 404.493 182.379 404.585L182.536 404.599L192.926 404.709H192.936C192.884 404.526 192.858 404.334 192.862 404.134C192.884 403.102 193.733 402.259 194.768 402.243C195.855 402.224 196.743 403.097 196.743 404.177C196.743 404.246 196.738 404.315 196.731 404.383L197.035 404.357H199.292L199.019 403.273L199.318 403.163L199.292 402.378C198.613 401.68 197.749 401.177 196.762 400.804L193.933 400.099L193.835 400.168C192.478 399.331 191.092 398.633 189.663 398.12L189.594 397.935C186.357 397.641 183.181 397.629 180.089 397.985L179.816 398.149L180.006 398.393L178.404 399.753L178.264 399.872C178.264 399.872 177.421 399.91 177.421 400.455L177.395 402.314L177.36 402.323L177.027 402.409L177.068 404.227L177.07 404.22Z" fill="#FF6F00"></path>
<path d="M177.764 401.848L177.778 400.647C177.814 400.317 177.932 400.239 178.224 400.234L179.629 400.249C179.629 400.249 179.071 401.647 177.766 401.848H177.764Z" fill="#F23503"></path>
<path d="M188.255 398.386C190.168 398.699 191.751 399.738 192.956 400.733C193.061 400.804 193.077 400.913 192.956 400.93L182.388 400.477C181.97 400.36 181.707 400.151 181.6 399.852L181.355 398.848C181.296 397.892 187.429 398.25 188.255 398.388V398.386Z" fill="#69E3F6"></path>
<path d="M192.605 404.387H192.557L185.271 404.304C185.209 404.304 183.792 404.271 183.147 403.682C182.52 403.113 181.692 402.13 181.407 401.622C181.132 401.133 181.127 399.894 181.127 399.842L180.944 398.691C180.94 398.596 180.973 398.511 181.046 398.435C181.609 397.86 184.412 397.875 186.033 397.936C187.158 397.979 188.368 398.112 188.38 398.114C190.803 398.461 193.381 400.694 193.407 400.715L193.421 400.727V400.746C193.423 400.798 193.421 401.048 193.421 401.335C193.421 401.672 193.419 402.054 193.421 402.135V402.154L193.409 402.168C193.404 402.173 192.951 402.643 192.787 403.077C192.571 403.647 192.597 404.33 192.6 404.337V404.385L192.605 404.387ZM184.606 398C183.204 398 181.512 398.09 181.11 398.499C181.053 398.556 181.027 398.617 181.032 398.684L181.215 399.837C181.215 399.856 181.22 401.112 181.483 401.579C181.765 402.08 182.587 403.051 183.206 403.616C183.826 404.181 185.257 404.214 185.271 404.214L192.51 404.294C192.507 404.128 192.512 403.554 192.704 403.046C192.861 402.631 193.255 402.204 193.333 402.12C193.331 402.009 193.333 401.651 193.333 401.335C193.333 401.086 193.333 400.848 193.333 400.768C193.12 400.585 190.668 398.53 188.368 398.2C188.335 398.195 187.139 398.064 186.028 398.022C185.663 398.007 185.155 397.993 184.604 397.993L184.606 398Z" fill="#CC4425"></path>
<path d="M186.709 400.672L186.382 398.251L185.817 398.225L186.002 400.631L186.709 400.672Z" fill="#263238"></path>
<path d="M186.784 404.282C186.784 404.27 186.687 403.034 186.566 402.016C186.447 401.009 186.364 400.767 186.364 400.765L185.982 397.99L186.07 397.979L186.449 400.743C186.449 400.743 186.533 400.981 186.654 402.006C186.775 403.027 186.87 404.266 186.872 404.277L186.784 404.285V404.282Z" fill="#CC4425"></path>
<path d="M178.295 399.84C178.295 399.84 179.231 400.097 179.598 399.582C179.966 399.067 179.883 398.492 179.883 398.492L178.295 399.84Z" fill="#69E3F6"></path>
<path d="M183.133 402.733L183.124 402.949L192.093 403.316L192.101 403.1L183.133 402.733Z" fill="#263238"></path>
<path d="M179.164 402.91C179.107 402.601 178.958 402.435 178.692 402.392L177.394 402.352V402.262L178.701 402.302C179.01 402.354 179.19 402.547 179.254 402.893L179.166 402.91H179.164Z" fill="#CC4425"></path>
<path d="M182.862 400.492L182.392 398.332L182.195 398.365L182.651 400.485L182.862 400.492Z" fill="#263238"></path>
<path d="M194.84 406.018C195.807 406.018 196.59 405.237 196.59 404.274C196.59 403.31 195.807 402.529 194.84 402.529C193.874 402.529 193.091 403.31 193.091 404.274C193.091 405.237 193.874 406.018 194.84 406.018Z" fill="#263238"></path>
<path d="M194.843 405.541C194.145 405.541 193.578 404.974 193.578 404.278C193.578 403.583 194.145 403.016 194.843 403.016C195.54 403.016 196.108 403.583 196.108 404.278C196.108 404.974 195.54 405.541 194.843 405.541ZM194.843 403.061C194.169 403.061 193.62 403.607 193.62 404.278C193.62 404.95 194.169 405.496 194.843 405.496C195.517 405.496 196.065 404.95 196.065 404.278C196.065 403.607 195.517 403.061 194.843 403.061Z" fill="#FBE9E7"></path>
<path d="M194.844 405.657C194.079 405.657 193.458 405.038 193.458 404.276C193.458 403.514 194.079 402.895 194.844 402.895C195.608 402.895 196.23 403.514 196.23 404.276C196.23 405.038 195.608 405.657 194.844 405.657ZM194.844 402.937C194.103 402.937 193.503 403.538 193.503 404.276C193.503 405.014 194.105 405.614 194.844 405.614C195.582 405.614 196.184 405.014 196.184 404.276C196.184 403.538 195.582 402.937 194.844 402.937Z" fill="#FBE9E7"></path>
<path d="M194.72 405.535H194.697C194.652 405.528 194.607 405.518 194.559 405.509L194.542 405.504V403.05L194.559 403.045C194.604 403.036 194.649 403.026 194.697 403.021H194.72V405.532V405.535ZM194.585 405.468C194.616 405.476 194.647 405.48 194.675 405.485V403.071C194.645 403.076 194.614 403.081 194.585 403.088V405.471V405.468Z" fill="#FBE9E7"></path>
<path d="M194.971 405.535V403.021H194.997C195.044 403.031 195.089 403.038 195.134 403.05L195.151 403.055V405.504L195.134 405.509C195.089 405.521 195.042 405.528 194.997 405.532H194.971V405.535ZM195.013 403.071V405.483C195.044 405.478 195.073 405.473 195.104 405.466V403.088C195.073 403.081 195.044 403.076 195.013 403.071Z" fill="#FBE9E7"></path>
<path d="M196.082 404.577H193.621L193.617 404.561C193.607 404.518 193.598 404.471 193.593 404.423V404.399H196.111V404.423C196.104 404.468 196.094 404.513 196.085 404.561L196.08 404.577H196.082ZM193.657 404.535H196.047C196.054 404.504 196.059 404.475 196.063 404.445H193.643C193.647 404.475 193.652 404.506 193.659 404.535H193.657Z" fill="#FBE9E7"></path>
<path d="M196.113 404.146H193.593V404.12C193.602 404.073 193.609 404.028 193.621 403.982L193.626 403.966H196.082L196.087 403.982C196.097 404.028 196.106 404.073 196.111 404.12V404.146H196.113ZM193.643 404.103H196.061C196.056 404.073 196.052 404.042 196.044 404.013H193.659C193.652 404.042 193.647 404.073 193.643 404.103Z" fill="#FBE9E7"></path>
<path d="M195.501 405.359L195.489 405.347L193.761 403.624L193.771 403.609C193.794 403.571 193.821 403.534 193.851 403.496L193.868 403.477L193.885 403.493L195.65 405.254L195.631 405.271C195.596 405.299 195.555 405.328 195.518 405.352L195.503 405.361L195.501 405.359ZM193.818 403.619L195.508 405.304C195.534 405.287 195.558 405.271 195.584 405.252L193.873 403.545C193.854 403.571 193.835 403.595 193.821 403.621L193.818 403.619Z" fill="#FBE9E7"></path>
<path d="M195.826 405.077L195.807 405.061L194.043 403.302L194.062 403.285C194.098 403.257 194.136 403.231 194.176 403.205L194.191 403.195L194.202 403.207L195.926 404.925L195.916 404.94C195.892 404.978 195.866 405.018 195.835 405.054L195.821 405.073L195.826 405.077ZM194.112 403.304L195.823 405.009C195.842 404.985 195.859 404.959 195.876 404.933L194.188 403.25C194.162 403.267 194.136 403.283 194.112 403.302V403.304Z" fill="#FBE9E7"></path>
<path d="M194.191 405.357L194.176 405.348C194.138 405.324 194.098 405.295 194.062 405.267L194.043 405.25L194.06 405.234L195.826 403.473L195.842 403.492C195.871 403.53 195.899 403.568 195.923 403.606L195.933 403.62L195.921 403.632L194.193 405.355L194.191 405.357ZM194.11 405.248C194.134 405.267 194.16 405.284 194.186 405.3L195.876 403.615C195.859 403.589 195.842 403.565 195.823 403.539L194.112 405.246L194.11 405.248Z" fill="#FBE9E7"></path>
<path d="M193.866 405.077L193.851 405.058C193.823 405.022 193.794 404.982 193.771 404.944L193.761 404.929L193.773 404.918L195.496 403.199L195.51 403.209C195.551 403.235 195.589 403.261 195.624 403.289L195.643 403.306L195.627 403.323L193.863 405.081L193.866 405.077ZM193.818 404.934C193.835 404.96 193.851 404.984 193.87 405.01L195.582 403.306C195.558 403.287 195.532 403.27 195.506 403.254L193.818 404.937V404.934Z" fill="#FBE9E7"></path>
<path d="M194.841 403.734C194.541 403.734 194.302 403.976 194.302 404.273C194.302 404.57 194.544 404.812 194.841 404.812C195.137 404.812 195.379 404.57 195.379 404.273C195.379 403.976 195.137 403.734 194.841 403.734Z" fill="#FBE9E7"></path>
<path d="M194.841 404.493C194.72 404.493 194.623 404.396 194.623 404.275C194.623 404.154 194.72 404.057 194.841 404.057C194.962 404.057 195.06 404.154 195.06 404.275C195.06 404.396 194.962 404.493 194.841 404.493ZM194.841 404.102C194.746 404.102 194.666 404.18 194.666 404.275C194.666 404.37 194.744 404.448 194.841 404.448C194.939 404.448 195.015 404.37 195.015 404.275C195.015 404.18 194.936 404.102 194.841 404.102Z" fill="#FBE9E7"></path>
<path d="M180.51 406.018C181.476 406.018 182.259 405.237 182.259 404.274C182.259 403.31 181.476 402.529 180.51 402.529C179.544 402.529 178.761 403.31 178.761 404.274C178.761 405.237 179.544 406.018 180.51 406.018Z" fill="#263238"></path>
<path d="M180.508 405.541C179.81 405.541 179.243 404.974 179.243 404.278C179.243 403.583 179.81 403.016 180.508 403.016C181.205 403.016 181.773 403.583 181.773 404.278C181.773 404.974 181.205 405.541 180.508 405.541ZM180.508 403.061C179.834 403.061 179.285 403.607 179.285 404.278C179.285 404.95 179.834 405.496 180.508 405.496C181.182 405.496 181.73 404.95 181.73 404.278C181.73 403.607 181.182 403.061 180.508 403.061Z" fill="#FBE9E7"></path>
<path d="M180.508 405.657C179.744 405.657 179.122 405.038 179.122 404.276C179.122 403.514 179.744 402.895 180.508 402.895C181.272 402.895 181.894 403.514 181.894 404.276C181.894 405.038 181.272 405.657 180.508 405.657ZM180.508 402.937C179.768 402.937 179.167 403.538 179.167 404.276C179.167 405.014 179.77 405.614 180.508 405.614C181.246 405.614 181.849 405.014 181.849 404.276C181.849 403.538 181.246 402.937 180.508 402.937Z" fill="#FBE9E7"></path>
<path d="M180.39 405.535H180.367C180.322 405.528 180.276 405.518 180.229 405.509L180.212 405.504V403.05L180.229 403.045C180.272 403.036 180.319 403.026 180.367 403.021H180.39V405.532V405.535ZM180.255 405.468C180.286 405.476 180.317 405.48 180.345 405.485V403.071C180.314 403.076 180.284 403.081 180.255 403.088V405.471V405.468Z" fill="#FBE9E7"></path>
<path d="M180.642 405.535V403.021H180.668C180.715 403.031 180.76 403.038 180.805 403.05L180.822 403.055V405.504L180.805 405.509C180.76 405.521 180.713 405.528 180.668 405.532H180.642V405.535ZM180.687 403.071V405.483C180.718 405.478 180.746 405.473 180.777 405.466V403.088C180.748 403.081 180.718 403.076 180.687 403.071Z" fill="#FBE9E7"></path>
<path d="M181.745 404.577H179.284L179.279 404.561C179.27 404.518 179.26 404.473 179.255 404.423V404.399H181.773V404.423C181.766 404.471 181.757 404.516 181.747 404.561L181.743 404.577H181.745ZM179.319 404.535H181.709C181.717 404.506 181.721 404.475 181.726 404.445H179.305C179.31 404.475 179.315 404.506 179.322 404.535H179.319Z" fill="#FBE9E7"></path>
<path d="M181.773 404.148H179.255V404.124C179.262 404.079 179.272 404.034 179.284 403.986L179.289 403.97H181.745L181.75 403.986C181.762 404.034 181.769 404.079 181.773 404.124V404.148ZM179.305 404.105H181.724C181.719 404.074 181.714 404.046 181.707 404.015H179.322C179.315 404.046 179.31 404.077 179.305 404.105Z" fill="#FBE9E7"></path>
<path d="M181.164 405.359L181.153 405.347L179.425 403.624L179.434 403.609C179.458 403.571 179.487 403.534 179.515 403.496L179.532 403.477L179.548 403.493L181.314 405.254L181.295 405.271C181.257 405.302 181.219 405.328 181.181 405.352L181.167 405.361L181.164 405.359ZM179.479 403.619L181.169 405.304C181.195 405.287 181.219 405.271 181.245 405.252L179.534 403.545C179.515 403.569 179.498 403.595 179.482 403.621L179.479 403.619Z" fill="#FBE9E7"></path>
<path d="M181.492 405.077L181.473 405.061L179.71 403.302L179.729 403.285C179.765 403.257 179.803 403.231 179.843 403.205L179.857 403.195L179.869 403.207L181.592 404.925L181.583 404.94C181.559 404.978 181.533 405.016 181.504 405.054L181.488 405.073L181.492 405.077ZM179.779 403.304L181.488 405.009C181.507 404.985 181.523 404.959 181.54 404.933L179.852 403.25C179.826 403.267 179.8 403.283 179.776 403.302L179.779 403.304Z" fill="#FBE9E7"></path>
<path d="M179.862 405.357L179.847 405.348C179.809 405.324 179.771 405.298 179.733 405.267L179.714 405.25L179.731 405.234L181.497 403.473L181.513 403.492C181.544 403.53 181.57 403.568 181.594 403.606L181.604 403.62L181.592 403.632L179.864 405.355L179.862 405.357ZM179.778 405.248C179.805 405.267 179.828 405.284 179.854 405.3L181.544 403.615C181.528 403.591 181.511 403.565 181.492 403.539L179.781 405.246L179.778 405.248Z" fill="#FBE9E7"></path>
<path d="M179.529 405.077L179.513 405.058C179.484 405.02 179.458 404.982 179.434 404.944L179.425 404.929L179.437 404.918L181.16 403.199L181.174 403.209C181.214 403.232 181.252 403.261 181.288 403.289L181.307 403.306L181.29 403.323L179.527 405.081L179.529 405.077ZM179.482 404.934C179.498 404.96 179.515 404.984 179.534 405.01L181.243 403.306C181.219 403.287 181.193 403.27 181.167 403.254L179.479 404.937L179.482 404.934Z" fill="#FBE9E7"></path>
<path d="M180.51 403.734C180.211 403.734 179.971 403.976 179.971 404.273C179.971 404.57 180.213 404.812 180.51 404.812C180.807 404.812 181.049 404.57 181.049 404.273C181.049 403.976 180.807 403.734 180.51 403.734Z" fill="#FBE9E7"></path>
<path d="M180.511 404.493C180.39 404.493 180.292 404.396 180.292 404.275C180.292 404.154 180.39 404.057 180.511 404.057C180.632 404.057 180.729 404.154 180.729 404.275C180.729 404.396 180.632 404.493 180.511 404.493ZM180.511 404.102C180.416 404.102 180.338 404.18 180.338 404.275C180.338 404.37 180.416 404.448 180.511 404.448C180.606 404.448 180.686 404.37 180.686 404.275C180.686 404.18 180.608 404.102 180.511 404.102Z" fill="#FBE9E7"></path>
<path d="M182.432 401.226C182.748 401.226 183.004 401.159 183.004 401.076C183.004 400.994 182.748 400.927 182.432 400.927C182.116 400.927 181.86 400.994 181.86 401.076C181.86 401.159 182.116 401.226 182.432 401.226Z" fill="#263238"></path>
<path d="M187.523 401.417C187.839 401.417 188.095 401.35 188.095 401.268C188.095 401.185 187.839 401.118 187.523 401.118C187.207 401.118 186.951 401.185 186.951 401.268C186.951 401.35 187.207 401.417 187.523 401.417Z" fill="#263238"></path>
<path d="M189.341 398.158L189.662 398.115C191.09 398.628 192.479 399.326 193.834 400.163L193.3 400.379C191.867 399.33 190.559 398.626 189.341 398.156V398.158Z" fill="#69E3F6"></path>
<path d="M197.011 400.901C197.848 401.243 198.589 401.689 199.194 402.278C199.163 402.283 198.069 402.413 197.682 402.105C197.288 401.794 196.607 401.319 196.472 401.129C196.401 401.03 196.707 400.951 197.013 400.901H197.011Z" fill="#F23503"></path>
<path d="M198.469 402.987H199.314L199.321 403.162L199.022 403.271L199.295 404.356H198.424L198.419 404.344C198.419 404.344 198.334 404.024 198.187 403.48C198.04 402.937 198.474 402.987 198.474 402.987H198.469Z" fill="#263238"></path>
<path d="M185.324 407.046H212.126L212.919 411.448L202.948 411.61L202.464 409.759H185.324V407.046Z" fill="#234B84"></path>
<path d="M189.533 387.577L199.15 390.577L199.093 390.762L189.474 387.765L189.533 387.577Z" fill="#FFC400"></path>
<path d="M187.386 386.221H187.035V392.047H187.386V386.221Z" fill="#263238"></path>
<path d="M200.746 393.269L200.466 393.323L201.376 398.045L201.655 397.991L200.746 393.269Z" fill="#FFC400"></path>
<path d="M200.493 390.712L199.756 390.854L200.666 395.575L201.402 395.433L200.493 390.712Z" fill="#FFC400"></path>
<path d="M186.907 386.255L187.18 385.732L202.459 390.51L202.426 390.868L203.245 391.165C203.712 391.367 203.449 391.896 203.048 391.815L202.068 391.521L201.512 391.718L198.05 390.705L197.886 390.019L190.865 387.733L190.507 388.289L189.299 387.897L189.169 387.375L189 387.085L186.907 386.255Z" fill="#FF6F00"></path>
<path d="M203.43 405.896L203.409 391.492C203.385 390.891 202.585 390.761 202.441 391.492L201.361 397.9V405.983H203.43V405.896Z" fill="#FFC400"></path>
<path d="M204.666 395.416H213.122C213.86 395.535 214.335 395.857 214.546 396.389L216.998 402.909V410.567C216.998 411.052 216.601 411.448 216.117 411.448H211.691C211.691 409.025 209.467 407.043 206.747 407.043H203.783V396.297C203.783 395.812 204.179 395.416 204.663 395.416H204.666Z" fill="#FF6F00"></path>
<path d="M206.483 404.773H206.051V403.109H206.483V404.773ZM206.063 404.761H206.471V403.121H206.063V404.761Z" fill="#0A0B0C"></path>
<path d="M202.262 407.089H202.924V410.063L214.767 409.899L214.489 410.461L202.924 410.48V411.627H202.262V410.48H196.613V411.627H195.953V410.48H183.004V410.063H184.808V407.751H185.47V410.063H195.953V407.089H196.613V410.063H202.262V407.089Z" fill="#263238"></path>
<path d="M217 408.898H215.678V409.015H217V408.898Z" fill="#CC4425"></path>
<path d="M203.167 398.061H201.053V407.309H203.167V398.061Z" fill="#263238"></path>
<path d="M176 405.984H199.805V401.053L201.053 399.973V405.984H203.168V407.748H176V405.984Z" fill="#F4511E"></path>
<path d="M202.953 391.821C202.832 391.821 202.734 391.724 202.734 391.603C202.734 391.482 202.832 391.385 202.953 391.385C203.074 391.385 203.171 391.482 203.171 391.603C203.171 391.724 203.074 391.821 202.953 391.821ZM202.953 391.397C202.839 391.397 202.746 391.489 202.746 391.603C202.746 391.717 202.839 391.81 202.953 391.81C203.067 391.81 203.159 391.717 203.159 391.603C203.159 391.489 203.067 391.397 202.953 391.397Z" fill="#0A0B0C"></path>
<path d="M182.682 384.571C182.583 384.571 182.5 384.49 182.5 384.388C182.5 384.286 182.58 384.205 182.682 384.205C182.784 384.205 182.865 384.286 182.865 384.388C182.865 384.49 182.784 384.571 182.682 384.571ZM182.682 384.219C182.59 384.219 182.511 384.295 182.511 384.39C182.511 384.485 182.587 384.561 182.682 384.561C182.777 384.561 182.853 384.485 182.853 384.39C182.853 384.295 182.777 384.219 182.682 384.219Z" fill="#0A0B0C"></path>
<path d="M192.471 392.01H180.707V392.715H192.471V392.01Z" fill="#263238"></path>
<path d="M207.269 415.582C209.342 415.582 211.022 413.902 211.022 411.829C211.022 409.757 209.342 408.077 207.269 408.077C205.197 408.077 203.517 409.757 203.517 411.829C203.517 413.902 205.197 415.582 207.269 415.582Z" fill="#263238"></path>
<g opacity="0.5">
<path d="M207.268 414.634C205.723 414.634 204.468 413.379 204.468 411.834C204.468 410.289 205.723 409.033 207.268 409.033C208.813 409.033 210.069 410.289 210.069 411.834C210.069 413.379 208.813 414.634 207.268 414.634ZM207.268 409.149C205.787 409.149 204.584 410.353 204.584 411.834C204.584 413.315 205.787 414.518 207.268 414.518C208.749 414.518 209.953 413.315 209.953 411.834C209.953 410.353 208.749 409.149 207.268 409.149Z" fill="#FBE9E7"></path>
</g>
<g opacity="0.5">
<path d="M207.27 413.075C206.584 413.075 206.026 412.517 206.026 411.832C206.026 411.146 206.584 410.588 207.27 410.588C207.956 410.588 208.514 411.146 208.514 411.832C208.514 412.517 207.956 413.075 207.27 413.075ZM207.27 410.704C206.648 410.704 206.143 411.21 206.143 411.832C206.143 412.453 206.648 412.959 207.27 412.959C207.892 412.959 208.397 412.453 208.397 411.832C208.397 411.21 207.892 410.704 207.27 410.704Z" fill="#FBE9E7"></path>
</g>
<g opacity="0.5">
<path d="M207.266 412.209C207.055 412.209 206.884 412.038 206.884 411.826C206.884 411.615 207.055 411.444 207.266 411.444C207.478 411.444 207.648 411.615 207.648 411.826C207.648 412.038 207.478 412.209 207.266 412.209ZM207.266 411.563C207.122 411.563 207.003 411.682 207.003 411.826C207.003 411.971 207.122 412.09 207.266 412.09C207.411 412.09 207.53 411.971 207.53 411.826C207.53 411.682 207.411 411.563 207.266 411.563Z" fill="#FBE9E7"></path>
</g>
<path d="M195.856 411.051H183.963V411.623H195.856V411.051Z" fill="#263238"></path>
<path d="M201.562 408.543H194.99C194.64 408.543 194.356 408.827 194.356 409.177V411.346C194.356 411.696 194.64 411.98 194.99 411.98H201.562C201.912 411.98 202.196 411.696 202.196 411.346V409.177C202.196 408.827 201.912 408.543 201.562 408.543Z" fill="#FFC400"></path>
<path d="M178.957 405.277L179.07 405.125L180.309 405.645V404.594H180.544V405.652L181.821 405.173L181.926 405.327L180.48 405.871L180.426 405.792L180.369 405.868L178.957 405.277Z" fill="#F23503"></path>
<path d="M193.316 405.277L193.433 405.125L194.672 405.645V404.594H194.904V405.652L196.181 405.173L196.288 405.327L194.84 405.871L194.788 405.792L194.731 405.868L193.316 405.277Z" fill="#F23503"></path>
<path d="M182.686 392.708L180.39 404.585L180.479 404.602L182.774 392.725L182.686 392.708Z" fill="#263238"></path>
<path d="M191.536 392.709L191.451 392.732L194.744 404.607L194.829 404.583L191.536 392.709Z" fill="#263238"></path>
<path d="M213.958 397.218C213.617 396.473 213.066 396.167 212.373 396.162L207.396 396.117C206.516 396.117 206.046 396.468 205.986 397.173L206.053 406.353H207.346C209.945 406.353 212.088 408.202 212.252 410.516H212.259L215.674 410.519V402.634L213.956 397.216L213.958 397.218Z" fill="#F4511E"></path>
<path d="M207.66 396.78L212.241 396.868C212.803 396.925 213.249 397.174 213.517 397.706L215.015 402.199C215.217 403.195 214.799 403.556 213.869 403.388L207.219 401.802C206.734 401.612 206.485 401.171 206.471 400.48L206.461 397.599C206.568 397.091 206.967 396.818 207.66 396.78Z" fill="#69E3F6"></path>
<path d="M214.827 403.074C214.796 403.074 214.765 403.058 214.748 403.027L211.628 397.082C211.604 397.039 211.623 396.987 211.666 396.963C211.708 396.939 211.76 396.956 211.784 397.001L214.905 402.946C214.929 402.989 214.91 403.041 214.867 403.065C214.855 403.072 214.841 403.074 214.827 403.074Z" fill="white"></path>
<path d="M186.481 406.906C189.237 406.844 191.527 408.997 191.653 411.735L190.95 411.752C190.834 409.402 188.864 407.558 186.498 407.61C184.132 407.663 182.247 409.592 182.235 411.947L181.533 411.963C181.535 409.222 183.728 406.97 186.484 406.908L186.481 406.906Z" fill="#263238"></path>
<path d="M212.242 402.933C212.211 402.933 212.18 402.916 212.163 402.885L209.073 396.995C209.05 396.952 209.069 396.9 209.111 396.876C209.154 396.855 209.206 396.869 209.23 396.914L212.32 402.805C212.344 402.847 212.325 402.9 212.282 402.923C212.27 402.93 212.256 402.933 212.242 402.933Z" fill="white"></path>
<path d="M209.261 402.105C209.23 402.105 209.199 402.089 209.183 402.058L206.703 397.333C206.679 397.29 206.698 397.238 206.741 397.214C206.783 397.192 206.836 397.207 206.859 397.252L209.34 401.977C209.363 402.02 209.344 402.072 209.302 402.096C209.29 402.103 209.275 402.105 209.261 402.105Z" fill="white"></path>
<path d="M214.311 400.743H213.915V403.959H214.311V400.743Z" fill="#263238"></path>
<path d="M214.309 402.087L215.41 403.385V404.356H215.03V403.528L214.309 402.721V402.087Z" fill="#263238"></path>
<path d="M212.21 411.447H211.691C211.691 409.024 209.467 407.042 206.747 407.042H203.783V406.356H207.345C210.048 406.356 212.26 408.357 212.26 410.802C212.26 411.02 212.241 411.236 212.208 411.447H212.21Z" fill="#263238"></path>
<path d="M191.067 400.865C191.044 400.865 191.02 400.851 191.008 400.83L190.089 399.078C190.073 399.045 190.085 399.005 190.118 398.988C190.149 398.971 190.192 398.983 190.208 399.016L191.127 400.768C191.143 400.801 191.131 400.842 191.098 400.858C191.089 400.863 191.077 400.865 191.067 400.865Z" fill="white"></path>
<path d="M189.092 400.737C189.068 400.737 189.044 400.723 189.033 400.702L187.881 398.509C187.865 398.476 187.877 398.435 187.91 398.419C187.943 398.402 187.984 398.414 188 398.447L189.151 400.64C189.168 400.673 189.156 400.714 189.123 400.73C189.113 400.735 189.101 400.737 189.092 400.737Z" fill="white"></path>
<path d="M187.143 400.665C187.119 400.665 187.096 400.651 187.084 400.63L186.645 399.792C186.628 399.759 186.64 399.718 186.673 399.702C186.706 399.685 186.747 399.697 186.763 399.73L187.202 400.568C187.219 400.601 187.207 400.642 187.174 400.658C187.164 400.663 187.153 400.665 187.143 400.665Z" fill="white"></path>
<path d="M185.23 400.506C185.206 400.506 185.182 400.491 185.17 400.47L184.069 398.372C184.052 398.339 184.064 398.298 184.097 398.282C184.128 398.265 184.171 398.277 184.188 398.31L185.289 400.408C185.305 400.442 185.294 400.482 185.26 400.499C185.251 400.503 185.239 400.506 185.23 400.506Z" fill="white"></path>
<path d="M183.279 400.478C183.256 400.478 183.232 400.464 183.22 400.442L182.781 399.604C182.764 399.571 182.776 399.531 182.809 399.514C182.843 399.498 182.883 399.51 182.9 399.543L183.339 400.381C183.355 400.414 183.343 400.454 183.31 400.471C183.301 400.475 183.289 400.478 183.279 400.478Z" fill="white"></path>
<path d="M186.595 415.582C188.667 415.582 190.347 413.902 190.347 411.829C190.347 409.757 188.667 408.077 186.595 408.077C184.522 408.077 182.842 409.757 182.842 411.829C182.842 413.902 184.522 415.582 186.595 415.582Z" fill="#263238"></path>
<g opacity="0.4">
<path d="M186.597 414.12C185.335 414.12 184.307 413.093 184.307 411.832C184.307 410.572 185.335 409.542 186.597 409.542C187.86 409.542 188.885 410.57 188.885 411.832C188.885 413.095 187.858 414.12 186.597 414.12ZM186.597 409.654C185.396 409.654 184.419 410.631 184.419 411.832C184.419 413.033 185.396 414.009 186.597 414.009C187.798 414.009 188.774 413.031 188.774 411.832C188.774 410.634 187.796 409.654 186.597 409.654Z" fill="#FBE9E7"></path>
</g>
<g opacity="0.5">
<path d="M207.267 414.12C206.005 414.12 204.977 413.093 204.977 411.832C204.977 410.572 206.005 409.542 207.267 409.542C208.53 409.542 209.555 410.57 209.555 411.832C209.555 413.095 208.528 414.12 207.267 414.12ZM207.267 409.654C206.066 409.654 205.089 410.631 205.089 411.832C205.089 413.033 206.066 414.009 207.267 414.009C208.468 414.009 209.444 413.031 209.444 411.832C209.444 410.634 208.466 409.654 207.267 409.654Z" fill="#FBE9E7"></path>
</g>
<g opacity="0.4">
<path d="M186.596 414.635C185.051 414.635 183.793 413.377 183.793 411.832C183.793 410.287 185.051 409.029 186.596 409.029C188.141 409.029 189.399 410.287 189.399 411.832C189.399 413.377 188.141 414.635 186.596 414.635ZM186.596 409.148C185.115 409.148 183.91 410.354 183.91 411.835C183.91 413.316 185.115 414.521 186.596 414.521C188.077 414.521 189.283 413.316 189.283 411.835C189.283 410.354 188.077 409.148 186.596 409.148Z" fill="#FBE9E7"></path>
</g>
<g opacity="0.4">
<path d="M186.591 413.075C185.905 413.075 185.348 412.517 185.348 411.832C185.348 411.146 185.905 410.588 186.591 410.588C187.277 410.588 187.835 411.146 187.835 411.832C187.835 412.517 187.277 413.075 186.591 413.075ZM186.591 410.704C185.969 410.704 185.464 411.21 185.464 411.832C185.464 412.453 185.969 412.959 186.591 412.959C187.213 412.959 187.719 412.453 187.719 411.832C187.719 411.21 187.213 410.704 186.591 410.704Z" fill="#FBE9E7"></path>
</g>
<g opacity="0.4">
<path d="M186.596 412.209C186.385 412.209 186.214 412.038 186.214 411.826C186.214 411.615 186.385 411.444 186.596 411.444C186.808 411.444 186.979 411.615 186.979 411.826C186.979 412.038 186.808 412.209 186.596 412.209ZM186.596 411.563C186.452 411.563 186.333 411.682 186.333 411.826C186.333 411.971 186.452 412.09 186.596 412.09C186.741 412.09 186.86 411.971 186.86 411.826C186.86 411.682 186.741 411.563 186.596 411.563Z" fill="#FBE9E7"></path>
</g>
</g>
</g>


































































<g clip-path="url(#clip9_1_37811)">
<mask id="path-1002-inside-1_1_37811" fill="white">
<path d="M23 607H371V667H23V607Z"></path>
</mask>







<mask id="path-1010-inside-2_1_37811" fill="white">
<path d="M23 676H371V736H23V676Z"></path>
</mask>







<mask id="path-1018-inside-3_1_37811" fill="white">
<path d="M23 745H371V805H23V745Z"></path>
</mask>







</g>








<g filter="url(#filter9_d_1_37811)">
<mask id="path-1034-inside-4_1_37811" fill="white">
<path d="M2 839H392V910H2V839Z"></path>
</mask>










</g>















































</g>
<defs>




<filter id="filter4_d_1_37811" x="117" y="345" width="160" height="160" filterUnits="userSpaceOnUse" color-interpolation-filters="sRGB">
<feFlood flood-opacity="0" result="BackgroundImageFix"></feFlood>
<feColorMatrix in="SourceAlpha" type="matrix" values="0 0 0 0 0 0 0 0 0 0 0 0 0 0 0 0 0 0 127 0" result="hardAlpha"></feColorMatrix>
<feOffset dy="5"></feOffset>
<feGaussianBlur stdDeviation="15"></feGaussianBlur>
<feColorMatrix type="matrix" values="0 0 0 0 0 0 0 0 0 0 0 0 0 0 0 0 0 0 0.05 0"></feColorMatrix>
<feBlend mode="normal" in2="BackgroundImageFix" result="effect1_dropShadow_1_37811"></feBlend>
<feBlend mode="normal" in="SourceGraphic" in2="effect1_dropShadow_1_37811" result="shape"></feBlend>
</filter>









<filter id="filter9_d_1_37811" x="-8" y="827" width="410" height="91" filterUnits="userSpaceOnUse" color-interpolation-filters="sRGB">
<feFlood flood-opacity="0" result="BackgroundImageFix"></feFlood>
<feColorMatrix in="SourceAlpha" type="matrix" values="0 0 0 0 0 0 0 0 0 0 0 0 0 0 0 0 0 0 127 0" result="hardAlpha"></feColorMatrix>
<feOffset dy="-2"></feOffset>
<feGaussianBlur stdDeviation="5"></feGaussianBlur>
<feComposite in2="hardAlpha" operator="out"></feComposite>
<feColorMatrix type="matrix" values="0 0 0 0 0 0 0 0 0 0 0 0 0 0 0 0 0 0 0.04 0"></feColorMatrix>
<feBlend mode="normal" in2="BackgroundImageFix" result="effect1_dropShadow_1_37811"></feBlend>
<feBlend mode="normal" in="SourceGraphic" in2="effect1_dropShadow_1_37811" result="shape"></feBlend>
</filter>







<clipPath id="clip0_1_37811">
<rect width="393" height="1036" fill="white"></rect>
</clipPath>


<clipPath id="clip3_1_37811">
<rect width="44" height="44" fill="white" transform="translate(175 378)"></rect>
</clipPath>
<clipPath id="clip4_1_37811">
<rect width="41" height="41" fill="white" transform="translate(176 380)"></rect>
</clipPath>




<clipPath id="clip9_1_37811">
<rect x="23" y="607" width="348" height="198" rx="2" fill="white"></rect>
</clipPath>




</defs>
</svg>