<svg width="50" height="54" viewBox="56 488 50 54" fill="none" xmlns="http://www.w3.org/2000/svg" xmlns:xlink="http://www.w3.org/1999/xlink">
<g clip-path="url(#clip0_1_37811)">
<rect width="393" height="1036" fill="#FBFBFB"></rect>























































































<mask id="mask0_1_37811" style="mask-type:alpha" maskUnits="userSpaceOnUse" x="1" y="70" width="391" height="225">
<rect x="1" y="70" width="391" height="225" fill="#D9D9D9"></rect>
</mask>
<g mask="url(#mask0_1_37811)">










































































































<mask id="mask1_1_37811" style="mask-type:luminance" maskUnits="userSpaceOnUse" x="71" y="239" width="34" height="23">
<path d="M71.7207 239.578L71.7298 243.03L104.529 261.954V258.53L71.7207 239.578Z" fill="white"></path>
</mask>









































<mask id="mask2_1_37811" style="mask-type:luminance" maskUnits="userSpaceOnUse" x="78" y="224" width="11" height="13">
<path d="M82.4556 235.412C79.7399 233.426 77.8654 229.525 78.2677 226.696C78.6701 223.876 81.1938 223.199 83.9095 225.186C86.6252 227.172 88.4997 231.073 88.0974 233.902C87.6951 236.722 85.1714 237.399 82.4556 235.412Z" fill="white"></path>
</mask>













<mask id="mask3_1_37811" style="mask-type:luminance" maskUnits="userSpaceOnUse" x="26" y="193" width="11" height="14">
<path d="M30.3721 205.327C27.6564 203.341 25.7819 199.44 26.1842 196.611C26.5866 193.791 29.1103 193.114 31.826 195.101C34.5417 197.087 36.4162 200.988 36.0139 203.817C35.6116 206.637 33.0879 207.314 30.3721 205.327Z" fill="white"></path>
</mask>
















































































































<mask id="mask4_1_37811" style="mask-type:luminance" maskUnits="userSpaceOnUse" x="96" y="260" width="32" height="34">
<path d="M113.252 293.579L100.862 286.767L96.4824 268.428L103.596 262.258V261.076C105.407 260.719 107.601 261.168 109.96 262.532C116.032 266.039 120.979 274.315 121.281 281.319L127.206 284.744L113.252 293.588V293.579Z" fill="white"></path>
</mask>




























































<mask id="mask5_1_37811" style="mask-type:luminance" maskUnits="userSpaceOnUse" x="1" y="198" width="34" height="24">
<path d="M1.20312 198.717L1.21227 202.168L34.0205 221.093L34.0113 217.669L1.20312 198.717Z" fill="white"></path>
</mask>
























</g>









<g filter="url(#filter6_d_1_37811)">
<rect x="31" y="486" width="100" height="100" rx="15" fill="white"></rect>
</g>

<g clip-path="url(#clip6_1_37811)">
<path d="M92.3146 537H68.3481C67.1156 537 66.1502 535.948 66.2663 534.729L69.4443 501.684C69.588 500.188 70.8555 499.046 72.3717 499.046H95.0614C96.7951 499.046 98.1528 500.526 97.9889 502.237L94.8662 534.702C94.7409 536.006 93.6374 537.002 92.3164 537.002L92.3146 537Z" fill="#72B6FF"></path>
<path d="M91.8209 536.609H67.8545C66.622 536.609 65.6566 535.557 65.7727 534.338L68.9506 501.291C69.0943 499.795 70.3618 498.653 71.878 498.653H94.5678C96.3014 498.653 97.6592 500.133 97.4952 501.845L94.3725 534.309C94.2472 535.613 93.1437 536.609 91.8228 536.609H91.8209Z" fill="#458DDC"></path>
<path d="M89.61 532.956H65.6435C64.411 532.956 63.4457 531.903 63.5617 530.685L66.7397 497.638C66.8834 496.142 68.1509 495 69.6671 495H92.3569C94.0905 495 95.4482 496.48 95.2843 498.191L92.1616 530.656C92.0363 531.96 90.9328 532.956 89.6118 532.956H89.61Z" fill="#B6D7FF"></path>
<path d="M89.0577 532.956H65.0913C63.8588 532.956 62.8934 531.903 63.0095 530.685L66.1874 497.638C66.3311 496.142 67.5986 495 69.1149 495H91.8046C93.5382 495 94.896 496.48 94.732 498.191L91.6093 530.656C91.484 531.96 90.3805 532.956 89.0596 532.956H89.0577Z" fill="#E7F2FF"></path>
<path d="M68.7259 510.312L68.9747 508.487C69.0097 508.229 69.1257 508.014 69.3247 507.838C69.5218 507.665 69.7503 507.577 70.0063 507.577H76.541L71.5078 503.147L71.2775 504.859C71.2425 505.115 71.1283 505.33 70.9293 505.504C70.7322 505.677 70.5056 505.763 70.2495 505.763C69.9934 505.763 69.7908 505.675 69.6397 505.502C69.4887 505.328 69.4315 505.115 69.4665 504.859L69.9382 501.397C69.9842 501.054 70.1666 500.796 70.4835 500.626C70.8004 500.457 71.097 500.451 71.3733 500.615L80.2071 505.809L80.8796 500.369C80.9109 500.115 81.0233 499.903 81.2167 499.733C81.4102 499.563 81.6349 499.477 81.8892 499.476H84.6545C84.9234 499.476 85.1721 499.532 85.3987 499.644C85.6253 499.755 85.8096 499.916 85.9496 500.122L88.9986 504.362C89.1147 504.528 89.2013 504.707 89.2528 504.903C89.3063 505.098 89.321 505.301 89.2971 505.513L88.7536 510.31C88.7241 510.569 88.6117 510.787 88.4183 510.962C88.2248 511.137 87.9982 511.225 87.7385 511.225H86.3715C86.2831 511.989 85.9404 512.641 85.3453 513.176C84.7503 513.711 84.0704 513.982 83.3077 513.982C82.545 513.982 81.9297 513.713 81.4618 513.176C80.9938 512.639 80.8077 511.989 80.8999 511.225H75.887C75.7893 511.989 75.4393 512.641 74.8387 513.176C74.2381 513.711 73.5528 513.982 72.7919 513.982C72.031 513.982 71.4175 513.713 70.957 513.176C70.4964 512.639 70.3177 511.989 70.419 511.225H69.5071C69.2492 511.225 69.0447 511.137 68.8936 510.962C68.7425 510.787 68.6854 510.569 68.7204 510.31L68.7259 510.312ZM72.978 512.604C73.3741 512.604 73.7186 512.475 74.0097 512.213C74.3026 511.954 74.4739 511.625 74.5255 511.227C74.5771 510.829 74.4905 510.502 74.2657 510.242C74.041 509.983 73.7315 509.853 73.3372 509.853C72.943 509.853 72.6003 509.983 72.3074 510.242C72.0144 510.502 71.8431 510.829 71.7897 511.227C71.7363 511.625 71.8228 511.952 72.0476 512.213C72.2724 512.473 72.5819 512.604 72.978 512.604ZM83.4791 512.604C83.8752 512.604 84.2178 512.475 84.5071 512.213C84.7963 511.954 84.964 511.625 85.01 511.227C85.0561 510.829 84.9658 510.502 84.7392 510.242C84.5126 509.983 84.2013 509.853 83.807 509.853C83.4127 509.853 83.0701 509.983 82.7827 510.242C82.4934 510.502 82.3258 510.829 82.2779 511.227C82.23 511.625 82.3203 511.952 82.5469 512.213C82.7735 512.473 83.0867 512.604 83.4809 512.604H83.4791ZM82.1379 504.861H87.0237L84.4223 501.264H82.5745L82.1379 504.861Z" fill="#FEC60E"></path>
<path d="M88.9175 508.914H68.888C68.6964 508.914 68.5619 508.759 68.5895 508.567C68.6153 508.375 68.7922 508.22 68.9838 508.22H88.9967L88.9175 508.914Z" fill="#FFDB66"></path>
<path d="M88.2862 518.373H68.7578L69.4947 515.633H89.0231L88.2862 518.373Z" fill="#B6D7FF"></path>
<path d="M87.5284 521.74H68L68.7369 519H88.2653L87.5284 521.74Z" fill="#B6D7FF"></path>
<path d="M86.2381 526H79L79.658 524H87L86.2381 526Z" fill="#B6D7FF"></path>
<path d="M85.2381 529H78L78.658 527H86L85.2381 529Z" fill="#B6D7FF"></path>
<path d="M69.4169 529.7H66.4692L67.3904 523.854H70.3381L69.4169 529.7Z" fill="#6CA8FF"></path>
<path d="M76.6015 529.7H73.6538L74.575 523.854H77.5226L76.6015 529.7Z" fill="#6CA8FF"></path>
<path d="M72.9169 529.7H69.9692L70.7062 525.682H73.6538L72.9169 529.7Z" fill="#B6D7FF"></path>
</g>




























































<g clip-path="url(#clip9_1_37811)">
<mask id="path-1002-inside-1_1_37811" fill="white">
<path d="M23 607H371V667H23V607Z"></path>
</mask>







<mask id="path-1010-inside-2_1_37811" fill="white">
<path d="M23 676H371V736H23V676Z"></path>
</mask>







<mask id="path-1018-inside-3_1_37811" fill="white">
<path d="M23 745H371V805H23V745Z"></path>
</mask>







</g>








<g filter="url(#filter9_d_1_37811)">
<mask id="path-1034-inside-4_1_37811" fill="white">
<path d="M2 839H392V910H2V839Z"></path>
</mask>










</g>















































</g>
<defs>






<filter id="filter6_d_1_37811" x="1" y="461" width="160" height="160" filterUnits="userSpaceOnUse" color-interpolation-filters="sRGB">
<feFlood flood-opacity="0" result="BackgroundImageFix"></feFlood>
<feColorMatrix in="SourceAlpha" type="matrix" values="0 0 0 0 0 0 0 0 0 0 0 0 0 0 0 0 0 0 127 0" result="hardAlpha"></feColorMatrix>
<feOffset dy="5"></feOffset>
<feGaussianBlur stdDeviation="15"></feGaussianBlur>
<feColorMatrix type="matrix" values="0 0 0 0 0 0 0 0 0 0 0 0 0 0 0 0 0 0 0.05 0"></feColorMatrix>
<feBlend mode="normal" in2="BackgroundImageFix" result="effect1_dropShadow_1_37811"></feBlend>
<feBlend mode="normal" in="SourceGraphic" in2="effect1_dropShadow_1_37811" result="shape"></feBlend>
</filter>







<filter id="filter9_d_1_37811" x="-8" y="827" width="410" height="91" filterUnits="userSpaceOnUse" color-interpolation-filters="sRGB">
<feFlood flood-opacity="0" result="BackgroundImageFix"></feFlood>
<feColorMatrix in="SourceAlpha" type="matrix" values="0 0 0 0 0 0 0 0 0 0 0 0 0 0 0 0 0 0 127 0" result="hardAlpha"></feColorMatrix>
<feOffset dy="-2"></feOffset>
<feGaussianBlur stdDeviation="5"></feGaussianBlur>
<feComposite in2="hardAlpha" operator="out"></feComposite>
<feColorMatrix type="matrix" values="0 0 0 0 0 0 0 0 0 0 0 0 0 0 0 0 0 0 0.04 0"></feColorMatrix>
<feBlend mode="normal" in2="BackgroundImageFix" result="effect1_dropShadow_1_37811"></feBlend>
<feBlend mode="normal" in="SourceGraphic" in2="effect1_dropShadow_1_37811" result="shape"></feBlend>
</filter>







<clipPath id="clip0_1_37811">
<rect width="393" height="1036" fill="white"></rect>
</clipPath>





<clipPath id="clip6_1_37811">
<rect width="35" height="42" fill="white" transform="translate(63 495)"></rect>
</clipPath>


<clipPath id="clip9_1_37811">
<rect x="23" y="607" width="348" height="198" rx="2" fill="white"></rect>
</clipPath>




</defs>
</svg>