<svg width="58" height="44" viewBox="284 499 58 44" fill="none" xmlns="http://www.w3.org/2000/svg" xmlns:xlink="http://www.w3.org/1999/xlink">
<g clip-path="url(#clip0_1_37811)">
<rect width="393" height="1036" fill="#FBFBFB"></rect>























































































<mask id="mask0_1_37811" style="mask-type:alpha" maskUnits="userSpaceOnUse" x="1" y="70" width="391" height="225">
<rect x="1" y="70" width="391" height="225" fill="#D9D9D9"></rect>
</mask>
<g mask="url(#mask0_1_37811)">










































































































<mask id="mask1_1_37811" style="mask-type:luminance" maskUnits="userSpaceOnUse" x="71" y="239" width="34" height="23">
<path d="M71.7207 239.578L71.7298 243.03L104.529 261.954V258.53L71.7207 239.578Z" fill="white"></path>
</mask>









































<mask id="mask2_1_37811" style="mask-type:luminance" maskUnits="userSpaceOnUse" x="78" y="224" width="11" height="13">
<path d="M82.4556 235.412C79.7399 233.426 77.8654 229.525 78.2677 226.696C78.6701 223.876 81.1938 223.199 83.9095 225.186C86.6252 227.172 88.4997 231.073 88.0974 233.902C87.6951 236.722 85.1714 237.399 82.4556 235.412Z" fill="white"></path>
</mask>













<mask id="mask3_1_37811" style="mask-type:luminance" maskUnits="userSpaceOnUse" x="26" y="193" width="11" height="14">
<path d="M30.3721 205.327C27.6564 203.341 25.7819 199.44 26.1842 196.611C26.5866 193.791 29.1103 193.114 31.826 195.101C34.5417 197.087 36.4162 200.988 36.0139 203.817C35.6116 206.637 33.0879 207.314 30.3721 205.327Z" fill="white"></path>
</mask>
















































































































<mask id="mask4_1_37811" style="mask-type:luminance" maskUnits="userSpaceOnUse" x="96" y="260" width="32" height="34">
<path d="M113.252 293.579L100.862 286.767L96.4824 268.428L103.596 262.258V261.076C105.407 260.719 107.601 261.168 109.96 262.532C116.032 266.039 120.979 274.315 121.281 281.319L127.206 284.744L113.252 293.588V293.579Z" fill="white"></path>
</mask>




























































<mask id="mask5_1_37811" style="mask-type:luminance" maskUnits="userSpaceOnUse" x="1" y="198" width="34" height="24">
<path d="M1.20312 198.717L1.21227 202.168L34.0205 221.093L34.0113 217.669L1.20312 198.717Z" fill="white"></path>
</mask>
























</g>















<g filter="url(#filter8_d_1_37811)">
<rect x="263" y="486" width="100" height="100" rx="15" fill="white"></rect>
</g>
<path d="M297.089 535.228C300.359 536.734 301.719 539.949 301.948 541.391H300.721C297.975 539.615 296.966 536.848 296.788 535.419C296.769 535.264 296.938 535.158 297.089 535.228Z" fill="#032068"></path>
<path d="M297.968 530.666C301.641 532.32 302.719 538.44 302.796 541.346H301.146C297.335 536.239 297.218 532.317 297.678 530.784C297.713 530.667 297.851 530.613 297.968 530.666Z" fill="white"></path>
<path fill-rule="evenodd" clip-rule="evenodd" d="M297.788 530.812C297.803 530.763 297.862 530.736 297.919 530.761C299.711 531.569 300.886 533.476 301.622 535.57C302.338 537.607 302.63 539.793 302.679 541.241H301.206C297.442 536.174 297.341 532.302 297.788 530.812ZM298.018 530.571C297.84 530.491 297.623 530.573 297.569 530.756C297.097 532.327 297.228 536.282 301.052 541.407L301.086 541.452H302.913L302.91 541.344C302.871 539.883 302.581 537.616 301.839 535.504C301.098 533.397 299.898 531.418 298.018 530.571Z" fill="#032068"></path>
<path fill-rule="evenodd" clip-rule="evenodd" d="M298.162 531.925L299.674 535.715L298.788 535.339L298.693 535.531L299.785 535.995L301.156 539.431L300.386 539.147L300.302 539.343L301.262 539.698L301.935 541.384L302.148 541.31L300.785 537.891L301.485 536.442L301.277 536.355L300.672 537.608L299.193 533.899L299.557 532.795L299.339 532.733L299.062 533.573L298.376 531.852L298.162 531.925Z" fill="#032068"></path>
<path d="M325.655 511.24L326.087 510.825C326.164 510.751 326.298 510.812 326.281 510.914L326.192 511.471C326.187 511.505 326.199 511.539 326.226 511.563L326.704 511.992C326.78 512.061 326.722 512.181 326.615 512.173L325.946 512.122C325.913 512.119 325.881 512.13 325.857 512.151L325.325 512.625C325.246 512.696 325.116 512.632 325.134 512.532L325.247 511.898C325.253 511.867 325.243 511.836 325.221 511.812L324.732 511.281C324.659 511.203 324.738 511.085 324.845 511.11L325.546 511.269C325.585 511.278 325.626 511.267 325.655 511.24Z" fill="#FF6529"></path>
<path d="M328.352 517.911L328.54 517.845C328.644 517.809 328.736 517.918 328.674 518.003L328.566 518.154C328.545 518.182 328.541 518.218 328.554 518.25L328.639 518.461C328.677 518.555 328.568 518.64 328.475 518.59L328.259 518.473C328.23 518.458 328.196 518.455 328.165 518.464L327.899 518.546C327.795 518.578 327.707 518.469 327.77 518.385L327.914 518.193C327.934 518.168 327.94 518.135 327.931 518.105L327.856 517.851C327.827 517.751 327.953 517.676 328.038 517.741L328.24 517.894C328.271 517.918 328.314 517.924 328.352 517.911Z" fill="#FF6529"></path>
<path d="M297.99 522.494L297.671 522.881C297.651 522.905 297.619 522.916 297.588 522.911L297.194 522.841C297.109 522.826 297.057 522.927 297.123 522.98L297.433 523.232C297.456 523.251 297.467 523.279 297.461 523.307L297.384 523.723C297.369 523.801 297.471 523.85 297.528 523.792L297.847 523.472C297.866 523.454 297.893 523.444 297.92 523.448L298.289 523.496C298.372 523.506 298.419 523.408 298.356 523.356L298.081 523.129C298.059 523.111 298.049 523.083 298.053 523.056L298.14 522.556C298.154 522.474 298.044 522.429 297.99 522.494Z" fill="#FF6529"></path>
<path d="M301.797 511.823C301.797 511.122 302.409 510.554 303.164 510.554H318.713C319.468 510.554 320.079 511.122 320.079 511.823V540.054C320.079 540.755 319.468 541.323 318.713 541.323H303.164C302.409 541.323 301.797 540.755 301.797 540.054V511.823Z" fill="white"></path>
<path fill-rule="evenodd" clip-rule="evenodd" d="M301.684 511.823C301.684 511.064 302.346 510.448 303.164 510.448H318.713C319.531 510.448 320.193 511.064 320.193 511.823V540.054C320.193 540.814 319.531 541.429 318.713 541.429H303.164C302.346 541.429 301.684 540.814 301.684 540.054V511.823ZM303.164 510.66C302.472 510.66 301.911 511.181 301.911 511.823V540.054C301.911 540.697 302.472 541.218 303.164 541.218H318.713C319.405 541.218 319.966 540.697 319.966 540.054V511.823C319.966 511.181 319.405 510.66 318.713 510.66H303.164Z" fill="#032068"></path>
<path d="M307.303 511.585L306.711 510.554H315.166L314.47 511.632C314.264 511.95 313.893 512.145 313.493 512.145H308.308C307.888 512.145 307.501 511.93 307.303 511.585Z" fill="#032068"></path>
<path d="M319.856 511.19H301.905C302.499 510.638 303.067 510.536 303.276 510.554H318.484C319.216 510.554 319.703 510.978 319.856 511.19Z" fill="#032068"></path>
<path d="M319.847 540.72H302.03C302.648 541.28 303.005 541.385 303.222 541.367H318.655C319.414 541.367 319.688 540.935 319.847 540.72Z" fill="#032068"></path>
<path d="M303.894 514.148C303.894 513.973 304.047 513.831 304.235 513.831H310.073C310.262 513.831 310.415 513.973 310.415 514.148V514.163C310.415 514.338 310.262 514.48 310.073 514.48H304.235C304.047 514.48 303.894 514.338 303.894 514.163V514.148Z" fill="#FF6529"></path>
<path fill-rule="evenodd" clip-rule="evenodd" d="M303.734 516.283C303.734 516.05 303.938 515.86 304.189 515.86H317.743C317.994 515.86 318.198 516.05 318.198 516.283V527.811C318.198 528.045 317.994 528.234 317.743 528.234H304.189C303.938 528.234 303.734 528.045 303.734 527.811V516.283ZM304.189 516.072C304.064 516.072 303.962 516.167 303.962 516.283V527.811C303.962 527.928 304.064 528.022 304.189 528.022H317.743C317.868 528.022 317.97 527.928 317.97 527.811V516.283C317.97 516.167 317.868 516.072 317.743 516.072H304.189Z" fill="#E7E8FF"></path>
<path d="M307.378 536.357C307.378 536.182 307.531 536.04 307.72 536.04H314.212C314.401 536.04 314.554 536.182 314.554 536.357V538.049C314.554 538.225 314.401 538.367 314.212 538.367H307.72C307.531 538.367 307.378 538.225 307.378 538.049V536.357Z" fill="#FF6529"></path>
<path fill-rule="evenodd" clip-rule="evenodd" d="M318.796 512.065V512.93H318.568V512.065H318.796Z" fill="#032068"></path>
<path fill-rule="evenodd" clip-rule="evenodd" d="M318.214 512.174V512.931H317.986V512.174H318.214Z" fill="#032068"></path>
<path fill-rule="evenodd" clip-rule="evenodd" d="M317.632 512.391V512.931H317.404V512.391H317.632Z" fill="#032068"></path>
<path fill-rule="evenodd" clip-rule="evenodd" d="M317.05 512.606V512.931H316.822V512.606H317.05Z" fill="#032068"></path>
<path d="M303.848 522.206H318.198V523.369H303.848V522.206Z" fill="#E7E8FF"></path>
<path d="M307.037 515.966H308.289V522.417H307.037V515.966Z" fill="#E7E8FF"></path>
<path d="M313.301 522.841H314.554V528.129H313.301V522.841Z" fill="#E7E8FF"></path>
<path fill-rule="evenodd" clip-rule="evenodd" d="M311.137 523.119C311.54 523.119 313.305 520.229 313.305 519.126C313.305 518.024 312.334 517.13 311.137 517.13C309.94 517.13 308.969 518.024 308.969 519.126C308.969 520.229 310.582 523.119 311.137 523.119ZM311.137 520.174C311.75 520.174 312.247 519.712 312.247 519.143C312.247 518.573 311.75 518.112 311.137 518.112C310.524 518.112 310.027 518.573 310.027 519.143C310.027 519.712 310.524 520.174 311.137 520.174Z" fill="#FF6529"></path>
<path d="M308.433 534.176C308.433 534.621 308.045 534.982 307.565 534.982C307.086 534.982 306.697 534.621 306.697 534.176C306.697 533.731 307.086 533.37 307.565 533.37C308.045 533.37 308.433 533.731 308.433 534.176Z" fill="white"></path>
<path fill-rule="evenodd" clip-rule="evenodd" d="M307.566 533.475C307.149 533.475 306.811 533.789 306.811 534.176C306.811 534.562 307.149 534.876 307.566 534.876C307.982 534.876 308.32 534.562 308.32 534.176C308.32 533.789 307.982 533.475 307.566 533.475ZM306.583 534.176C306.583 533.672 307.023 533.264 307.566 533.264C308.108 533.264 308.548 533.672 308.548 534.176C308.548 534.679 308.108 535.087 307.566 535.087C307.023 535.087 306.583 534.679 306.583 534.176Z" fill="#032068"></path>
<path d="M315.13 534.176C315.13 534.621 314.769 534.982 314.324 534.982C313.879 534.982 313.518 534.621 313.518 534.176C313.518 533.731 313.879 533.37 314.324 533.37C314.769 533.37 315.13 533.731 315.13 534.176Z" fill="white"></path>
<path fill-rule="evenodd" clip-rule="evenodd" d="M314.324 533.475C313.95 533.475 313.632 533.781 313.632 534.176C313.632 534.57 313.95 534.876 314.324 534.876C314.699 534.876 315.017 534.57 315.017 534.176C315.017 533.781 314.699 533.475 314.324 533.475ZM313.404 534.176C313.404 533.68 313.808 533.264 314.324 533.264C314.84 533.264 315.244 533.68 315.244 534.176C315.244 534.672 314.84 535.087 314.324 535.087C313.808 535.087 313.404 534.672 313.404 534.176Z" fill="#032068"></path>
<path d="M315.246 534.057C315.15 533.623 314.745 533.298 314.261 533.298C313.777 533.298 313.373 533.623 313.276 534.057H308.618C308.521 533.623 308.117 533.298 307.633 533.298C307.149 533.298 306.745 533.623 306.648 534.057C306.494 534.057 306.173 534.033 306.123 533.937C306.06 533.817 305.867 532.479 305.997 532.3C306.228 531.98 308.157 531.741 308.325 531.701C308.574 531.251 309.069 530.367 309.216 530.132C309.233 530.105 309.224 530.071 309.195 530.055C309.095 530.002 309.136 529.858 309.251 529.857C309.686 529.852 310.186 529.844 310.549 529.844C311.388 529.844 313.926 529.744 314.094 529.844C314.261 529.944 314.366 529.884 314.513 530.483C314.66 531.082 314.744 531.581 314.912 531.761C315.079 531.94 315.289 531.96 315.373 532.3C315.457 532.639 315.646 533.877 315.625 533.997C315.52 534.017 315.366 534.077 315.246 534.057Z" fill="white"></path>
<path fill-rule="evenodd" clip-rule="evenodd" d="M311.646 529.932C311.202 529.941 310.799 529.95 310.549 529.95C310.305 529.95 309.999 529.954 309.692 529.958C309.543 529.959 309.395 529.961 309.253 529.963C309.253 529.963 309.252 529.963 309.252 529.963C309.252 529.964 309.252 529.964 309.252 529.964C309.337 530.01 309.362 530.11 309.315 530.186C309.169 530.417 308.677 531.298 308.427 531.75L308.403 531.792L308.354 531.804C308.318 531.812 308.222 531.827 308.093 531.847C308.047 531.854 307.996 531.862 307.943 531.871C307.735 531.904 307.472 531.947 307.209 531.999C306.944 532.051 306.681 532.111 306.471 532.178C306.366 532.211 306.278 532.244 306.21 532.278C306.139 532.313 306.105 532.341 306.092 532.359C306.092 532.359 306.092 532.359 306.092 532.359C306.091 532.361 306.082 532.38 306.076 532.43C306.07 532.478 306.067 532.54 306.067 532.614C306.068 532.762 306.081 532.946 306.101 533.131C306.121 533.315 306.146 533.497 306.171 533.639C306.183 533.711 306.195 533.772 306.206 533.818C306.211 533.841 306.216 533.859 306.22 533.873C306.221 533.879 306.223 533.884 306.224 533.886C306.227 533.889 306.235 533.893 306.249 533.899C306.278 533.91 306.318 533.921 306.367 533.929C306.43 533.94 306.499 533.946 306.56 533.949C306.699 533.513 307.125 533.193 307.633 533.193C308.142 533.193 308.569 533.514 308.707 533.951H313.188C313.326 533.514 313.753 533.193 314.261 533.193C314.771 533.193 315.199 533.515 315.336 533.953C315.359 533.95 315.385 533.946 315.414 533.939C315.442 533.933 315.469 533.926 315.498 533.918L315.507 533.916C315.508 533.916 315.509 533.915 315.51 533.915C315.51 533.914 315.51 533.912 315.51 533.911C315.507 533.867 315.501 533.809 315.493 533.74C315.477 533.604 315.453 533.428 315.426 533.245C315.371 532.878 315.303 532.488 315.262 532.324C315.226 532.177 315.166 532.106 315.098 532.049C315.071 532.027 315.043 532.007 315.012 531.985C315 531.976 314.987 531.967 314.973 531.957C314.926 531.923 314.875 531.883 314.826 531.83C314.771 531.772 314.729 531.694 314.693 531.608C314.657 531.521 314.625 531.418 314.594 531.305C314.558 531.171 314.522 531.016 314.483 530.85C314.458 530.74 314.431 530.624 314.402 530.507C314.329 530.208 314.27 530.096 314.224 530.045C314.204 530.022 314.184 530.009 314.156 529.995C314.149 529.992 314.14 529.988 314.131 529.984C314.105 529.972 314.07 529.956 314.038 529.937C314.036 529.936 314.029 529.934 314.015 529.932C313.992 529.928 313.96 529.924 313.918 529.921C313.835 529.915 313.721 529.91 313.585 529.908C313.313 529.903 312.955 529.907 312.575 529.913C312.269 529.918 311.948 529.925 311.646 529.932ZM306.021 533.983C306.005 533.955 305.993 533.907 305.983 533.862C305.971 533.811 305.959 533.746 305.946 533.673C305.921 533.525 305.895 533.339 305.874 533.151C305.854 532.964 305.84 532.773 305.839 532.615C305.839 532.537 305.842 532.465 305.85 532.404C305.857 532.35 305.87 532.286 305.903 532.241C305.947 532.179 306.023 532.13 306.103 532.091C306.186 532.05 306.287 532.012 306.398 531.977C306.62 531.907 306.894 531.845 307.161 531.792C307.43 531.739 307.695 531.695 307.904 531.662C307.968 531.652 308.025 531.643 308.075 531.636C308.15 531.624 308.21 531.614 308.249 531.608C308.492 531.17 308.928 530.391 309.094 530.117C308.951 529.994 309.039 529.753 309.25 529.751C309.391 529.75 309.539 529.748 309.687 529.746C309.995 529.742 310.304 529.739 310.549 529.739C310.797 529.739 311.194 529.73 311.635 529.72C311.937 529.713 312.261 529.706 312.571 529.701C312.951 529.695 313.312 529.692 313.589 529.697C313.727 529.699 313.846 529.703 313.937 529.71C313.982 529.714 314.023 529.718 314.056 529.724C314.084 529.729 314.124 529.737 314.155 529.755C314.179 529.77 314.197 529.778 314.218 529.788C314.231 529.794 314.246 529.8 314.263 529.809C314.307 529.831 314.353 529.859 314.399 529.909C314.483 530.002 314.551 530.16 314.624 530.46C314.655 530.583 314.682 530.701 314.707 530.812C314.745 530.974 314.779 531.122 314.815 531.253C314.845 531.363 314.874 531.456 314.906 531.532C314.938 531.609 314.968 531.66 314.998 531.692C315.033 531.729 315.071 531.759 315.113 531.79C315.123 531.797 315.134 531.805 315.145 531.813C315.178 531.837 315.216 531.863 315.25 531.892C315.35 531.975 315.437 532.084 315.484 532.276C315.527 532.451 315.596 532.85 315.651 533.216C315.679 533.4 315.703 533.578 315.719 533.718C315.728 533.787 315.734 533.849 315.737 533.897C315.74 533.939 315.743 533.985 315.737 534.014L315.725 534.086L315.648 534.101C315.626 534.105 315.601 534.111 315.569 534.119C315.566 534.12 315.563 534.121 315.559 534.122C315.531 534.129 315.5 534.138 315.468 534.145C315.399 534.16 315.31 534.175 315.226 534.161L315.15 534.148L315.135 534.078C315.049 533.691 314.689 533.404 314.261 533.404C313.834 533.404 313.474 533.691 313.388 534.078L313.369 534.163H308.525L308.507 534.078C308.42 533.691 308.06 533.404 307.633 533.404C307.206 533.404 306.846 533.691 306.76 534.078L306.741 534.163H306.648C306.567 534.163 306.441 534.156 306.326 534.137C306.269 534.127 306.21 534.114 306.16 534.093C306.114 534.075 306.052 534.043 306.021 533.983Z" fill="#032068"></path>
<path d="M315.331 533.946C315.233 533.554 314.824 533.259 314.333 533.259C313.843 533.259 313.433 533.554 313.335 533.946L313.165 533.939C313.2 533.634 313.483 533.024 314.333 533.024C315.183 533.024 315.467 533.639 315.502 533.946H315.331Z" fill="#032068"></path>
<path d="M308.616 533.946C308.518 533.554 308.108 533.259 307.618 533.259C307.128 533.259 306.718 533.554 306.62 533.946C306.574 533.946 306.513 533.944 306.449 533.939C306.485 533.634 306.768 533.024 307.618 533.024C308.468 533.024 308.752 533.639 308.787 533.946H308.616Z" fill="#032068"></path>
<path d="M308.061 534.176C308.061 534.43 307.867 534.636 307.627 534.636C307.388 534.636 307.193 534.43 307.193 534.176C307.193 533.921 307.388 533.715 307.627 533.715C307.867 533.715 308.061 533.921 308.061 534.176Z" fill="#032068"></path>
<path d="M314.758 534.176C314.758 534.43 314.536 534.636 314.262 534.636C313.988 534.636 313.766 534.43 313.766 534.176C313.766 533.921 313.988 533.715 314.262 533.715C314.536 533.715 314.758 533.921 314.758 534.176Z" fill="#032068"></path>
<path d="M306.169 533.946H306.468C306.498 533.708 306.634 533.463 306.697 533.37H306.169C305.987 533.37 305.844 533.516 305.861 533.685C305.875 533.833 306.009 533.946 306.169 533.946Z" fill="#032068"></path>
<path d="M315.533 533.946H315.374C315.341 533.708 315.198 533.463 315.13 533.37H315.533C315.716 533.37 315.859 533.517 315.841 533.686C315.826 533.833 315.692 533.946 315.533 533.946Z" fill="#032068"></path>
<path d="M306.201 532.909C306.201 533.1 306.146 533.254 306.077 533.254C306.009 533.254 305.953 533.1 305.953 532.909C305.953 532.718 306.009 532.563 306.077 532.563C306.146 532.563 306.201 532.718 306.201 532.909Z" fill="#FF6529"></path>
<path d="M315.626 533.024C315.626 533.151 315.571 533.255 315.502 533.255C315.434 533.255 315.378 533.151 315.378 533.024C315.378 532.897 315.434 532.794 315.502 532.794C315.571 532.794 315.626 532.897 315.626 533.024Z" fill="#FF6529"></path>
<path d="M309.103 531.873H311.311C311.5 531.873 311.653 531.731 311.653 531.556V530.594C311.653 530.423 311.507 530.282 311.322 530.278C310.593 530.261 309.535 530.247 309.463 530.286C309.4 530.321 309.071 530.911 308.799 531.418C308.686 531.628 308.851 531.873 309.103 531.873Z" fill="white"></path>
<path d="M311.99 531.556V530.593C311.99 530.422 312.136 530.282 312.32 530.277C312.954 530.26 313.822 530.247 313.865 530.286C313.905 530.323 314.011 530.99 314.088 531.516C314.115 531.705 313.956 531.873 313.75 531.873H312.332C312.143 531.873 311.99 531.731 311.99 531.556Z" fill="white"></path>
<path fill-rule="evenodd" clip-rule="evenodd" d="M309.504 530.385C309.504 530.385 309.504 530.385 309.505 530.384C309.504 530.385 309.504 530.385 309.504 530.385ZM309.524 530.382C309.53 530.381 309.537 530.38 309.545 530.379C309.579 530.376 309.626 530.374 309.686 530.372C309.804 530.368 309.964 530.367 310.146 530.367C310.51 530.368 310.955 530.375 311.32 530.384C311.442 530.387 311.54 530.48 311.54 530.594V531.556C311.54 531.673 311.438 531.768 311.312 531.768H309.104C308.935 531.768 308.827 531.604 308.901 531.466C309.037 531.212 309.187 530.939 309.31 530.725C309.372 530.618 309.426 530.527 309.469 530.461C309.49 530.428 309.508 530.403 309.521 530.386C309.522 530.384 309.523 530.383 309.524 530.382ZM309.535 530.368C309.536 530.368 309.536 530.367 309.536 530.367C309.536 530.367 309.536 530.368 309.535 530.368ZM310.147 530.155C310.513 530.156 310.96 530.164 311.325 530.172C311.572 530.178 311.767 530.366 311.767 530.594V531.556C311.767 531.79 311.563 531.979 311.312 531.979H309.104C308.768 531.979 308.546 531.652 308.697 531.371C308.834 531.117 308.984 530.842 309.109 530.626C309.172 530.517 309.228 530.423 309.274 530.353C309.296 530.318 309.317 530.287 309.335 530.263C309.344 530.252 309.353 530.24 309.362 530.23C309.37 530.222 309.385 530.207 309.405 530.196C309.429 530.183 309.455 530.178 309.467 530.176C309.484 530.173 309.503 530.171 309.523 530.169C309.564 530.165 309.616 530.162 309.678 530.161C309.8 530.156 309.964 530.155 310.147 530.155ZM313.902 530.185C313.91 530.189 313.928 530.196 313.945 530.211C313.965 530.231 313.976 530.254 313.979 530.261L313.979 530.262C313.984 530.274 313.988 530.287 313.992 530.3C314 530.326 314.009 530.36 314.017 530.399C314.035 530.477 314.054 530.582 314.075 530.701C314.116 530.939 314.162 531.239 314.201 531.502C314.238 531.755 314.025 531.979 313.75 531.979H312.332C312.081 531.979 311.877 531.79 311.877 531.556V530.593C311.877 530.365 312.071 530.178 312.317 530.171C312.635 530.163 313.011 530.156 313.314 530.155C313.466 530.155 313.6 530.157 313.7 530.161C313.749 530.163 313.793 530.166 313.826 530.169C313.843 530.171 313.86 530.174 313.875 530.177C313.882 530.179 313.892 530.182 313.902 530.185ZM313.315 530.367C313.015 530.367 312.64 530.375 312.323 530.383C312.201 530.386 312.104 530.479 312.104 530.593V531.556C312.104 531.673 312.206 531.768 312.332 531.768H313.75C313.888 531.768 313.993 531.656 313.975 531.53C313.937 531.268 313.891 530.971 313.85 530.735C313.83 530.617 313.811 530.515 313.794 530.442C313.789 530.416 313.783 530.395 313.779 530.377C313.756 530.375 313.726 530.374 313.69 530.372C313.595 530.368 313.465 530.367 313.315 530.367ZM313.767 530.34C313.767 530.34 313.767 530.34 313.767 530.34C313.766 530.338 313.766 530.337 313.767 530.34Z" fill="#032068"></path>
<path d="M324.938 525.208L325.492 526.461C325.492 526.84 325.258 527.6 324.323 527.6C323.388 527.6 322.826 527.106 322.662 526.859V525.891C322.355 525.891 321.986 525.492 321.801 525.208C321.617 524.923 320.756 523.214 321.74 522.132C322.724 521.05 324.077 521.79 324.938 522.816C325.627 523.636 325.225 524.752 324.938 525.208Z" fill="#EFCB96"></path>
<path d="M332.565 541.326H326.66H319.526C318.419 539.959 317.68 529.821 318.357 528.739C319.425 527.03 321.555 526.631 322.539 526.404C322.703 526.688 323.179 527.03 324.016 527.03C324.852 527.03 325.389 526.461 325.553 526.176C326.742 526.385 329.416 527.042 330.597 527.998C332.073 529.194 333.18 534.605 333.611 538.022C333.955 540.756 333.057 541.364 332.565 541.326Z" fill="#FF6529"></path>
<path d="M327.706 540.3C328.936 539.845 330.433 537.415 331.028 536.257C330.556 537.908 328.69 541.054 327.276 540.813C325.406 540.494 322.56 536.845 321.371 535.061C322.97 536.997 326.476 540.756 327.706 540.3Z" fill="#032068"></path>
<path d="M325.43 539.504C326.759 538.866 328.485 539.048 329.182 539.219C328.915 539.693 328.198 540.62 327.46 540.529C326.722 540.438 325.799 539.807 325.43 539.504Z" fill="#032068"></path>
<path d="M326.599 534.093L327.275 532.156L326.23 533.808C325.393 533.58 324.139 533.011 322.663 532.726C324.016 533.181 326.558 534.51 328.014 535.289L326.599 534.093Z" fill="#032068"></path>
<path d="M321.863 532.327C321.912 532.418 322.171 532.745 322.294 532.897L321.433 534.264C321.36 534.169 321.152 533.945 320.906 533.808C320.599 533.637 319.649 533.466 319.649 532.783C319.649 532.236 320.059 531.795 320.264 531.644C319.936 531.321 319.218 530.789 319.218 530.618C319.218 530.491 319.28 530.277 319.526 530.334C319.772 530.391 320.633 531.302 320.817 531.359C321.002 531.416 321.494 531.359 321.678 531.473C321.863 531.587 321.802 532.213 321.863 532.327Z" fill="#EFCB96"></path>
<path d="M324.077 525.606C323.634 525.925 322.95 525.929 322.663 525.891V526.29C323.253 526.29 323.852 525.834 324.077 525.606Z" fill="#032068"></path>
<path d="M324.569 524.753C324.618 524.935 324.958 525.474 325.123 525.721C325.615 525.55 325.738 523.101 325.43 522.361C325.184 521.768 324.261 521.62 323.892 521.677C323.646 521.506 323.339 521.164 321.494 521.449C319.649 521.734 319.649 523.67 320.879 523.727C322.109 523.784 322.601 523.215 322.785 523.272C322.97 523.329 323.093 523.443 323.523 523.955C323.954 524.468 323.831 524.468 323.892 523.955C323.954 523.443 324.2 523.443 324.63 523.727C325.061 524.012 324.508 524.525 324.569 524.753Z" fill="#032068"></path>
<path d="M315.817 528.176L316.672 531.657C316.68 531.692 316.709 531.719 316.746 531.727L318.198 532.063C318.271 532.08 318.338 532.019 318.322 531.951L317.558 528.722C317.551 528.692 317.528 528.667 317.497 528.655L315.955 528.068C315.879 528.039 315.799 528.101 315.817 528.176Z" fill="white"></path>
<path fill-rule="evenodd" clip-rule="evenodd" d="M315.994 527.98C315.842 527.922 315.682 528.048 315.718 528.197L316.573 531.678C316.59 531.747 316.647 531.801 316.722 531.819L318.173 532.154C318.32 532.188 318.454 532.067 318.422 531.931L317.658 528.702C317.643 528.641 317.598 528.591 317.536 528.568L315.994 527.98ZM315.917 528.155L317.459 528.742L318.223 531.971L316.771 531.636L315.917 528.155Z" fill="#032068"></path>
<path d="M317.89 532.232V532.724C317.284 533.003 316.092 533.414 316.178 532.823C316.285 532.084 315.964 531.985 315.803 531.148C315.675 530.478 315.999 530.212 316.178 530.163C316.213 530.294 316.296 530.587 316.338 530.705C316.392 530.853 316.927 530.606 317.355 530.557C317.783 530.508 318.051 531.247 318.104 531.641C318.158 532.035 317.89 532.084 317.89 532.232Z" fill="#EFCB96"></path>
<path d="M319.587 537.681C319.587 538.41 319.054 538.877 318.788 539.047L318.849 539.389C319.136 539.446 319.776 538.763 319.833 538.079C319.931 536.9 318.859 533.932 318.304 532.575C318.301 532.568 318.298 532.561 318.295 532.555C318.298 532.561 318.301 532.568 318.304 532.575C318.62 533.355 319.587 536.777 319.587 537.681Z" fill="#032068"></path>
<path d="M316.928 532.726C315.944 532.726 316.081 532.555 315.835 532.156C315.835 533.542 315.282 536.485 315.528 537.624C315.835 539.048 316.928 539.56 317.605 539.446C318.281 539.333 319.388 539.048 319.573 537.795C319.721 536.792 318.691 533.618 318.158 532.156C318.097 532.289 317.778 532.726 316.928 532.726Z" fill="#FF6529"></path>
<path d="M315.759 538.364C317.285 537.59 318.855 538.003 319.45 538.307C319.286 538.687 318.687 539.458 317.604 539.503C316.522 539.549 315.923 538.763 315.759 538.364Z" fill="#032068"></path>


<g clip-path="url(#clip9_1_37811)">
<mask id="path-1002-inside-1_1_37811" fill="white">
<path d="M23 607H371V667H23V607Z"></path>
</mask>







<mask id="path-1010-inside-2_1_37811" fill="white">
<path d="M23 676H371V736H23V676Z"></path>
</mask>







<mask id="path-1018-inside-3_1_37811" fill="white">
<path d="M23 745H371V805H23V745Z"></path>
</mask>







</g>








<g filter="url(#filter9_d_1_37811)">
<mask id="path-1034-inside-4_1_37811" fill="white">
<path d="M2 839H392V910H2V839Z"></path>
</mask>










</g>















































</g>
<defs>








<filter id="filter8_d_1_37811" x="233" y="461" width="160" height="160" filterUnits="userSpaceOnUse" color-interpolation-filters="sRGB">
<feFlood flood-opacity="0" result="BackgroundImageFix"></feFlood>
<feColorMatrix in="SourceAlpha" type="matrix" values="0 0 0 0 0 0 0 0 0 0 0 0 0 0 0 0 0 0 127 0" result="hardAlpha"></feColorMatrix>
<feOffset dy="5"></feOffset>
<feGaussianBlur stdDeviation="15"></feGaussianBlur>
<feColorMatrix type="matrix" values="0 0 0 0 0 0 0 0 0 0 0 0 0 0 0 0 0 0 0.05 0"></feColorMatrix>
<feBlend mode="normal" in2="BackgroundImageFix" result="effect1_dropShadow_1_37811"></feBlend>
<feBlend mode="normal" in="SourceGraphic" in2="effect1_dropShadow_1_37811" result="shape"></feBlend>
</filter>





<filter id="filter9_d_1_37811" x="-8" y="827" width="410" height="91" filterUnits="userSpaceOnUse" color-interpolation-filters="sRGB">
<feFlood flood-opacity="0" result="BackgroundImageFix"></feFlood>
<feColorMatrix in="SourceAlpha" type="matrix" values="0 0 0 0 0 0 0 0 0 0 0 0 0 0 0 0 0 0 127 0" result="hardAlpha"></feColorMatrix>
<feOffset dy="-2"></feOffset>
<feGaussianBlur stdDeviation="5"></feGaussianBlur>
<feComposite in2="hardAlpha" operator="out"></feComposite>
<feColorMatrix type="matrix" values="0 0 0 0 0 0 0 0 0 0 0 0 0 0 0 0 0 0 0.04 0"></feColorMatrix>
<feBlend mode="normal" in2="BackgroundImageFix" result="effect1_dropShadow_1_37811"></feBlend>
<feBlend mode="normal" in="SourceGraphic" in2="effect1_dropShadow_1_37811" result="shape"></feBlend>
</filter>







<clipPath id="clip0_1_37811">
<rect width="393" height="1036" fill="white"></rect>
</clipPath>








<clipPath id="clip9_1_37811">
<rect x="23" y="607" width="348" height="198" rx="2" fill="white"></rect>
</clipPath>




</defs>
</svg>