<svg width="60" height="40" viewBox="280 380 60 40" fill="none" xmlns="http://www.w3.org/2000/svg" xmlns:xlink="http://www.w3.org/1999/xlink">
<g clip-path="url(#clip0_1_37811)">
<rect width="393" height="1036" fill="#FBFBFB"></rect>























































































<mask id="mask0_1_37811" style="mask-type:alpha" maskUnits="userSpaceOnUse" x="1" y="70" width="391" height="225">
<rect x="1" y="70" width="391" height="225" fill="#D9D9D9"></rect>
</mask>
<g mask="url(#mask0_1_37811)">










































































































<mask id="mask1_1_37811" style="mask-type:luminance" maskUnits="userSpaceOnUse" x="71" y="239" width="34" height="23">
<path d="M71.7207 239.578L71.7298 243.03L104.529 261.954V258.53L71.7207 239.578Z" fill="white"></path>
</mask>









































<mask id="mask2_1_37811" style="mask-type:luminance" maskUnits="userSpaceOnUse" x="78" y="224" width="11" height="13">
<path d="M82.4556 235.412C79.7399 233.426 77.8654 229.525 78.2677 226.696C78.6701 223.876 81.1938 223.199 83.9095 225.186C86.6252 227.172 88.4997 231.073 88.0974 233.902C87.6951 236.722 85.1714 237.399 82.4556 235.412Z" fill="white"></path>
</mask>













<mask id="mask3_1_37811" style="mask-type:luminance" maskUnits="userSpaceOnUse" x="26" y="193" width="11" height="14">
<path d="M30.3721 205.327C27.6564 203.341 25.7819 199.44 26.1842 196.611C26.5866 193.791 29.1103 193.114 31.826 195.101C34.5417 197.087 36.4162 200.988 36.0139 203.817C35.6116 206.637 33.0879 207.314 30.3721 205.327Z" fill="white"></path>
</mask>
















































































































<mask id="mask4_1_37811" style="mask-type:luminance" maskUnits="userSpaceOnUse" x="96" y="260" width="32" height="34">
<path d="M113.252 293.579L100.862 286.767L96.4824 268.428L103.596 262.258V261.076C105.407 260.719 107.601 261.168 109.96 262.532C116.032 266.039 120.979 274.315 121.281 281.319L127.206 284.744L113.252 293.588V293.579Z" fill="white"></path>
</mask>




























































<mask id="mask5_1_37811" style="mask-type:luminance" maskUnits="userSpaceOnUse" x="1" y="198" width="34" height="24">
<path d="M1.20312 198.717L1.21227 202.168L34.0205 221.093L34.0113 217.669L1.20312 198.717Z" fill="white"></path>
</mask>
























</g>






<g filter="url(#filter5_d_1_37811)">
<rect x="263" y="370" width="100" height="100" rx="15" fill="white"></rect>
</g>
<g clip-path="url(#clip5_1_37811)">
<path d="M331.814 412.884L302.069 412.923L296.967 412.931C296.201 412.931 295.575 412.332 295.536 411.576L304.282 405.987L315.292 398.951L330.362 389.324H331.784C332.575 389.322 333.216 389.962 333.216 390.751L333.233 404.674L333.243 411.45C333.243 412.241 332.605 412.881 331.814 412.881V412.884Z" fill="#FFC215"></path>
<path d="M330.362 389.324C328.938 394.42 325.844 399.045 321.648 402.275C318.371 404.797 314.513 406.454 310.606 407.809C305.707 409.505 300.657 410.769 295.536 411.575C295.536 411.551 295.536 411.526 295.536 411.501L295.509 390.8C295.509 390.009 296.147 389.368 296.938 389.366L330.365 389.321L330.362 389.324Z" fill="#FFC215"></path>
<path d="M333.226 399.297L316.445 399.32L306.405 399.332L295.519 399.347L295.509 392.957L333.219 392.907L333.226 399.297Z" fill="#29456D"></path>
<path d="M333.219 392.907L333.226 399.297L324.85 399.307C326.566 397.408 327.986 395.242 329.049 392.912L333.219 392.907Z" fill="#233859"></path>
<path d="M324.941 394.133H326.363C327.155 394.133 327.795 394.773 327.795 395.565V416.266C327.795 417.057 327.155 417.697 326.363 417.697H291.517C290.751 417.697 290.127 417.097 290.088 416.34L324.944 394.135L324.941 394.133Z" fill="#E25D23"></path>
<path d="M324.942 394.133C323.51 399.228 320.411 403.85 316.21 407.072C312.928 409.589 309.07 411.244 305.16 412.591C300.259 414.283 295.209 415.537 290.085 416.338C290.085 416.313 290.085 416.288 290.085 416.264V395.563C290.085 394.771 290.726 394.131 291.517 394.131H324.944L324.942 394.133Z" fill="#FF6529"></path>
<path d="M299.097 399.421H294.386C293.926 399.421 293.553 399.794 293.553 400.254V403.6C293.553 404.06 293.926 404.434 294.386 404.434H299.097C299.557 404.434 299.93 404.06 299.93 403.6V400.254C299.93 399.794 299.557 399.421 299.097 399.421Z" fill="#FFC215"></path>
<path d="M305.415 412.122H293.988C293.829 412.122 293.698 411.993 293.698 411.832C293.698 411.672 293.827 411.543 293.988 411.543H305.415C305.573 411.543 305.704 411.672 305.704 411.832C305.704 411.993 305.576 412.122 305.415 412.122Z" fill="#FFC215"></path>
<path d="M323.102 400.452H318.104C317.946 400.452 317.814 400.323 317.814 400.162C317.814 400.002 317.943 399.873 318.104 399.873H323.102C323.26 399.873 323.391 400.002 323.391 400.162C323.391 400.323 323.262 400.452 323.102 400.452Z" fill="#FFC215"></path>
<path d="M298.961 410.905H293.963C293.805 410.905 293.674 410.776 293.674 410.616C293.674 410.455 293.802 410.326 293.963 410.326H298.961C299.119 410.326 299.25 410.455 299.25 410.616C299.25 410.776 299.122 410.905 298.961 410.905Z" fill="#FFC215"></path>
<path d="M299.93 401.144V400.907H297.736V400.889C297.736 400.38 297.353 399.96 296.859 399.9V399.418H296.621V399.9C296.127 399.96 295.743 400.38 295.743 400.889V400.907H293.55V401.144H295.743V402.707H293.55V402.944H295.743V402.962C295.743 403.471 296.127 403.892 296.621 403.951V404.433H296.859V403.951C297.353 403.892 297.736 403.471 297.736 402.962V402.944H299.93V402.707H297.736V401.144H299.93ZM297.502 402.962C297.502 403.38 297.16 403.721 296.742 403.721C296.324 403.721 295.983 403.38 295.983 402.962V400.892C295.983 400.474 296.324 400.133 296.742 400.133C297.16 400.133 297.502 400.474 297.502 400.892V402.962Z" fill="#EFAC14"></path>
</g>
































































<g clip-path="url(#clip9_1_37811)">
<mask id="path-1002-inside-1_1_37811" fill="white">
<path d="M23 607H371V667H23V607Z"></path>
</mask>







<mask id="path-1010-inside-2_1_37811" fill="white">
<path d="M23 676H371V736H23V676Z"></path>
</mask>







<mask id="path-1018-inside-3_1_37811" fill="white">
<path d="M23 745H371V805H23V745Z"></path>
</mask>







</g>








<g filter="url(#filter9_d_1_37811)">
<mask id="path-1034-inside-4_1_37811" fill="white">
<path d="M2 839H392V910H2V839Z"></path>
</mask>










</g>















































</g>
<defs>





<filter id="filter5_d_1_37811" x="233" y="345" width="160" height="160" filterUnits="userSpaceOnUse" color-interpolation-filters="sRGB">
<feFlood flood-opacity="0" result="BackgroundImageFix"></feFlood>
<feColorMatrix in="SourceAlpha" type="matrix" values="0 0 0 0 0 0 0 0 0 0 0 0 0 0 0 0 0 0 127 0" result="hardAlpha"></feColorMatrix>
<feOffset dy="5"></feOffset>
<feGaussianBlur stdDeviation="15"></feGaussianBlur>
<feColorMatrix type="matrix" values="0 0 0 0 0 0 0 0 0 0 0 0 0 0 0 0 0 0 0.05 0"></feColorMatrix>
<feBlend mode="normal" in2="BackgroundImageFix" result="effect1_dropShadow_1_37811"></feBlend>
<feBlend mode="normal" in="SourceGraphic" in2="effect1_dropShadow_1_37811" result="shape"></feBlend>
</filter>








<filter id="filter9_d_1_37811" x="-8" y="827" width="410" height="91" filterUnits="userSpaceOnUse" color-interpolation-filters="sRGB">
<feFlood flood-opacity="0" result="BackgroundImageFix"></feFlood>
<feColorMatrix in="SourceAlpha" type="matrix" values="0 0 0 0 0 0 0 0 0 0 0 0 0 0 0 0 0 0 127 0" result="hardAlpha"></feColorMatrix>
<feOffset dy="-2"></feOffset>
<feGaussianBlur stdDeviation="5"></feGaussianBlur>
<feComposite in2="hardAlpha" operator="out"></feComposite>
<feColorMatrix type="matrix" values="0 0 0 0 0 0 0 0 0 0 0 0 0 0 0 0 0 0 0.04 0"></feColorMatrix>
<feBlend mode="normal" in2="BackgroundImageFix" result="effect1_dropShadow_1_37811"></feBlend>
<feBlend mode="normal" in="SourceGraphic" in2="effect1_dropShadow_1_37811" result="shape"></feBlend>
</filter>







<clipPath id="clip0_1_37811">
<rect width="393" height="1036" fill="white"></rect>
</clipPath>




<clipPath id="clip5_1_37811">
<rect width="53" height="53" fill="white" transform="translate(286 376)"></rect>
</clipPath>



<clipPath id="clip9_1_37811">
<rect x="23" y="607" width="348" height="198" rx="2" fill="white"></rect>
</clipPath>




</defs>
</svg>