<svg width="48" height="52" viewBox="54 370 48 52" fill="none" xmlns="http://www.w3.org/2000/svg" xmlns:xlink="http://www.w3.org/1999/xlink">
<g clip-path="url(#clip0_1_37811)">
<rect width="393" height="1036" fill="#FBFBFB"></rect>























































































<mask id="mask0_1_37811" style="mask-type:alpha" maskUnits="userSpaceOnUse" x="1" y="70" width="391" height="225">
<rect x="1" y="70" width="391" height="225" fill="#D9D9D9"></rect>
</mask>
<g mask="url(#mask0_1_37811)">










































































































<mask id="mask1_1_37811" style="mask-type:luminance" maskUnits="userSpaceOnUse" x="71" y="239" width="34" height="23">
<path d="M71.7207 239.578L71.7298 243.03L104.529 261.954V258.53L71.7207 239.578Z" fill="white"></path>
</mask>









































<mask id="mask2_1_37811" style="mask-type:luminance" maskUnits="userSpaceOnUse" x="78" y="224" width="11" height="13">
<path d="M82.4556 235.412C79.7399 233.426 77.8654 229.525 78.2677 226.696C78.6701 223.876 81.1938 223.199 83.9095 225.186C86.6252 227.172 88.4997 231.073 88.0974 233.902C87.6951 236.722 85.1714 237.399 82.4556 235.412Z" fill="white"></path>
</mask>













<mask id="mask3_1_37811" style="mask-type:luminance" maskUnits="userSpaceOnUse" x="26" y="193" width="11" height="14">
<path d="M30.3721 205.327C27.6564 203.341 25.7819 199.44 26.1842 196.611C26.5866 193.791 29.1103 193.114 31.826 195.101C34.5417 197.087 36.4162 200.988 36.0139 203.817C35.6116 206.637 33.0879 207.314 30.3721 205.327Z" fill="white"></path>
</mask>
















































































































<mask id="mask4_1_37811" style="mask-type:luminance" maskUnits="userSpaceOnUse" x="96" y="260" width="32" height="34">
<path d="M113.252 293.579L100.862 286.767L96.4824 268.428L103.596 262.258V261.076C105.407 260.719 107.601 261.168 109.96 262.532C116.032 266.039 120.979 274.315 121.281 281.319L127.206 284.744L113.252 293.588V293.579Z" fill="white"></path>
</mask>




























































<mask id="mask5_1_37811" style="mask-type:luminance" maskUnits="userSpaceOnUse" x="1" y="198" width="34" height="24">
<path d="M1.20312 198.717L1.21227 202.168L34.0205 221.093L34.0113 217.669L1.20312 198.717Z" fill="white"></path>
</mask>
























</g>

<g filter="url(#filter3_d_1_37811)">
<rect x="31" y="370" width="100" height="100" rx="15" fill="white"></rect>
</g>





































































<g clip-path="url(#clip8_1_37811)">
<path d="M94.9378 417.601V420.211H66.3476C65.9321 420.219 65.5898 419.879 65.5898 419.461V417.606C65.5898 412.529 69.7087 408.412 74.7834 408.412H85.7492C90.8263 408.412 94.9378 412.524 94.9378 417.601Z" fill="url(#paint1_linear_1_37811)"></path>
<path d="M76.4087 411.138C76.2425 410.187 76.2132 409.27 76.3598 408.407H84.1454C84.3116 409.275 84.2847 410.192 84.1112 411.143" fill="#DCE5EA"></path>
<path d="M83.718 403.689H76.8296V410.676H83.718V403.689Z" fill="url(#paint2_linear_1_37811)"></path>
<path d="M88.3453 399.072C88.3453 399.815 87.7488 400.419 86.9984 400.419L86.881 401.362C86.4508 404.689 83.625 407.183 80.2688 407.183C76.9126 407.183 74.0819 404.689 73.6566 401.362L73.5393 400.419C72.7888 400.419 72.1924 399.815 72.1924 399.072C72.1924 398.329 72.7888 397.725 73.5393 397.725V396.266C73.5393 392.675 76.255 389.544 79.8386 389.314C83.7619 389.064 87.0131 392.174 87.0131 396.036V397.723C87.7488 397.723 88.3453 398.326 88.3453 399.07V399.072Z" fill="url(#paint3_linear_1_37811)"></path>
<path d="M72.8545 392.328V397.058C72.8545 397.432 73.1527 397.733 73.5292 397.733C73.9056 397.733 74.2038 397.435 74.2038 397.058V396.383C74.238 395.286 74.8638 394.301 75.8367 393.8C76.0665 393.668 76.3427 393.682 76.5578 393.834C77.6407 394.592 78.9534 394.946 80.266 394.834C81.5787 394.944 82.8914 394.592 83.9669 393.834C84.182 393.682 84.4607 393.668 84.688 393.8C85.6609 394.301 86.2916 395.286 86.3209 396.383V397.058C86.3209 397.432 86.6192 397.733 86.9956 397.733C87.372 397.733 87.6703 397.435 87.6703 397.058V394.418C87.6849 393.697 87.5603 392.988 87.3158 392.335C87.3232 392.328 72.8569 392.328 72.8569 392.328H72.8545Z" fill="#2D343A"></path>
<path d="M85.842 408.669C85.82 408.737 86.0498 408.468 83.2313 412.399L80.2735 410.886L82.7938 408.365C83.1409 408.018 83.6053 407.803 84.0918 407.776C84.3142 407.754 84.4535 407.784 84.7713 407.811C85.1404 408.075 85.4924 408.373 85.842 408.671V408.669ZM80.2662 410.878L77.3084 412.391C74.5438 408.502 74.732 408.793 74.6978 408.661C75.0375 408.363 75.3993 408.065 75.7684 407.801C76.1009 407.774 76.2206 407.745 76.448 407.767C76.9344 407.793 77.3989 408.004 77.7533 408.358L80.2662 410.878Z" fill="#F3F3F3"></path>
<path d="M72.0555 408.808L73.73 408.409L80.1173 420.211H70.5889L72.0555 408.808Z" fill="#789FD6"></path>
<path d="M88.1594 408.686L86.5265 408.349L80.1172 420.212H89.4819L88.1594 408.686Z" fill="#789FD6"></path>
<path d="M73.0159 391.902H87.2157C87.7632 391.902 88.2057 392.345 88.2057 392.892V394.889C88.2057 395.107 88.0297 395.283 87.8121 395.283H72.4219C72.2043 395.283 72.0283 395.107 72.0283 394.889V392.892C72.0283 392.345 72.4708 391.902 73.0183 391.902H73.0159Z" fill="#FECD0E"></path>
<path d="M87.0715 391.903H73.1577C73.1577 391.719 73.1626 391.536 73.1724 391.355C73.3166 388.842 74.4386 386.642 76.1033 385.271C76.3355 385.08 76.5824 384.904 76.8342 384.745C77.5504 384.298 78.3424 383.992 79.1808 383.863C79.4864 383.816 79.7968 383.792 80.1122 383.792C80.4275 383.792 80.7404 383.816 81.0459 383.863C81.8844 383.995 82.6739 384.3 83.3902 384.745C83.6444 384.902 83.8888 385.078 84.121 385.271C85.7833 386.642 86.9102 388.842 87.0519 391.355C87.0617 391.536 87.0666 391.719 87.0666 391.903H87.0715Z" fill="#FECD0E"></path>
<path d="M81.0507 383.86V388.517C81.0507 388.751 80.8624 388.94 80.6278 388.94H79.6036C79.3713 388.94 79.1807 388.751 79.1807 388.517V383.86C79.4862 383.814 79.7967 383.789 80.112 383.789C80.4273 383.789 80.7402 383.814 81.0458 383.86H81.0507Z" fill="#F4A600"></path>
<path d="M84.1257 385.271L83.4168 387.923C83.3557 388.145 83.1259 388.28 82.901 388.219C82.6761 388.158 82.5441 387.928 82.6028 387.703L83.3948 384.745C83.649 384.902 83.8935 385.078 84.1257 385.271Z" fill="#F4A600"></path>
<path d="M77.3326 388.219C77.1077 388.28 76.8779 388.145 76.8168 387.923L76.1055 385.271C76.3377 385.08 76.5846 384.904 76.8364 384.745L77.6284 387.703C77.6895 387.928 77.5575 388.158 77.3326 388.219Z" fill="#F4A600"></path>
<path d="M87.0715 391.902H73.1577C73.1577 391.719 73.1626 391.535 73.1724 391.354H87.0568C87.0666 391.535 87.0715 391.719 87.0715 391.902Z" fill="#EFA13A"></path>
<path d="M71.3219 414.613L77.0664 414.674L77.7997 415.897H71.1997L71.3219 414.613Z" fill="#FECD0E"></path>
<path d="M71.1047 416.386L78.1251 416.462L79.0222 418.097L70.9556 417.852L71.1047 416.386Z" fill="#FECD0E"></path>
<path d="M88.9221 414.613L83.1777 414.674L82.4443 415.897H89.0443L88.9221 414.613Z" fill="#FECD0E"></path>
<path d="M89.1397 416.386L82.1193 416.462L81.2222 418.097L89.2888 417.852L89.1397 416.386Z" fill="#FECD0E"></path>
</g>
<g clip-path="url(#clip9_1_37811)">
<mask id="path-1002-inside-1_1_37811" fill="white">
<path d="M23 607H371V667H23V607Z"></path>
</mask>







<mask id="path-1010-inside-2_1_37811" fill="white">
<path d="M23 676H371V736H23V676Z"></path>
</mask>







<mask id="path-1018-inside-3_1_37811" fill="white">
<path d="M23 745H371V805H23V745Z"></path>
</mask>







</g>








<g filter="url(#filter9_d_1_37811)">
<mask id="path-1034-inside-4_1_37811" fill="white">
<path d="M2 839H392V910H2V839Z"></path>
</mask>










</g>















































</g>
<defs>



<filter id="filter3_d_1_37811" x="1" y="345" width="160" height="160" filterUnits="userSpaceOnUse" color-interpolation-filters="sRGB">
<feFlood flood-opacity="0" result="BackgroundImageFix"></feFlood>
<feColorMatrix in="SourceAlpha" type="matrix" values="0 0 0 0 0 0 0 0 0 0 0 0 0 0 0 0 0 0 127 0" result="hardAlpha"></feColorMatrix>
<feOffset dy="5"></feOffset>
<feGaussianBlur stdDeviation="15"></feGaussianBlur>
<feColorMatrix type="matrix" values="0 0 0 0 0 0 0 0 0 0 0 0 0 0 0 0 0 0 0.05 0"></feColorMatrix>
<feBlend mode="normal" in2="BackgroundImageFix" result="effect1_dropShadow_1_37811"></feBlend>
<feBlend mode="normal" in="SourceGraphic" in2="effect1_dropShadow_1_37811" result="shape"></feBlend>
</filter>










<filter id="filter9_d_1_37811" x="-8" y="827" width="410" height="91" filterUnits="userSpaceOnUse" color-interpolation-filters="sRGB">
<feFlood flood-opacity="0" result="BackgroundImageFix"></feFlood>
<feColorMatrix in="SourceAlpha" type="matrix" values="0 0 0 0 0 0 0 0 0 0 0 0 0 0 0 0 0 0 127 0" result="hardAlpha"></feColorMatrix>
<feOffset dy="-2"></feOffset>
<feGaussianBlur stdDeviation="5"></feGaussianBlur>
<feComposite in2="hardAlpha" operator="out"></feComposite>
<feColorMatrix type="matrix" values="0 0 0 0 0 0 0 0 0 0 0 0 0 0 0 0 0 0 0.04 0"></feColorMatrix>
<feBlend mode="normal" in2="BackgroundImageFix" result="effect1_dropShadow_1_37811"></feBlend>
<feBlend mode="normal" in="SourceGraphic" in2="effect1_dropShadow_1_37811" result="shape"></feBlend>
</filter>




<linearGradient id="paint1_linear_1_37811" x1="65.5898" y1="414.313" x2="94.9378" y2="414.313" gradientUnits="userSpaceOnUse">
<stop stop-color="#4375C6"></stop>
<stop offset="1" stop-color="#123AB3"></stop>
</linearGradient>
<linearGradient id="paint2_linear_1_37811" x1="76.8296" y1="407.183" x2="83.718" y2="407.183" gradientUnits="userSpaceOnUse">
<stop stop-color="#FFB46A"></stop>
<stop offset="1" stop-color="#FF7057"></stop>
</linearGradient>
<linearGradient id="paint3_linear_1_37811" x1="79.0735" y1="397.065" x2="90.9242" y2="408.561" gradientUnits="userSpaceOnUse">
<stop offset="0.13" stop-color="#FFB46A"></stop>
<stop offset="1" stop-color="#FF7057"></stop>
</linearGradient>
<clipPath id="clip0_1_37811">
<rect width="393" height="1036" fill="white"></rect>
</clipPath>







<clipPath id="clip8_1_37811">
<rect width="44" height="44" fill="white" transform="translate(58 380)"></rect>
</clipPath>
<clipPath id="clip9_1_37811">
<rect x="23" y="607" width="348" height="198" rx="2" fill="white"></rect>
</clipPath>




</defs>
</svg>