<svg width="50" height="54" viewBox="172 486 50 54" fill="none" xmlns="http://www.w3.org/2000/svg" xmlns:xlink="http://www.w3.org/1999/xlink">
<g clip-path="url(#clip0_1_37811)">
<rect width="393" height="1036" fill="#FBFBFB"></rect>























































































<mask id="mask0_1_37811" style="mask-type:alpha" maskUnits="userSpaceOnUse" x="1" y="70" width="391" height="225">
<rect x="1" y="70" width="391" height="225" fill="#D9D9D9"></rect>
</mask>
<g mask="url(#mask0_1_37811)">










































































































<mask id="mask1_1_37811" style="mask-type:luminance" maskUnits="userSpaceOnUse" x="71" y="239" width="34" height="23">
<path d="M71.7207 239.578L71.7298 243.03L104.529 261.954V258.53L71.7207 239.578Z" fill="white"></path>
</mask>









































<mask id="mask2_1_37811" style="mask-type:luminance" maskUnits="userSpaceOnUse" x="78" y="224" width="11" height="13">
<path d="M82.4556 235.412C79.7399 233.426 77.8654 229.525 78.2677 226.696C78.6701 223.876 81.1938 223.199 83.9095 225.186C86.6252 227.172 88.4997 231.073 88.0974 233.902C87.6951 236.722 85.1714 237.399 82.4556 235.412Z" fill="white"></path>
</mask>













<mask id="mask3_1_37811" style="mask-type:luminance" maskUnits="userSpaceOnUse" x="26" y="193" width="11" height="14">
<path d="M30.3721 205.327C27.6564 203.341 25.7819 199.44 26.1842 196.611C26.5866 193.791 29.1103 193.114 31.826 195.101C34.5417 197.087 36.4162 200.988 36.0139 203.817C35.6116 206.637 33.0879 207.314 30.3721 205.327Z" fill="white"></path>
</mask>
















































































































<mask id="mask4_1_37811" style="mask-type:luminance" maskUnits="userSpaceOnUse" x="96" y="260" width="32" height="34">
<path d="M113.252 293.579L100.862 286.767L96.4824 268.428L103.596 262.258V261.076C105.407 260.719 107.601 261.168 109.96 262.532C116.032 266.039 120.979 274.315 121.281 281.319L127.206 284.744L113.252 293.588V293.579Z" fill="white"></path>
</mask>




























































<mask id="mask5_1_37811" style="mask-type:luminance" maskUnits="userSpaceOnUse" x="1" y="198" width="34" height="24">
<path d="M1.20312 198.717L1.21227 202.168L34.0205 221.093L34.0113 217.669L1.20312 198.717Z" fill="white"></path>
</mask>
























</g>












<g filter="url(#filter7_d_1_37811)">
<rect x="147" y="486" width="100" height="100" rx="15" fill="white"></rect>
</g>

<g clip-path="url(#clip7_1_37811)">
<path d="M211.034 496H185.166C183.97 496 183 496.99 183 498.211V533.071C183 534.292 183.97 535.282 185.166 535.282H211.034C212.23 535.282 213.2 534.292 213.2 533.071V498.211C213.2 496.99 212.23 496 211.034 496Z" fill="#FF6529"></path>
<path d="M208.667 498.718H182.799C181.603 498.718 180.633 499.708 180.633 500.929V535.789C180.633 537.01 181.603 538 182.799 538H208.667C209.863 538 210.833 537.01 210.833 535.789V500.929C210.833 499.708 209.863 498.718 208.667 498.718Z" fill="#ADCAFD"></path>
<path d="M208.034 498.718H182.166C180.97 498.718 180 499.708 180 500.929V535.789C180 537.01 180.97 538 182.166 538H208.034C209.23 538 210.2 537.01 210.2 535.789V500.929C210.2 499.708 209.23 498.718 208.034 498.718Z" fill="#E7F2FF"></path>
<path d="M206.701 501.792H182.994C182.676 501.792 182.418 502.055 182.418 502.38V504.598C182.418 504.923 182.676 505.186 182.994 505.186H206.701C207.019 505.186 207.277 504.923 207.277 504.598V502.38C207.277 502.055 207.019 501.792 206.701 501.792Z" fill="#FFB600"></path>
<path d="M196.985 507.288H183.526C182.914 507.288 182.418 507.795 182.418 508.42C182.418 509.044 182.914 509.551 183.526 509.551H196.985C197.597 509.551 198.093 509.044 198.093 508.42C198.093 507.795 197.597 507.288 196.985 507.288Z" fill="#C5DAFF"></path>
<path d="M203.318 511.652H183.368C182.756 511.652 182.259 512.159 182.259 512.784C182.259 513.409 182.756 513.915 183.368 513.915H203.318C203.93 513.915 204.427 513.409 204.427 512.784C204.427 512.159 203.93 511.652 203.318 511.652Z" fill="#C5DAFF"></path>
<path d="M203.318 516.017H183.368C182.756 516.017 182.259 516.523 182.259 517.148C182.259 517.773 182.756 518.28 183.368 518.28H203.318C203.93 518.28 204.427 517.773 204.427 517.148C204.427 516.523 203.93 516.017 203.318 516.017Z" fill="#C5DAFF"></path>
<path d="M198.41 527.655H195.718V532.828H198.41V527.655Z" fill="#FFBD17"></path>
<path d="M191.285 525.068H188.593V532.827H191.285V525.068Z" fill="#FFBD17"></path>
<path d="M194.768 523.452H192.077V532.827H194.768V523.452Z" fill="#C5DAFF"></path>
<path d="M206.168 527.008H203.477V532.827H206.168V527.008Z" fill="#C5DAFF"></path>
<path d="M187.692 527.008H185V532.827H187.692V527.008Z" fill="#C5DAFF"></path>
<path d="M202.21 523.452H199.519V532.827H202.21V523.452Z" fill="#C5DAFF"></path>
</g>

























































<g clip-path="url(#clip9_1_37811)">
<mask id="path-1002-inside-1_1_37811" fill="white">
<path d="M23 607H371V667H23V607Z"></path>
</mask>







<mask id="path-1010-inside-2_1_37811" fill="white">
<path d="M23 676H371V736H23V676Z"></path>
</mask>







<mask id="path-1018-inside-3_1_37811" fill="white">
<path d="M23 745H371V805H23V745Z"></path>
</mask>







</g>








<g filter="url(#filter9_d_1_37811)">
<mask id="path-1034-inside-4_1_37811" fill="white">
<path d="M2 839H392V910H2V839Z"></path>
</mask>










</g>















































</g>
<defs>







<filter id="filter7_d_1_37811" x="117" y="461" width="160" height="160" filterUnits="userSpaceOnUse" color-interpolation-filters="sRGB">
<feFlood flood-opacity="0" result="BackgroundImageFix"></feFlood>
<feColorMatrix in="SourceAlpha" type="matrix" values="0 0 0 0 0 0 0 0 0 0 0 0 0 0 0 0 0 0 127 0" result="hardAlpha"></feColorMatrix>
<feOffset dy="5"></feOffset>
<feGaussianBlur stdDeviation="15"></feGaussianBlur>
<feColorMatrix type="matrix" values="0 0 0 0 0 0 0 0 0 0 0 0 0 0 0 0 0 0 0.05 0"></feColorMatrix>
<feBlend mode="normal" in2="BackgroundImageFix" result="effect1_dropShadow_1_37811"></feBlend>
<feBlend mode="normal" in="SourceGraphic" in2="effect1_dropShadow_1_37811" result="shape"></feBlend>
</filter>






<filter id="filter9_d_1_37811" x="-8" y="827" width="410" height="91" filterUnits="userSpaceOnUse" color-interpolation-filters="sRGB">
<feFlood flood-opacity="0" result="BackgroundImageFix"></feFlood>
<feColorMatrix in="SourceAlpha" type="matrix" values="0 0 0 0 0 0 0 0 0 0 0 0 0 0 0 0 0 0 127 0" result="hardAlpha"></feColorMatrix>
<feOffset dy="-2"></feOffset>
<feGaussianBlur stdDeviation="5"></feGaussianBlur>
<feComposite in2="hardAlpha" operator="out"></feComposite>
<feColorMatrix type="matrix" values="0 0 0 0 0 0 0 0 0 0 0 0 0 0 0 0 0 0 0.04 0"></feColorMatrix>
<feBlend mode="normal" in2="BackgroundImageFix" result="effect1_dropShadow_1_37811"></feBlend>
<feBlend mode="normal" in="SourceGraphic" in2="effect1_dropShadow_1_37811" result="shape"></feBlend>
</filter>







<clipPath id="clip0_1_37811">
<rect width="393" height="1036" fill="white"></rect>
</clipPath>






<clipPath id="clip7_1_37811">
<rect width="34" height="43" fill="white" transform="translate(180 495)"></rect>
</clipPath>

<clipPath id="clip9_1_37811">
<rect x="23" y="607" width="348" height="198" rx="2" fill="white"></rect>
</clipPath>




</defs>
</svg>